M48
; DRILL file KiCad 10.0.5-10.0.5~ubuntu24.04.1 date 2026-09-03T10:29:24
; FORMAT={-:-/ absolute / metric / decimal}
; #@! TF.CreationDate,2026-09-03T10:29:24-06:00
; #@! TF.GenerationSoftware,Kicad,Pcbnew,10.0.5-10.0.5~ubuntu24.04.1
; #@! TF.FileFunction,Plated,1,2,PTH
FMAT,2
METRIC
; #@! TA.AperFunction,Plated,PTH,ViaDrill
T1C0.300
; #@! TA.AperFunction,Plated,PTH,ViaDrill
T2C0.400
; #@! TA.AperFunction,Plated,PTH,ComponentDrill
T3C0.600
; #@! TA.AperFunction,Plated,PTH,ComponentDrill
T4C1.700
%
G90
G05
T1
X37.096Y-57.0
X37.487Y-67.405
X37.7Y-64.7
X38.357Y-74.0
X38.357Y-76.5
X38.6Y-59.0
X38.8Y-63.6
X38.9Y-69.3
X39.1Y-66.2
X39.509Y-57.95
X40.5Y-68.9
X40.621Y-79.815
X41.1Y-60.5
X41.1Y-62.5
X41.785Y-89.172
X42.253Y-71.546
X42.3Y-65.5
X42.508Y-89.362
X42.596Y-76.5
X43.0Y-59.5
X43.3Y-65.6
X44.2Y-68.1
X44.2Y-73.0
X45.578Y-84.448
X45.95Y-87.375
X45.984Y-71.166
X46.32Y-67.338
X46.502Y-64.223
X46.75Y-87.15
X47.0Y-59.5
X48.1Y-68.2
X48.325Y-84.525
X48.5Y-57.0
X48.7Y-73.0
X50.0Y-70.4
X50.191Y-63.5
X51.3Y-69.4
X51.3Y-71.6
X51.492Y-89.362
X51.7Y-65.2
X52.2Y-58.45
X52.285Y-88.645
X52.4Y-78.3
X52.5Y-67.0
X52.5Y-75.5
X53.0Y-69.2
X53.621Y-79.815
X54.0Y-64.3
X54.218Y-56.525
X55.0Y-65.4
X55.484Y-61.725
X55.596Y-76.5
X56.6Y-68.3
X57.031Y-69.34
X57.3Y-70.3
X57.4Y-77.4
X58.718Y-56.525
X61.4Y-75.9
X61.6Y-79.0
X62.275Y-82.125
X62.275Y-85.875
X63.218Y-56.525
X63.8Y-71.3
X64.0Y-82.9
X64.1Y-78.2
X65.579Y-77.0
X65.9Y-74.4
X65.9Y-76.1
X66.2Y-83.0
X66.4Y-72.7
X67.718Y-56.525
X68.7Y-60.7
X69.5Y-72.7
X70.0Y-57.1
X70.6Y-59.0
X71.4Y-80.4
X71.7Y-83.0
X73.0Y-76.0
X73.0Y-80.6
X73.8Y-82.9
X74.121Y-78.315
X77.785Y-89.172
X78.508Y-89.362
X79.3Y-55.2
X80.0Y-52.0
X80.074Y-49.899
X80.69Y-67.215
X80.838Y-71.046
X81.95Y-87.375
X82.5Y-55.8
X82.7Y-79.625
X82.75Y-87.15
X83.121Y-78.315
X83.2Y-58.0
X84.325Y-84.525
X84.554Y-66.932
X85.1Y-68.8
X85.1Y-74.1
X87.492Y-89.362
X87.8Y-68.5
X88.1Y-73.9
X88.121Y-78.315
X88.285Y-88.645
X89.4Y-58.7
X89.6Y-50.7
X89.7Y-54.6
X89.885Y-48.675
X89.885Y-49.325
X89.885Y-52.675
X89.885Y-53.325
X89.885Y-56.675
X89.885Y-57.325
X92.0Y-72.6
X92.509Y-78.95
X94.079Y-71.0
X97.357Y-81.5
X98.096Y-74.5
T2
X58.0Y-62.55
X58.0Y-68.45
X59.0Y-62.55
X59.0Y-68.45
X60.0Y-62.55
X60.0Y-68.45
X76.4Y-60.6
X76.4Y-81.0
X77.6Y-60.6
X77.6Y-81.0
T4
X93.0Y-59.0
X96.96Y-59.0
T3
X42.68Y-83.85G85X42.68Y-83.25
G05
X42.68Y-88.28G85X42.68Y-87.18
G05
X51.32Y-83.85G85X51.32Y-83.25
G05
X51.32Y-88.28G85X51.32Y-87.18
G05
X78.68Y-83.85G85X78.68Y-83.25
G05
X78.68Y-88.28G85X78.68Y-87.18
G05
X87.32Y-83.85G85X87.32Y-83.25
G05
X87.32Y-88.28G85X87.32Y-87.18
G05
M30
