%TF.GenerationSoftware,KiCad,Pcbnew,10.0.5-10.0.5~ubuntu24.04.1*%
%TF.CreationDate,2026-09-03T02:54:39-06:00*%
%TF.ProjectId,liion_power_bank,6c69696f-6e5f-4706-9f77-65725f62616e,rev?*%
%TF.SameCoordinates,Original*%
%TF.FileFunction,Legend,Top*%
%TF.FilePolarity,Positive*%
%FSLAX46Y46*%
G04 Gerber Fmt 4.6, Leading zero omitted, Abs format (unit mm)*
G04 Created by KiCad (PCBNEW 10.0.5-10.0.5~ubuntu24.04.1) date 2026-09-03 02:54:39*
%MOMM*%
%LPD*%
G01*
G04 APERTURE LIST*
G04 Aperture macros list*
%AMRoundRect*
0 Rectangle with rounded corners*
0 $1 Rounding radius*
0 $2 $3 $4 $5 $6 $7 $8 $9 X,Y pos of 4 corners*
0 Add a 4 corners polygon primitive as box body*
4,1,4,$2,$3,$4,$5,$6,$7,$8,$9,$2,$3,0*
0 Add four circle primitives for the rounded corners*
1,1,$1+$1,$2,$3*
1,1,$1+$1,$4,$5*
1,1,$1+$1,$6,$7*
1,1,$1+$1,$8,$9*
0 Add four rect primitives between the rounded corners*
20,1,$1+$1,$2,$3,$4,$5,0*
20,1,$1+$1,$4,$5,$6,$7,0*
20,1,$1+$1,$6,$7,$8,$9,0*
20,1,$1+$1,$8,$9,$2,$3,0*%
G04 Aperture macros list end*
%ADD10C,0.150000*%
%ADD11C,0.120000*%
%ADD12C,0.210000*%
%ADD13RoundRect,0.150000X-0.587500X-0.150000X0.587500X-0.150000X0.587500X0.150000X-0.587500X0.150000X0*%
%ADD14C,1.000000*%
%ADD15RoundRect,0.218750X-0.218750X-0.256250X0.218750X-0.256250X0.218750X0.256250X-0.218750X0.256250X0*%
%ADD16RoundRect,0.200000X-0.200000X-0.275000X0.200000X-0.275000X0.200000X0.275000X-0.200000X0.275000X0*%
%ADD17R,0.300000X0.500000*%
%ADD18RoundRect,0.225000X-0.225000X-0.250000X0.225000X-0.250000X0.225000X0.250000X-0.225000X0.250000X0*%
%ADD19C,0.650000*%
%ADD20RoundRect,0.150000X0.150000X0.575000X-0.150000X0.575000X-0.150000X-0.575000X0.150000X-0.575000X0*%
%ADD21RoundRect,0.075000X0.075000X0.650000X-0.075000X0.650000X-0.075000X-0.650000X0.075000X-0.650000X0*%
%ADD22O,1.000000X2.100000*%
%ADD23O,1.000000X1.600000*%
%ADD24RoundRect,0.250000X-0.325000X-0.650000X0.325000X-0.650000X0.325000X0.650000X-0.325000X0.650000X0*%
%ADD25RoundRect,0.250000X0.650000X-0.325000X0.650000X0.325000X-0.650000X0.325000X-0.650000X-0.325000X0*%
%ADD26RoundRect,0.150000X-0.825000X-0.150000X0.825000X-0.150000X0.825000X0.150000X-0.825000X0.150000X0*%
%ADD27RoundRect,0.250000X-0.250000X-0.475000X0.250000X-0.475000X0.250000X0.475000X-0.250000X0.475000X0*%
%ADD28RoundRect,0.225000X0.250000X-0.225000X0.250000X0.225000X-0.250000X0.225000X-0.250000X-0.225000X0*%
%ADD29R,1.950000X0.600000*%
%ADD30R,2.090000X2.090000*%
%ADD31R,1.000000X0.750000*%
%ADD32C,3.200000*%
%ADD33R,1.100000X0.400000*%
%ADD34RoundRect,0.250000X0.475000X-0.250000X0.475000X0.250000X-0.475000X0.250000X-0.475000X-0.250000X0*%
%ADD35R,7.500000X2.200000*%
%ADD36RoundRect,0.250001X-1.099999X-1.099999X1.099999X-1.099999X1.099999X1.099999X-1.099999X1.099999X0*%
%ADD37C,2.700000*%
%ADD38RoundRect,0.150000X-0.512500X-0.150000X0.512500X-0.150000X0.512500X0.150000X-0.512500X0.150000X0*%
G04 APERTURE END LIST*
D10*
X33914286Y-75151414D02*
X33828572Y-75108557D01*
X33828572Y-75108557D02*
X33700000Y-75108557D01*
X33700000Y-75108557D02*
X33571429Y-75151414D01*
X33571429Y-75151414D02*
X33485714Y-75237128D01*
X33485714Y-75237128D02*
X33442857Y-75322842D01*
X33442857Y-75322842D02*
X33400000Y-75494271D01*
X33400000Y-75494271D02*
X33400000Y-75622842D01*
X33400000Y-75622842D02*
X33442857Y-75794271D01*
X33442857Y-75794271D02*
X33485714Y-75879985D01*
X33485714Y-75879985D02*
X33571429Y-75965700D01*
X33571429Y-75965700D02*
X33700000Y-76008557D01*
X33700000Y-76008557D02*
X33785714Y-76008557D01*
X33785714Y-76008557D02*
X33914286Y-75965700D01*
X33914286Y-75965700D02*
X33957143Y-75922842D01*
X33957143Y-75922842D02*
X33957143Y-75622842D01*
X33957143Y-75622842D02*
X33785714Y-75622842D01*
X34342857Y-76008557D02*
X34342857Y-75108557D01*
X34342857Y-75108557D02*
X34857143Y-76008557D01*
X34857143Y-76008557D02*
X34857143Y-75108557D01*
X35285714Y-76008557D02*
X35285714Y-75108557D01*
X35285714Y-75108557D02*
X35500000Y-75108557D01*
X35500000Y-75108557D02*
X35628571Y-75151414D01*
X35628571Y-75151414D02*
X35714286Y-75237128D01*
X35714286Y-75237128D02*
X35757143Y-75322842D01*
X35757143Y-75322842D02*
X35800000Y-75494271D01*
X35800000Y-75494271D02*
X35800000Y-75622842D01*
X35800000Y-75622842D02*
X35757143Y-75794271D01*
X35757143Y-75794271D02*
X35714286Y-75879985D01*
X35714286Y-75879985D02*
X35628571Y-75965700D01*
X35628571Y-75965700D02*
X35500000Y-76008557D01*
X35500000Y-76008557D02*
X35285714Y-76008557D01*
X36314286Y-78251414D02*
X36228572Y-78208557D01*
X36228572Y-78208557D02*
X36100000Y-78208557D01*
X36100000Y-78208557D02*
X35971429Y-78251414D01*
X35971429Y-78251414D02*
X35885714Y-78337128D01*
X35885714Y-78337128D02*
X35842857Y-78422842D01*
X35842857Y-78422842D02*
X35800000Y-78594271D01*
X35800000Y-78594271D02*
X35800000Y-78722842D01*
X35800000Y-78722842D02*
X35842857Y-78894271D01*
X35842857Y-78894271D02*
X35885714Y-78979985D01*
X35885714Y-78979985D02*
X35971429Y-79065700D01*
X35971429Y-79065700D02*
X36100000Y-79108557D01*
X36100000Y-79108557D02*
X36185714Y-79108557D01*
X36185714Y-79108557D02*
X36314286Y-79065700D01*
X36314286Y-79065700D02*
X36357143Y-79022842D01*
X36357143Y-79022842D02*
X36357143Y-78722842D01*
X36357143Y-78722842D02*
X36185714Y-78722842D01*
X36742857Y-79108557D02*
X36742857Y-78208557D01*
X36742857Y-78208557D02*
X37257143Y-79108557D01*
X37257143Y-79108557D02*
X37257143Y-78208557D01*
X37685714Y-79108557D02*
X37685714Y-78208557D01*
X37685714Y-78208557D02*
X37900000Y-78208557D01*
X37900000Y-78208557D02*
X38028571Y-78251414D01*
X38028571Y-78251414D02*
X38114286Y-78337128D01*
X38114286Y-78337128D02*
X38157143Y-78422842D01*
X38157143Y-78422842D02*
X38200000Y-78594271D01*
X38200000Y-78594271D02*
X38200000Y-78722842D01*
X38200000Y-78722842D02*
X38157143Y-78894271D01*
X38157143Y-78894271D02*
X38114286Y-78979985D01*
X38114286Y-78979985D02*
X38028571Y-79065700D01*
X38028571Y-79065700D02*
X37900000Y-79108557D01*
X37900000Y-79108557D02*
X37685714Y-79108557D01*
X41250000Y-77508557D02*
X41550000Y-78408557D01*
X41550000Y-78408557D02*
X41850000Y-77508557D01*
X42450000Y-77937128D02*
X42578572Y-77979985D01*
X42578572Y-77979985D02*
X42621429Y-78022842D01*
X42621429Y-78022842D02*
X42664286Y-78108557D01*
X42664286Y-78108557D02*
X42664286Y-78237128D01*
X42664286Y-78237128D02*
X42621429Y-78322842D01*
X42621429Y-78322842D02*
X42578572Y-78365700D01*
X42578572Y-78365700D02*
X42492857Y-78408557D01*
X42492857Y-78408557D02*
X42150000Y-78408557D01*
X42150000Y-78408557D02*
X42150000Y-77508557D01*
X42150000Y-77508557D02*
X42450000Y-77508557D01*
X42450000Y-77508557D02*
X42535715Y-77551414D01*
X42535715Y-77551414D02*
X42578572Y-77594271D01*
X42578572Y-77594271D02*
X42621429Y-77679985D01*
X42621429Y-77679985D02*
X42621429Y-77765700D01*
X42621429Y-77765700D02*
X42578572Y-77851414D01*
X42578572Y-77851414D02*
X42535715Y-77894271D01*
X42535715Y-77894271D02*
X42450000Y-77937128D01*
X42450000Y-77937128D02*
X42150000Y-77937128D01*
X43050000Y-77508557D02*
X43050000Y-78237128D01*
X43050000Y-78237128D02*
X43092857Y-78322842D01*
X43092857Y-78322842D02*
X43135715Y-78365700D01*
X43135715Y-78365700D02*
X43221429Y-78408557D01*
X43221429Y-78408557D02*
X43392857Y-78408557D01*
X43392857Y-78408557D02*
X43478572Y-78365700D01*
X43478572Y-78365700D02*
X43521429Y-78322842D01*
X43521429Y-78322842D02*
X43564286Y-78237128D01*
X43564286Y-78237128D02*
X43564286Y-77508557D01*
X43950000Y-78365700D02*
X44078572Y-78408557D01*
X44078572Y-78408557D02*
X44292857Y-78408557D01*
X44292857Y-78408557D02*
X44378572Y-78365700D01*
X44378572Y-78365700D02*
X44421429Y-78322842D01*
X44421429Y-78322842D02*
X44464286Y-78237128D01*
X44464286Y-78237128D02*
X44464286Y-78151414D01*
X44464286Y-78151414D02*
X44421429Y-78065700D01*
X44421429Y-78065700D02*
X44378572Y-78022842D01*
X44378572Y-78022842D02*
X44292857Y-77979985D01*
X44292857Y-77979985D02*
X44121429Y-77937128D01*
X44121429Y-77937128D02*
X44035714Y-77894271D01*
X44035714Y-77894271D02*
X43992857Y-77851414D01*
X43992857Y-77851414D02*
X43950000Y-77765700D01*
X43950000Y-77765700D02*
X43950000Y-77679985D01*
X43950000Y-77679985D02*
X43992857Y-77594271D01*
X43992857Y-77594271D02*
X44035714Y-77551414D01*
X44035714Y-77551414D02*
X44121429Y-77508557D01*
X44121429Y-77508557D02*
X44335714Y-77508557D01*
X44335714Y-77508557D02*
X44464286Y-77551414D01*
X48714286Y-60908557D02*
X49014286Y-61808557D01*
X49014286Y-61808557D02*
X49314286Y-60908557D01*
X49785715Y-60908557D02*
X49957143Y-60908557D01*
X49957143Y-60908557D02*
X50042858Y-60951414D01*
X50042858Y-60951414D02*
X50128572Y-61037128D01*
X50128572Y-61037128D02*
X50171429Y-61208557D01*
X50171429Y-61208557D02*
X50171429Y-61508557D01*
X50171429Y-61508557D02*
X50128572Y-61679985D01*
X50128572Y-61679985D02*
X50042858Y-61765700D01*
X50042858Y-61765700D02*
X49957143Y-61808557D01*
X49957143Y-61808557D02*
X49785715Y-61808557D01*
X49785715Y-61808557D02*
X49700001Y-61765700D01*
X49700001Y-61765700D02*
X49614286Y-61679985D01*
X49614286Y-61679985D02*
X49571429Y-61508557D01*
X49571429Y-61508557D02*
X49571429Y-61208557D01*
X49571429Y-61208557D02*
X49614286Y-61037128D01*
X49614286Y-61037128D02*
X49700001Y-60951414D01*
X49700001Y-60951414D02*
X49785715Y-60908557D01*
X50557143Y-60908557D02*
X50557143Y-61637128D01*
X50557143Y-61637128D02*
X50600000Y-61722842D01*
X50600000Y-61722842D02*
X50642858Y-61765700D01*
X50642858Y-61765700D02*
X50728572Y-61808557D01*
X50728572Y-61808557D02*
X50900000Y-61808557D01*
X50900000Y-61808557D02*
X50985715Y-61765700D01*
X50985715Y-61765700D02*
X51028572Y-61722842D01*
X51028572Y-61722842D02*
X51071429Y-61637128D01*
X51071429Y-61637128D02*
X51071429Y-60908557D01*
X51371429Y-60908557D02*
X51885715Y-60908557D01*
X51628572Y-61808557D02*
X51628572Y-60908557D01*
X52414286Y-68108557D02*
X52714286Y-69008557D01*
X52714286Y-69008557D02*
X53014286Y-68108557D01*
X53314286Y-69008557D02*
X53314286Y-68108557D01*
X53742857Y-69008557D02*
X53742857Y-68108557D01*
X53742857Y-68108557D02*
X54257143Y-69008557D01*
X54257143Y-69008557D02*
X54257143Y-68108557D01*
X63342857Y-82665700D02*
X63471429Y-82708557D01*
X63471429Y-82708557D02*
X63685714Y-82708557D01*
X63685714Y-82708557D02*
X63771429Y-82665700D01*
X63771429Y-82665700D02*
X63814286Y-82622842D01*
X63814286Y-82622842D02*
X63857143Y-82537128D01*
X63857143Y-82537128D02*
X63857143Y-82451414D01*
X63857143Y-82451414D02*
X63814286Y-82365700D01*
X63814286Y-82365700D02*
X63771429Y-82322842D01*
X63771429Y-82322842D02*
X63685714Y-82279985D01*
X63685714Y-82279985D02*
X63514286Y-82237128D01*
X63514286Y-82237128D02*
X63428571Y-82194271D01*
X63428571Y-82194271D02*
X63385714Y-82151414D01*
X63385714Y-82151414D02*
X63342857Y-82065700D01*
X63342857Y-82065700D02*
X63342857Y-81979985D01*
X63342857Y-81979985D02*
X63385714Y-81894271D01*
X63385714Y-81894271D02*
X63428571Y-81851414D01*
X63428571Y-81851414D02*
X63514286Y-81808557D01*
X63514286Y-81808557D02*
X63728571Y-81808557D01*
X63728571Y-81808557D02*
X63857143Y-81851414D01*
X64757143Y-82708557D02*
X64457143Y-82279985D01*
X64242857Y-82708557D02*
X64242857Y-81808557D01*
X64242857Y-81808557D02*
X64585714Y-81808557D01*
X64585714Y-81808557D02*
X64671429Y-81851414D01*
X64671429Y-81851414D02*
X64714286Y-81894271D01*
X64714286Y-81894271D02*
X64757143Y-81979985D01*
X64757143Y-81979985D02*
X64757143Y-82108557D01*
X64757143Y-82108557D02*
X64714286Y-82194271D01*
X64714286Y-82194271D02*
X64671429Y-82237128D01*
X64671429Y-82237128D02*
X64585714Y-82279985D01*
X64585714Y-82279985D02*
X64242857Y-82279985D01*
X65657143Y-82622842D02*
X65614286Y-82665700D01*
X65614286Y-82665700D02*
X65485714Y-82708557D01*
X65485714Y-82708557D02*
X65400000Y-82708557D01*
X65400000Y-82708557D02*
X65271429Y-82665700D01*
X65271429Y-82665700D02*
X65185714Y-82579985D01*
X65185714Y-82579985D02*
X65142857Y-82494271D01*
X65142857Y-82494271D02*
X65100000Y-82322842D01*
X65100000Y-82322842D02*
X65100000Y-82194271D01*
X65100000Y-82194271D02*
X65142857Y-82022842D01*
X65142857Y-82022842D02*
X65185714Y-81937128D01*
X65185714Y-81937128D02*
X65271429Y-81851414D01*
X65271429Y-81851414D02*
X65400000Y-81808557D01*
X65400000Y-81808557D02*
X65485714Y-81808557D01*
X65485714Y-81808557D02*
X65614286Y-81851414D01*
X65614286Y-81851414D02*
X65657143Y-81894271D01*
X63814285Y-85394271D02*
X63857142Y-85351414D01*
X63857142Y-85351414D02*
X63942857Y-85308557D01*
X63942857Y-85308557D02*
X64157142Y-85308557D01*
X64157142Y-85308557D02*
X64242857Y-85351414D01*
X64242857Y-85351414D02*
X64285714Y-85394271D01*
X64285714Y-85394271D02*
X64328571Y-85479985D01*
X64328571Y-85479985D02*
X64328571Y-85565700D01*
X64328571Y-85565700D02*
X64285714Y-85694271D01*
X64285714Y-85694271D02*
X63771428Y-86208557D01*
X63771428Y-86208557D02*
X64328571Y-86208557D01*
X65142857Y-85308557D02*
X64714285Y-85308557D01*
X64714285Y-85308557D02*
X64671428Y-85737128D01*
X64671428Y-85737128D02*
X64714285Y-85694271D01*
X64714285Y-85694271D02*
X64800000Y-85651414D01*
X64800000Y-85651414D02*
X65014285Y-85651414D01*
X65014285Y-85651414D02*
X65100000Y-85694271D01*
X65100000Y-85694271D02*
X65142857Y-85737128D01*
X65142857Y-85737128D02*
X65185714Y-85822842D01*
X65185714Y-85822842D02*
X65185714Y-86037128D01*
X65185714Y-86037128D02*
X65142857Y-86122842D01*
X65142857Y-86122842D02*
X65100000Y-86165700D01*
X65100000Y-86165700D02*
X65014285Y-86208557D01*
X65014285Y-86208557D02*
X64800000Y-86208557D01*
X64800000Y-86208557D02*
X64714285Y-86165700D01*
X64714285Y-86165700D02*
X64671428Y-86122842D01*
X64128572Y-72008557D02*
X64428572Y-72908557D01*
X64428572Y-72908557D02*
X64728572Y-72008557D01*
X65200001Y-72008557D02*
X65371429Y-72008557D01*
X65371429Y-72008557D02*
X65457144Y-72051414D01*
X65457144Y-72051414D02*
X65542858Y-72137128D01*
X65542858Y-72137128D02*
X65585715Y-72308557D01*
X65585715Y-72308557D02*
X65585715Y-72608557D01*
X65585715Y-72608557D02*
X65542858Y-72779985D01*
X65542858Y-72779985D02*
X65457144Y-72865700D01*
X65457144Y-72865700D02*
X65371429Y-72908557D01*
X65371429Y-72908557D02*
X65200001Y-72908557D01*
X65200001Y-72908557D02*
X65114287Y-72865700D01*
X65114287Y-72865700D02*
X65028572Y-72779985D01*
X65028572Y-72779985D02*
X64985715Y-72608557D01*
X64985715Y-72608557D02*
X64985715Y-72308557D01*
X64985715Y-72308557D02*
X65028572Y-72137128D01*
X65028572Y-72137128D02*
X65114287Y-72051414D01*
X65114287Y-72051414D02*
X65200001Y-72008557D01*
X65971429Y-72008557D02*
X65971429Y-72737128D01*
X65971429Y-72737128D02*
X66014286Y-72822842D01*
X66014286Y-72822842D02*
X66057144Y-72865700D01*
X66057144Y-72865700D02*
X66142858Y-72908557D01*
X66142858Y-72908557D02*
X66314286Y-72908557D01*
X66314286Y-72908557D02*
X66400001Y-72865700D01*
X66400001Y-72865700D02*
X66442858Y-72822842D01*
X66442858Y-72822842D02*
X66485715Y-72737128D01*
X66485715Y-72737128D02*
X66485715Y-72008557D01*
X66785715Y-72008557D02*
X67300001Y-72008557D01*
X67042858Y-72908557D02*
X67042858Y-72008557D01*
X67385715Y-72994271D02*
X68071429Y-72994271D01*
X68242857Y-72865700D02*
X68371429Y-72908557D01*
X68371429Y-72908557D02*
X68585714Y-72908557D01*
X68585714Y-72908557D02*
X68671429Y-72865700D01*
X68671429Y-72865700D02*
X68714286Y-72822842D01*
X68714286Y-72822842D02*
X68757143Y-72737128D01*
X68757143Y-72737128D02*
X68757143Y-72651414D01*
X68757143Y-72651414D02*
X68714286Y-72565700D01*
X68714286Y-72565700D02*
X68671429Y-72522842D01*
X68671429Y-72522842D02*
X68585714Y-72479985D01*
X68585714Y-72479985D02*
X68414286Y-72437128D01*
X68414286Y-72437128D02*
X68328571Y-72394271D01*
X68328571Y-72394271D02*
X68285714Y-72351414D01*
X68285714Y-72351414D02*
X68242857Y-72265700D01*
X68242857Y-72265700D02*
X68242857Y-72179985D01*
X68242857Y-72179985D02*
X68285714Y-72094271D01*
X68285714Y-72094271D02*
X68328571Y-72051414D01*
X68328571Y-72051414D02*
X68414286Y-72008557D01*
X68414286Y-72008557D02*
X68628571Y-72008557D01*
X68628571Y-72008557D02*
X68757143Y-72051414D01*
X69057143Y-72008557D02*
X69271429Y-72908557D01*
X69271429Y-72908557D02*
X69442857Y-72265700D01*
X69442857Y-72265700D02*
X69614286Y-72908557D01*
X69614286Y-72908557D02*
X69828572Y-72008557D01*
X67785714Y-85308557D02*
X67357142Y-85308557D01*
X67357142Y-85308557D02*
X67314285Y-85737128D01*
X67314285Y-85737128D02*
X67357142Y-85694271D01*
X67357142Y-85694271D02*
X67442857Y-85651414D01*
X67442857Y-85651414D02*
X67657142Y-85651414D01*
X67657142Y-85651414D02*
X67742857Y-85694271D01*
X67742857Y-85694271D02*
X67785714Y-85737128D01*
X67785714Y-85737128D02*
X67828571Y-85822842D01*
X67828571Y-85822842D02*
X67828571Y-86037128D01*
X67828571Y-86037128D02*
X67785714Y-86122842D01*
X67785714Y-86122842D02*
X67742857Y-86165700D01*
X67742857Y-86165700D02*
X67657142Y-86208557D01*
X67657142Y-86208557D02*
X67442857Y-86208557D01*
X67442857Y-86208557D02*
X67357142Y-86165700D01*
X67357142Y-86165700D02*
X67314285Y-86122842D01*
X68385714Y-85308557D02*
X68471428Y-85308557D01*
X68471428Y-85308557D02*
X68557142Y-85351414D01*
X68557142Y-85351414D02*
X68600000Y-85394271D01*
X68600000Y-85394271D02*
X68642857Y-85479985D01*
X68642857Y-85479985D02*
X68685714Y-85651414D01*
X68685714Y-85651414D02*
X68685714Y-85865700D01*
X68685714Y-85865700D02*
X68642857Y-86037128D01*
X68642857Y-86037128D02*
X68600000Y-86122842D01*
X68600000Y-86122842D02*
X68557142Y-86165700D01*
X68557142Y-86165700D02*
X68471428Y-86208557D01*
X68471428Y-86208557D02*
X68385714Y-86208557D01*
X68385714Y-86208557D02*
X68300000Y-86165700D01*
X68300000Y-86165700D02*
X68257142Y-86122842D01*
X68257142Y-86122842D02*
X68214285Y-86037128D01*
X68214285Y-86037128D02*
X68171428Y-85865700D01*
X68171428Y-85865700D02*
X68171428Y-85651414D01*
X68171428Y-85651414D02*
X68214285Y-85479985D01*
X68214285Y-85479985D02*
X68257142Y-85394271D01*
X68257142Y-85394271D02*
X68300000Y-85351414D01*
X68300000Y-85351414D02*
X68385714Y-85308557D01*
X66528572Y-81008557D02*
X66828572Y-81908557D01*
X66828572Y-81908557D02*
X67128572Y-81008557D01*
X67600001Y-81008557D02*
X67771429Y-81008557D01*
X67771429Y-81008557D02*
X67857144Y-81051414D01*
X67857144Y-81051414D02*
X67942858Y-81137128D01*
X67942858Y-81137128D02*
X67985715Y-81308557D01*
X67985715Y-81308557D02*
X67985715Y-81608557D01*
X67985715Y-81608557D02*
X67942858Y-81779985D01*
X67942858Y-81779985D02*
X67857144Y-81865700D01*
X67857144Y-81865700D02*
X67771429Y-81908557D01*
X67771429Y-81908557D02*
X67600001Y-81908557D01*
X67600001Y-81908557D02*
X67514287Y-81865700D01*
X67514287Y-81865700D02*
X67428572Y-81779985D01*
X67428572Y-81779985D02*
X67385715Y-81608557D01*
X67385715Y-81608557D02*
X67385715Y-81308557D01*
X67385715Y-81308557D02*
X67428572Y-81137128D01*
X67428572Y-81137128D02*
X67514287Y-81051414D01*
X67514287Y-81051414D02*
X67600001Y-81008557D01*
X68371429Y-81008557D02*
X68371429Y-81737128D01*
X68371429Y-81737128D02*
X68414286Y-81822842D01*
X68414286Y-81822842D02*
X68457144Y-81865700D01*
X68457144Y-81865700D02*
X68542858Y-81908557D01*
X68542858Y-81908557D02*
X68714286Y-81908557D01*
X68714286Y-81908557D02*
X68800001Y-81865700D01*
X68800001Y-81865700D02*
X68842858Y-81822842D01*
X68842858Y-81822842D02*
X68885715Y-81737128D01*
X68885715Y-81737128D02*
X68885715Y-81008557D01*
X69185715Y-81008557D02*
X69700001Y-81008557D01*
X69442858Y-81908557D02*
X69442858Y-81008557D01*
X69785715Y-81994271D02*
X70471429Y-81994271D01*
X70642857Y-81865700D02*
X70771429Y-81908557D01*
X70771429Y-81908557D02*
X70985714Y-81908557D01*
X70985714Y-81908557D02*
X71071429Y-81865700D01*
X71071429Y-81865700D02*
X71114286Y-81822842D01*
X71114286Y-81822842D02*
X71157143Y-81737128D01*
X71157143Y-81737128D02*
X71157143Y-81651414D01*
X71157143Y-81651414D02*
X71114286Y-81565700D01*
X71114286Y-81565700D02*
X71071429Y-81522842D01*
X71071429Y-81522842D02*
X70985714Y-81479985D01*
X70985714Y-81479985D02*
X70814286Y-81437128D01*
X70814286Y-81437128D02*
X70728571Y-81394271D01*
X70728571Y-81394271D02*
X70685714Y-81351414D01*
X70685714Y-81351414D02*
X70642857Y-81265700D01*
X70642857Y-81265700D02*
X70642857Y-81179985D01*
X70642857Y-81179985D02*
X70685714Y-81094271D01*
X70685714Y-81094271D02*
X70728571Y-81051414D01*
X70728571Y-81051414D02*
X70814286Y-81008557D01*
X70814286Y-81008557D02*
X71028571Y-81008557D01*
X71028571Y-81008557D02*
X71157143Y-81051414D01*
X71457143Y-81008557D02*
X71671429Y-81908557D01*
X71671429Y-81908557D02*
X71842857Y-81265700D01*
X71842857Y-81265700D02*
X72014286Y-81908557D01*
X72014286Y-81908557D02*
X72228572Y-81008557D01*
X70771428Y-85308557D02*
X71371428Y-85308557D01*
X71371428Y-85308557D02*
X70985714Y-86208557D01*
X72142857Y-85308557D02*
X71714285Y-85308557D01*
X71714285Y-85308557D02*
X71671428Y-85737128D01*
X71671428Y-85737128D02*
X71714285Y-85694271D01*
X71714285Y-85694271D02*
X71800000Y-85651414D01*
X71800000Y-85651414D02*
X72014285Y-85651414D01*
X72014285Y-85651414D02*
X72100000Y-85694271D01*
X72100000Y-85694271D02*
X72142857Y-85737128D01*
X72142857Y-85737128D02*
X72185714Y-85822842D01*
X72185714Y-85822842D02*
X72185714Y-86037128D01*
X72185714Y-86037128D02*
X72142857Y-86122842D01*
X72142857Y-86122842D02*
X72100000Y-86165700D01*
X72100000Y-86165700D02*
X72014285Y-86208557D01*
X72014285Y-86208557D02*
X71800000Y-86208557D01*
X71800000Y-86208557D02*
X71714285Y-86165700D01*
X71714285Y-86165700D02*
X71671428Y-86122842D01*
X74400000Y-86208557D02*
X73885714Y-86208557D01*
X74142857Y-86208557D02*
X74142857Y-85308557D01*
X74142857Y-85308557D02*
X74057143Y-85437128D01*
X74057143Y-85437128D02*
X73971428Y-85522842D01*
X73971428Y-85522842D02*
X73885714Y-85565700D01*
X74957143Y-85308557D02*
X75042857Y-85308557D01*
X75042857Y-85308557D02*
X75128571Y-85351414D01*
X75128571Y-85351414D02*
X75171429Y-85394271D01*
X75171429Y-85394271D02*
X75214286Y-85479985D01*
X75214286Y-85479985D02*
X75257143Y-85651414D01*
X75257143Y-85651414D02*
X75257143Y-85865700D01*
X75257143Y-85865700D02*
X75214286Y-86037128D01*
X75214286Y-86037128D02*
X75171429Y-86122842D01*
X75171429Y-86122842D02*
X75128571Y-86165700D01*
X75128571Y-86165700D02*
X75042857Y-86208557D01*
X75042857Y-86208557D02*
X74957143Y-86208557D01*
X74957143Y-86208557D02*
X74871429Y-86165700D01*
X74871429Y-86165700D02*
X74828571Y-86122842D01*
X74828571Y-86122842D02*
X74785714Y-86037128D01*
X74785714Y-86037128D02*
X74742857Y-85865700D01*
X74742857Y-85865700D02*
X74742857Y-85651414D01*
X74742857Y-85651414D02*
X74785714Y-85479985D01*
X74785714Y-85479985D02*
X74828571Y-85394271D01*
X74828571Y-85394271D02*
X74871429Y-85351414D01*
X74871429Y-85351414D02*
X74957143Y-85308557D01*
X75814286Y-85308557D02*
X75900000Y-85308557D01*
X75900000Y-85308557D02*
X75985714Y-85351414D01*
X75985714Y-85351414D02*
X76028572Y-85394271D01*
X76028572Y-85394271D02*
X76071429Y-85479985D01*
X76071429Y-85479985D02*
X76114286Y-85651414D01*
X76114286Y-85651414D02*
X76114286Y-85865700D01*
X76114286Y-85865700D02*
X76071429Y-86037128D01*
X76071429Y-86037128D02*
X76028572Y-86122842D01*
X76028572Y-86122842D02*
X75985714Y-86165700D01*
X75985714Y-86165700D02*
X75900000Y-86208557D01*
X75900000Y-86208557D02*
X75814286Y-86208557D01*
X75814286Y-86208557D02*
X75728572Y-86165700D01*
X75728572Y-86165700D02*
X75685714Y-86122842D01*
X75685714Y-86122842D02*
X75642857Y-86037128D01*
X75642857Y-86037128D02*
X75600000Y-85865700D01*
X75600000Y-85865700D02*
X75600000Y-85651414D01*
X75600000Y-85651414D02*
X75642857Y-85479985D01*
X75642857Y-85479985D02*
X75685714Y-85394271D01*
X75685714Y-85394271D02*
X75728572Y-85351414D01*
X75728572Y-85351414D02*
X75814286Y-85308557D01*
X77335714Y-68037128D02*
X77464286Y-68079985D01*
X77464286Y-68079985D02*
X77507143Y-68122842D01*
X77507143Y-68122842D02*
X77550000Y-68208557D01*
X77550000Y-68208557D02*
X77550000Y-68337128D01*
X77550000Y-68337128D02*
X77507143Y-68422842D01*
X77507143Y-68422842D02*
X77464286Y-68465700D01*
X77464286Y-68465700D02*
X77378571Y-68508557D01*
X77378571Y-68508557D02*
X77035714Y-68508557D01*
X77035714Y-68508557D02*
X77035714Y-67608557D01*
X77035714Y-67608557D02*
X77335714Y-67608557D01*
X77335714Y-67608557D02*
X77421429Y-67651414D01*
X77421429Y-67651414D02*
X77464286Y-67694271D01*
X77464286Y-67694271D02*
X77507143Y-67779985D01*
X77507143Y-67779985D02*
X77507143Y-67865700D01*
X77507143Y-67865700D02*
X77464286Y-67951414D01*
X77464286Y-67951414D02*
X77421429Y-67994271D01*
X77421429Y-67994271D02*
X77335714Y-68037128D01*
X77335714Y-68037128D02*
X77035714Y-68037128D01*
X77892857Y-68251414D02*
X78321429Y-68251414D01*
X77807143Y-68508557D02*
X78107143Y-67608557D01*
X78107143Y-67608557D02*
X78407143Y-68508557D01*
X78578572Y-67608557D02*
X79092858Y-67608557D01*
X78835715Y-68508557D02*
X78835715Y-67608557D01*
X83735714Y-62637128D02*
X83864286Y-62679985D01*
X83864286Y-62679985D02*
X83907143Y-62722842D01*
X83907143Y-62722842D02*
X83950000Y-62808557D01*
X83950000Y-62808557D02*
X83950000Y-62937128D01*
X83950000Y-62937128D02*
X83907143Y-63022842D01*
X83907143Y-63022842D02*
X83864286Y-63065700D01*
X83864286Y-63065700D02*
X83778571Y-63108557D01*
X83778571Y-63108557D02*
X83435714Y-63108557D01*
X83435714Y-63108557D02*
X83435714Y-62208557D01*
X83435714Y-62208557D02*
X83735714Y-62208557D01*
X83735714Y-62208557D02*
X83821429Y-62251414D01*
X83821429Y-62251414D02*
X83864286Y-62294271D01*
X83864286Y-62294271D02*
X83907143Y-62379985D01*
X83907143Y-62379985D02*
X83907143Y-62465700D01*
X83907143Y-62465700D02*
X83864286Y-62551414D01*
X83864286Y-62551414D02*
X83821429Y-62594271D01*
X83821429Y-62594271D02*
X83735714Y-62637128D01*
X83735714Y-62637128D02*
X83435714Y-62637128D01*
X84292857Y-62851414D02*
X84721429Y-62851414D01*
X84207143Y-63108557D02*
X84507143Y-62208557D01*
X84507143Y-62208557D02*
X84807143Y-63108557D01*
X84978572Y-62208557D02*
X85492858Y-62208557D01*
X85235715Y-63108557D02*
X85235715Y-62208557D01*
X90671429Y-51522842D02*
X90628572Y-51565700D01*
X90628572Y-51565700D02*
X90500000Y-51608557D01*
X90500000Y-51608557D02*
X90414286Y-51608557D01*
X90414286Y-51608557D02*
X90285715Y-51565700D01*
X90285715Y-51565700D02*
X90200000Y-51479985D01*
X90200000Y-51479985D02*
X90157143Y-51394271D01*
X90157143Y-51394271D02*
X90114286Y-51222842D01*
X90114286Y-51222842D02*
X90114286Y-51094271D01*
X90114286Y-51094271D02*
X90157143Y-50922842D01*
X90157143Y-50922842D02*
X90200000Y-50837128D01*
X90200000Y-50837128D02*
X90285715Y-50751414D01*
X90285715Y-50751414D02*
X90414286Y-50708557D01*
X90414286Y-50708557D02*
X90500000Y-50708557D01*
X90500000Y-50708557D02*
X90628572Y-50751414D01*
X90628572Y-50751414D02*
X90671429Y-50794271D01*
X91057143Y-51137128D02*
X91357143Y-51137128D01*
X91485715Y-51608557D02*
X91057143Y-51608557D01*
X91057143Y-51608557D02*
X91057143Y-50708557D01*
X91057143Y-50708557D02*
X91485715Y-50708557D01*
X92300001Y-51608557D02*
X91871429Y-51608557D01*
X91871429Y-51608557D02*
X91871429Y-50708557D01*
X93028572Y-51608557D02*
X92600000Y-51608557D01*
X92600000Y-51608557D02*
X92600000Y-50708557D01*
X93328571Y-51608557D02*
X93328571Y-50708557D01*
X93328571Y-50708557D02*
X93842857Y-51608557D01*
X93842857Y-51608557D02*
X93842857Y-50708557D01*
X95314286Y-83251414D02*
X95228572Y-83208557D01*
X95228572Y-83208557D02*
X95100000Y-83208557D01*
X95100000Y-83208557D02*
X94971429Y-83251414D01*
X94971429Y-83251414D02*
X94885714Y-83337128D01*
X94885714Y-83337128D02*
X94842857Y-83422842D01*
X94842857Y-83422842D02*
X94800000Y-83594271D01*
X94800000Y-83594271D02*
X94800000Y-83722842D01*
X94800000Y-83722842D02*
X94842857Y-83894271D01*
X94842857Y-83894271D02*
X94885714Y-83979985D01*
X94885714Y-83979985D02*
X94971429Y-84065700D01*
X94971429Y-84065700D02*
X95100000Y-84108557D01*
X95100000Y-84108557D02*
X95185714Y-84108557D01*
X95185714Y-84108557D02*
X95314286Y-84065700D01*
X95314286Y-84065700D02*
X95357143Y-84022842D01*
X95357143Y-84022842D02*
X95357143Y-83722842D01*
X95357143Y-83722842D02*
X95185714Y-83722842D01*
X95742857Y-84108557D02*
X95742857Y-83208557D01*
X95742857Y-83208557D02*
X96257143Y-84108557D01*
X96257143Y-84108557D02*
X96257143Y-83208557D01*
X96685714Y-84108557D02*
X96685714Y-83208557D01*
X96685714Y-83208557D02*
X96900000Y-83208557D01*
X96900000Y-83208557D02*
X97028571Y-83251414D01*
X97028571Y-83251414D02*
X97114286Y-83337128D01*
X97114286Y-83337128D02*
X97157143Y-83422842D01*
X97157143Y-83422842D02*
X97200000Y-83594271D01*
X97200000Y-83594271D02*
X97200000Y-83722842D01*
X97200000Y-83722842D02*
X97157143Y-83894271D01*
X97157143Y-83894271D02*
X97114286Y-83979985D01*
X97114286Y-83979985D02*
X97028571Y-84065700D01*
X97028571Y-84065700D02*
X96900000Y-84108557D01*
X96900000Y-84108557D02*
X96685714Y-84108557D01*
X57380952Y-79654819D02*
X57571428Y-79654819D01*
X57571428Y-79654819D02*
X57666666Y-79702438D01*
X57666666Y-79702438D02*
X57761904Y-79797676D01*
X57761904Y-79797676D02*
X57809523Y-79988152D01*
X57809523Y-79988152D02*
X57809523Y-80321485D01*
X57809523Y-80321485D02*
X57761904Y-80511961D01*
X57761904Y-80511961D02*
X57666666Y-80607200D01*
X57666666Y-80607200D02*
X57571428Y-80654819D01*
X57571428Y-80654819D02*
X57380952Y-80654819D01*
X57380952Y-80654819D02*
X57285714Y-80607200D01*
X57285714Y-80607200D02*
X57190476Y-80511961D01*
X57190476Y-80511961D02*
X57142857Y-80321485D01*
X57142857Y-80321485D02*
X57142857Y-79988152D01*
X57142857Y-79988152D02*
X57190476Y-79797676D01*
X57190476Y-79797676D02*
X57285714Y-79702438D01*
X57285714Y-79702438D02*
X57380952Y-79654819D01*
X58238095Y-80654819D02*
X58238095Y-79654819D01*
X58238095Y-79654819D02*
X58809523Y-80654819D01*
X58809523Y-80654819D02*
X58809523Y-79654819D01*
X46371428Y-79747342D02*
X46371428Y-78547342D01*
X46942857Y-79747342D02*
X46942857Y-78547342D01*
X46942857Y-78547342D02*
X47628571Y-79747342D01*
X47628571Y-79747342D02*
X47628571Y-78547342D01*
X53342857Y-88347342D02*
X53342857Y-87147342D01*
X53914286Y-88347342D02*
X53914286Y-87147342D01*
X53914286Y-87147342D02*
X54600000Y-88347342D01*
X54600000Y-88347342D02*
X54600000Y-87147342D01*
X56657143Y-87147342D02*
X56085715Y-87147342D01*
X56085715Y-87147342D02*
X56028572Y-87718771D01*
X56028572Y-87718771D02*
X56085715Y-87661628D01*
X56085715Y-87661628D02*
X56200001Y-87604485D01*
X56200001Y-87604485D02*
X56485715Y-87604485D01*
X56485715Y-87604485D02*
X56600001Y-87661628D01*
X56600001Y-87661628D02*
X56657143Y-87718771D01*
X56657143Y-87718771D02*
X56714286Y-87833057D01*
X56714286Y-87833057D02*
X56714286Y-88118771D01*
X56714286Y-88118771D02*
X56657143Y-88233057D01*
X56657143Y-88233057D02*
X56600001Y-88290200D01*
X56600001Y-88290200D02*
X56485715Y-88347342D01*
X56485715Y-88347342D02*
X56200001Y-88347342D01*
X56200001Y-88347342D02*
X56085715Y-88290200D01*
X56085715Y-88290200D02*
X56028572Y-88233057D01*
X57057143Y-87147342D02*
X57457143Y-88347342D01*
X57457143Y-88347342D02*
X57857143Y-87147342D01*
X59057143Y-87147342D02*
X59800000Y-87147342D01*
X59800000Y-87147342D02*
X59400000Y-87604485D01*
X59400000Y-87604485D02*
X59571429Y-87604485D01*
X59571429Y-87604485D02*
X59685715Y-87661628D01*
X59685715Y-87661628D02*
X59742857Y-87718771D01*
X59742857Y-87718771D02*
X59800000Y-87833057D01*
X59800000Y-87833057D02*
X59800000Y-88118771D01*
X59800000Y-88118771D02*
X59742857Y-88233057D01*
X59742857Y-88233057D02*
X59685715Y-88290200D01*
X59685715Y-88290200D02*
X59571429Y-88347342D01*
X59571429Y-88347342D02*
X59228572Y-88347342D01*
X59228572Y-88347342D02*
X59114286Y-88290200D01*
X59114286Y-88290200D02*
X59057143Y-88233057D01*
X60257143Y-88004485D02*
X60828572Y-88004485D01*
X60142857Y-88347342D02*
X60542857Y-87147342D01*
X60542857Y-87147342D02*
X60942857Y-88347342D01*
X62942857Y-88347342D02*
X62542857Y-87775914D01*
X62257143Y-88347342D02*
X62257143Y-87147342D01*
X62257143Y-87147342D02*
X62714286Y-87147342D01*
X62714286Y-87147342D02*
X62828571Y-87204485D01*
X62828571Y-87204485D02*
X62885714Y-87261628D01*
X62885714Y-87261628D02*
X62942857Y-87375914D01*
X62942857Y-87375914D02*
X62942857Y-87547342D01*
X62942857Y-87547342D02*
X62885714Y-87661628D01*
X62885714Y-87661628D02*
X62828571Y-87718771D01*
X62828571Y-87718771D02*
X62714286Y-87775914D01*
X62714286Y-87775914D02*
X62257143Y-87775914D01*
X63457143Y-87718771D02*
X63857143Y-87718771D01*
X64028571Y-88347342D02*
X63457143Y-88347342D01*
X63457143Y-88347342D02*
X63457143Y-87147342D01*
X63457143Y-87147342D02*
X64028571Y-87147342D01*
X65342857Y-88461628D02*
X65228571Y-88404485D01*
X65228571Y-88404485D02*
X65114285Y-88290200D01*
X65114285Y-88290200D02*
X64942857Y-88118771D01*
X64942857Y-88118771D02*
X64828571Y-88061628D01*
X64828571Y-88061628D02*
X64714285Y-88061628D01*
X64771428Y-88347342D02*
X64657143Y-88290200D01*
X64657143Y-88290200D02*
X64542857Y-88175914D01*
X64542857Y-88175914D02*
X64485714Y-87947342D01*
X64485714Y-87947342D02*
X64485714Y-87547342D01*
X64485714Y-87547342D02*
X64542857Y-87318771D01*
X64542857Y-87318771D02*
X64657143Y-87204485D01*
X64657143Y-87204485D02*
X64771428Y-87147342D01*
X64771428Y-87147342D02*
X65000000Y-87147342D01*
X65000000Y-87147342D02*
X65114285Y-87204485D01*
X65114285Y-87204485D02*
X65228571Y-87318771D01*
X65228571Y-87318771D02*
X65285714Y-87547342D01*
X65285714Y-87547342D02*
X65285714Y-87947342D01*
X65285714Y-87947342D02*
X65228571Y-88175914D01*
X65228571Y-88175914D02*
X65114285Y-88290200D01*
X65114285Y-88290200D02*
X65000000Y-88347342D01*
X65000000Y-88347342D02*
X64771428Y-88347342D01*
X67857143Y-87147342D02*
X68085715Y-87147342D01*
X68085715Y-87147342D02*
X68200000Y-87204485D01*
X68200000Y-87204485D02*
X68314286Y-87318771D01*
X68314286Y-87318771D02*
X68371429Y-87547342D01*
X68371429Y-87547342D02*
X68371429Y-87947342D01*
X68371429Y-87947342D02*
X68314286Y-88175914D01*
X68314286Y-88175914D02*
X68200000Y-88290200D01*
X68200000Y-88290200D02*
X68085715Y-88347342D01*
X68085715Y-88347342D02*
X67857143Y-88347342D01*
X67857143Y-88347342D02*
X67742858Y-88290200D01*
X67742858Y-88290200D02*
X67628572Y-88175914D01*
X67628572Y-88175914D02*
X67571429Y-87947342D01*
X67571429Y-87947342D02*
X67571429Y-87547342D01*
X67571429Y-87547342D02*
X67628572Y-87318771D01*
X67628572Y-87318771D02*
X67742858Y-87204485D01*
X67742858Y-87204485D02*
X67857143Y-87147342D01*
X68885715Y-87147342D02*
X68885715Y-88118771D01*
X68885715Y-88118771D02*
X68942858Y-88233057D01*
X68942858Y-88233057D02*
X69000001Y-88290200D01*
X69000001Y-88290200D02*
X69114286Y-88347342D01*
X69114286Y-88347342D02*
X69342858Y-88347342D01*
X69342858Y-88347342D02*
X69457143Y-88290200D01*
X69457143Y-88290200D02*
X69514286Y-88233057D01*
X69514286Y-88233057D02*
X69571429Y-88118771D01*
X69571429Y-88118771D02*
X69571429Y-87147342D01*
X69971429Y-87147342D02*
X70657144Y-87147342D01*
X70314286Y-88347342D02*
X70314286Y-87147342D01*
X72542858Y-87147342D02*
X71971430Y-87147342D01*
X71971430Y-87147342D02*
X71914287Y-87718771D01*
X71914287Y-87718771D02*
X71971430Y-87661628D01*
X71971430Y-87661628D02*
X72085716Y-87604485D01*
X72085716Y-87604485D02*
X72371430Y-87604485D01*
X72371430Y-87604485D02*
X72485716Y-87661628D01*
X72485716Y-87661628D02*
X72542858Y-87718771D01*
X72542858Y-87718771D02*
X72600001Y-87833057D01*
X72600001Y-87833057D02*
X72600001Y-88118771D01*
X72600001Y-88118771D02*
X72542858Y-88233057D01*
X72542858Y-88233057D02*
X72485716Y-88290200D01*
X72485716Y-88290200D02*
X72371430Y-88347342D01*
X72371430Y-88347342D02*
X72085716Y-88347342D01*
X72085716Y-88347342D02*
X71971430Y-88290200D01*
X71971430Y-88290200D02*
X71914287Y-88233057D01*
X72942858Y-87147342D02*
X73342858Y-88347342D01*
X73342858Y-88347342D02*
X73742858Y-87147342D01*
X75000001Y-87261628D02*
X75057144Y-87204485D01*
X75057144Y-87204485D02*
X75171430Y-87147342D01*
X75171430Y-87147342D02*
X75457144Y-87147342D01*
X75457144Y-87147342D02*
X75571430Y-87204485D01*
X75571430Y-87204485D02*
X75628572Y-87261628D01*
X75628572Y-87261628D02*
X75685715Y-87375914D01*
X75685715Y-87375914D02*
X75685715Y-87490200D01*
X75685715Y-87490200D02*
X75628572Y-87661628D01*
X75628572Y-87661628D02*
X74942858Y-88347342D01*
X74942858Y-88347342D02*
X75685715Y-88347342D01*
X76142858Y-88004485D02*
X76714287Y-88004485D01*
X76028572Y-88347342D02*
X76428572Y-87147342D01*
X76428572Y-87147342D02*
X76828572Y-88347342D01*
X81799999Y-78547342D02*
X82028571Y-78547342D01*
X82028571Y-78547342D02*
X82142856Y-78604485D01*
X82142856Y-78604485D02*
X82257142Y-78718771D01*
X82257142Y-78718771D02*
X82314285Y-78947342D01*
X82314285Y-78947342D02*
X82314285Y-79347342D01*
X82314285Y-79347342D02*
X82257142Y-79575914D01*
X82257142Y-79575914D02*
X82142856Y-79690200D01*
X82142856Y-79690200D02*
X82028571Y-79747342D01*
X82028571Y-79747342D02*
X81799999Y-79747342D01*
X81799999Y-79747342D02*
X81685714Y-79690200D01*
X81685714Y-79690200D02*
X81571428Y-79575914D01*
X81571428Y-79575914D02*
X81514285Y-79347342D01*
X81514285Y-79347342D02*
X81514285Y-78947342D01*
X81514285Y-78947342D02*
X81571428Y-78718771D01*
X81571428Y-78718771D02*
X81685714Y-78604485D01*
X81685714Y-78604485D02*
X81799999Y-78547342D01*
X82828571Y-78547342D02*
X82828571Y-79518771D01*
X82828571Y-79518771D02*
X82885714Y-79633057D01*
X82885714Y-79633057D02*
X82942857Y-79690200D01*
X82942857Y-79690200D02*
X83057142Y-79747342D01*
X83057142Y-79747342D02*
X83285714Y-79747342D01*
X83285714Y-79747342D02*
X83399999Y-79690200D01*
X83399999Y-79690200D02*
X83457142Y-79633057D01*
X83457142Y-79633057D02*
X83514285Y-79518771D01*
X83514285Y-79518771D02*
X83514285Y-78547342D01*
X83914285Y-78547342D02*
X84600000Y-78547342D01*
X84257142Y-79747342D02*
X84257142Y-78547342D01*
X95357142Y-54433057D02*
X95299999Y-54490200D01*
X95299999Y-54490200D02*
X95128571Y-54547342D01*
X95128571Y-54547342D02*
X95014285Y-54547342D01*
X95014285Y-54547342D02*
X94842856Y-54490200D01*
X94842856Y-54490200D02*
X94728571Y-54375914D01*
X94728571Y-54375914D02*
X94671428Y-54261628D01*
X94671428Y-54261628D02*
X94614285Y-54033057D01*
X94614285Y-54033057D02*
X94614285Y-53861628D01*
X94614285Y-53861628D02*
X94671428Y-53633057D01*
X94671428Y-53633057D02*
X94728571Y-53518771D01*
X94728571Y-53518771D02*
X94842856Y-53404485D01*
X94842856Y-53404485D02*
X95014285Y-53347342D01*
X95014285Y-53347342D02*
X95128571Y-53347342D01*
X95128571Y-53347342D02*
X95299999Y-53404485D01*
X95299999Y-53404485D02*
X95357142Y-53461628D01*
X95871428Y-53918771D02*
X96271428Y-53918771D01*
X96442856Y-54547342D02*
X95871428Y-54547342D01*
X95871428Y-54547342D02*
X95871428Y-53347342D01*
X95871428Y-53347342D02*
X96442856Y-53347342D01*
X97528570Y-54547342D02*
X96957142Y-54547342D01*
X96957142Y-54547342D02*
X96957142Y-53347342D01*
X98499999Y-54547342D02*
X97928571Y-54547342D01*
X97928571Y-54547342D02*
X97928571Y-53347342D01*
%TO.C,Q7*%
D11*
X91240000Y-76440000D02*
X92760000Y-76440000D01*
X91240000Y-76490000D02*
X91240000Y-76440000D01*
X91240000Y-78390000D02*
X91240000Y-77610000D01*
X91240000Y-79560000D02*
X91240000Y-79510000D01*
X92760000Y-76440000D02*
X92760000Y-77440000D01*
X92760000Y-78560000D02*
X92760000Y-79560000D01*
X92760000Y-79560000D02*
X91240000Y-79560000D01*
X90700000Y-77620000D02*
X90940000Y-77950000D01*
X90460000Y-77950000D01*
X90700000Y-77620000D01*
G36*
X90940000Y-77950000D02*
G01*
X90460000Y-77950000D01*
X90700000Y-77620000D01*
X90940000Y-77950000D01*
G37*
%TO.C,TP6*%
X37700000Y-76500000D02*
G75*
G02*
X36300000Y-76500000I-700000J0D01*
G01*
X36300000Y-76500000D02*
G75*
G02*
X37700000Y-76500000I700000J0D01*
G01*
%TO.C,TP9*%
X67700000Y-74500000D02*
G75*
G02*
X66300000Y-74500000I-700000J0D01*
G01*
X66300000Y-74500000D02*
G75*
G02*
X67700000Y-74500000I700000J0D01*
G01*
%TO.C,TP5*%
X92700000Y-49000000D02*
G75*
G02*
X91300000Y-49000000I-700000J0D01*
G01*
X91300000Y-49000000D02*
G75*
G02*
X92700000Y-49000000I700000J0D01*
G01*
%TO.C,TP3*%
X51700000Y-67000000D02*
G75*
G02*
X50300000Y-67000000I-700000J0D01*
G01*
X50300000Y-67000000D02*
G75*
G02*
X51700000Y-67000000I700000J0D01*
G01*
%TO.C,D2*%
X66515000Y-83265000D02*
X66515000Y-84735000D01*
X66515000Y-84735000D02*
X68800000Y-84735000D01*
X68800000Y-83265000D02*
X66515000Y-83265000D01*
%TO.C,R15*%
X95762742Y-70477500D02*
X96237258Y-70477500D01*
X95762742Y-71522500D02*
X96237258Y-71522500D01*
%TO.C,U4*%
X43551700Y-61940000D02*
X45071700Y-61940000D01*
X43551700Y-61990000D02*
X43551700Y-61940000D01*
X43551700Y-63890000D02*
X43551700Y-63110000D01*
X43551700Y-65060000D02*
X43551700Y-65010000D01*
X45071700Y-61940000D02*
X45071700Y-62940000D01*
X45071700Y-64060000D02*
X45071700Y-65060000D01*
X45071700Y-65060000D02*
X43551700Y-65060000D01*
X43011700Y-63120000D02*
X43251700Y-63450000D01*
X42771700Y-63450000D01*
X43011700Y-63120000D01*
G36*
X43251700Y-63450000D02*
G01*
X42771700Y-63450000D01*
X43011700Y-63120000D01*
X43251700Y-63450000D01*
G37*
%TO.C,C17*%
X79859420Y-52490000D02*
X80140580Y-52490000D01*
X79859420Y-53510000D02*
X80140580Y-53510000D01*
%TO.C,R8*%
X34762742Y-56477500D02*
X35237258Y-56477500D01*
X34762742Y-57522500D02*
X35237258Y-57522500D01*
%TO.C,J2*%
X78300000Y-82600000D02*
X78300000Y-80700000D01*
X78300000Y-86500000D02*
X78300000Y-84500000D01*
X87700000Y-80700000D02*
X78300000Y-80700000D01*
X87700000Y-82600000D02*
X87700000Y-80700000D01*
X87700000Y-86500000D02*
X87700000Y-84500000D01*
%TO.C,R17*%
X71262742Y-53817500D02*
X71737258Y-53817500D01*
X71262742Y-54862500D02*
X71737258Y-54862500D01*
%TO.C,C7*%
X77288748Y-69090000D02*
X78711252Y-69090000D01*
X77288748Y-70910000D02*
X78711252Y-70910000D01*
%TO.C,C12*%
X60590000Y-58711252D02*
X60590000Y-57288748D01*
X62410000Y-58711252D02*
X62410000Y-57288748D01*
%TO.C,Q8*%
X89740000Y-66440000D02*
X91260000Y-66440000D01*
X89740000Y-66490000D02*
X89740000Y-66440000D01*
X89740000Y-68390000D02*
X89740000Y-67610000D01*
X89740000Y-69560000D02*
X89740000Y-69510000D01*
X91260000Y-66440000D02*
X91260000Y-67440000D01*
X91260000Y-68560000D02*
X91260000Y-69560000D01*
X91260000Y-69560000D02*
X89740000Y-69560000D01*
X89200000Y-67620000D02*
X89440000Y-67950000D01*
X88960000Y-67950000D01*
X89200000Y-67620000D01*
G36*
X89440000Y-67950000D02*
G01*
X88960000Y-67950000D01*
X89200000Y-67620000D01*
X89440000Y-67950000D01*
G37*
%TO.C,U3*%
X36231700Y-62940000D02*
X40351700Y-62940000D01*
X36231700Y-63035000D02*
X36231700Y-62940000D01*
X36231700Y-68060000D02*
X36231700Y-67965000D01*
X40351700Y-62940000D02*
X40351700Y-63035000D01*
X40351700Y-67965000D02*
X40351700Y-68060000D01*
X40351700Y-68060000D02*
X36231700Y-68060000D01*
X35691700Y-63030000D02*
X35451700Y-62700000D01*
X35931700Y-62700000D01*
X35691700Y-63030000D01*
G36*
X35691700Y-63030000D02*
G01*
X35451700Y-62700000D01*
X35931700Y-62700000D01*
X35691700Y-63030000D01*
G37*
%TO.C,C9*%
X82128748Y-65265000D02*
X82651252Y-65265000D01*
X82128748Y-66735000D02*
X82651252Y-66735000D01*
%TO.C,C6*%
X53670000Y-62640580D02*
X53670000Y-62359420D01*
X54690000Y-62640580D02*
X54690000Y-62359420D01*
%TO.C,R10*%
X81932742Y-69477500D02*
X82407258Y-69477500D01*
X81932742Y-70522500D02*
X82407258Y-70522500D01*
%TO.C,U1*%
D12*
X55105000Y-63595000D02*
G75*
G02*
X54895000Y-63595000I-105000J0D01*
G01*
X54895000Y-63595000D02*
G75*
G02*
X55105000Y-63595000I105000J0D01*
G01*
%TO.C,C15*%
D11*
X91859420Y-70490000D02*
X92140580Y-70490000D01*
X91859420Y-71510000D02*
X92140580Y-71510000D01*
%TO.C,J1*%
X42300000Y-82600000D02*
X42300000Y-80700000D01*
X42300000Y-86500000D02*
X42300000Y-84500000D01*
X51700000Y-80700000D02*
X42300000Y-80700000D01*
X51700000Y-82600000D02*
X51700000Y-80700000D01*
X51700000Y-86500000D02*
X51700000Y-84500000D01*
%TO.C,Q2*%
X38240000Y-55440000D02*
X39760000Y-55440000D01*
X38240000Y-55490000D02*
X38240000Y-55440000D01*
X38240000Y-57390000D02*
X38240000Y-56610000D01*
X38240000Y-58560000D02*
X38240000Y-58510000D01*
X39760000Y-55440000D02*
X39760000Y-56440000D01*
X39760000Y-57560000D02*
X39760000Y-58560000D01*
X39760000Y-58560000D02*
X38240000Y-58560000D01*
X37700000Y-56620000D02*
X37940000Y-56950000D01*
X37460000Y-56950000D01*
X37700000Y-56620000D01*
G36*
X37940000Y-56950000D02*
G01*
X37460000Y-56950000D01*
X37700000Y-56620000D01*
X37940000Y-56950000D01*
G37*
%TO.C,TP1*%
X41200000Y-74000000D02*
G75*
G02*
X39800000Y-74000000I-700000J0D01*
G01*
X39800000Y-74000000D02*
G75*
G02*
X41200000Y-74000000I700000J0D01*
G01*
%TO.C,C3*%
X46859420Y-59990000D02*
X47140580Y-59990000D01*
X46859420Y-61010000D02*
X47140580Y-61010000D01*
%TO.C,C13*%
X65090000Y-58711252D02*
X65090000Y-57288748D01*
X66910000Y-58711252D02*
X66910000Y-57288748D01*
%TO.C,C4*%
X38703748Y-69590000D02*
X40126252Y-69590000D01*
X38703748Y-71410000D02*
X40126252Y-71410000D01*
%TO.C,D4*%
X73515000Y-83265000D02*
X73515000Y-84735000D01*
X73515000Y-84735000D02*
X75800000Y-84735000D01*
X75800000Y-83265000D02*
X73515000Y-83265000D01*
%TO.C,D1*%
X63015000Y-83265000D02*
X63015000Y-84735000D01*
X63015000Y-84735000D02*
X65300000Y-84735000D01*
X65300000Y-83265000D02*
X63015000Y-83265000D01*
%TO.C,R6*%
X42762742Y-59977500D02*
X43237258Y-59977500D01*
X42762742Y-61022500D02*
X43237258Y-61022500D01*
%TO.C,R3*%
X43347742Y-69977500D02*
X43822258Y-69977500D01*
X43347742Y-71022500D02*
X43822258Y-71022500D01*
%TO.C,C2*%
X47971120Y-62990000D02*
X48252280Y-62990000D01*
X47971120Y-64010000D02*
X48252280Y-64010000D01*
%TO.C,R16*%
X70262742Y-59457500D02*
X70737258Y-59457500D01*
X70262742Y-60502500D02*
X70737258Y-60502500D01*
%TO.C,TP10*%
X82700000Y-63500000D02*
G75*
G02*
X81300000Y-63500000I-700000J0D01*
G01*
X81300000Y-63500000D02*
G75*
G02*
X82700000Y-63500000I700000J0D01*
G01*
%TO.C,C14*%
X63359420Y-76490000D02*
X63640580Y-76490000D01*
X63359420Y-77510000D02*
X63640580Y-77510000D01*
%TO.C,Q6*%
X69740000Y-55600000D02*
X71260000Y-55600000D01*
X69740000Y-55650000D02*
X69740000Y-55600000D01*
X69740000Y-57550000D02*
X69740000Y-56770000D01*
X69740000Y-58720000D02*
X69740000Y-58670000D01*
X71260000Y-55600000D02*
X71260000Y-56600000D01*
X71260000Y-57720000D02*
X71260000Y-58720000D01*
X71260000Y-58720000D02*
X69740000Y-58720000D01*
X69200000Y-56780000D02*
X69440000Y-57110000D01*
X68960000Y-57110000D01*
X69200000Y-56780000D01*
G36*
X69440000Y-57110000D02*
G01*
X68960000Y-57110000D01*
X69200000Y-56780000D01*
X69440000Y-57110000D01*
G37*
%TO.C,R5*%
X38762742Y-59977500D02*
X39237258Y-59977500D01*
X38762742Y-61022500D02*
X39237258Y-61022500D01*
%TO.C,R14*%
X95762742Y-73977500D02*
X96237258Y-73977500D01*
X95762742Y-75022500D02*
X96237258Y-75022500D01*
%TO.C,Q1*%
X49740000Y-68940000D02*
X51260000Y-68940000D01*
X49740000Y-68990000D02*
X49740000Y-68940000D01*
X49740000Y-70890000D02*
X49740000Y-70110000D01*
X49740000Y-72060000D02*
X49740000Y-72010000D01*
X51260000Y-68940000D02*
X51260000Y-69940000D01*
X51260000Y-71060000D02*
X51260000Y-72060000D01*
X51260000Y-72060000D02*
X49740000Y-72060000D01*
X49200000Y-70120000D02*
X49440000Y-70450000D01*
X48960000Y-70450000D01*
X49200000Y-70120000D01*
G36*
X49440000Y-70450000D02*
G01*
X48960000Y-70450000D01*
X49200000Y-70120000D01*
X49440000Y-70450000D01*
G37*
%TO.C,D3*%
X70015000Y-83265000D02*
X70015000Y-84735000D01*
X70015000Y-84735000D02*
X72300000Y-84735000D01*
X72300000Y-83265000D02*
X70015000Y-83265000D01*
%TO.C,TP11*%
X96700000Y-81500000D02*
G75*
G02*
X95300000Y-81500000I-700000J0D01*
G01*
X95300000Y-81500000D02*
G75*
G02*
X96700000Y-81500000I700000J0D01*
G01*
%TO.C,R2*%
X53262742Y-75977500D02*
X53737258Y-75977500D01*
X53262742Y-77022500D02*
X53737258Y-77022500D01*
%TO.C,D5*%
X63015000Y-79765000D02*
X63015000Y-81235000D01*
X63015000Y-81235000D02*
X65300000Y-81235000D01*
X65300000Y-79765000D02*
X63015000Y-79765000D01*
%TO.C,R21*%
X87762742Y-74477500D02*
X88237258Y-74477500D01*
X87762742Y-75522500D02*
X88237258Y-75522500D01*
%TO.C,R13*%
X91762742Y-73977500D02*
X92237258Y-73977500D01*
X91762742Y-75022500D02*
X92237258Y-75022500D01*
%TO.C,TP4*%
X78700000Y-63500000D02*
G75*
G02*
X77300000Y-63500000I-700000J0D01*
G01*
X77300000Y-63500000D02*
G75*
G02*
X78700000Y-63500000I700000J0D01*
G01*
%TO.C,R11*%
X59762742Y-76477500D02*
X60237258Y-76477500D01*
X59762742Y-77522500D02*
X60237258Y-77522500D01*
%TO.C,Q3*%
D10*
X84875000Y-55375000D02*
X84875000Y-55550000D01*
X84875000Y-55375000D02*
X88125000Y-55375000D01*
X84875000Y-58450000D02*
X84875000Y-58625000D01*
X84875000Y-58625000D02*
X88125000Y-58625000D01*
X88125000Y-55375000D02*
X88125000Y-55550000D01*
X88125000Y-58450000D02*
X88125000Y-58625000D01*
D11*
X84400000Y-55550000D02*
X84160000Y-55220000D01*
X84640000Y-55220000D01*
X84400000Y-55550000D01*
G36*
X84400000Y-55550000D02*
G01*
X84160000Y-55220000D01*
X84640000Y-55220000D01*
X84400000Y-55550000D01*
G37*
%TO.C,TP8*%
X67700000Y-77500000D02*
G75*
G02*
X66300000Y-77500000I-700000J0D01*
G01*
X66300000Y-77500000D02*
G75*
G02*
X67700000Y-77500000I700000J0D01*
G01*
%TO.C,C8*%
X77288748Y-65090000D02*
X78711252Y-65090000D01*
X77288748Y-66910000D02*
X78711252Y-66910000D01*
%TO.C,R12*%
X85762742Y-65477500D02*
X86237258Y-65477500D01*
X85762742Y-66522500D02*
X86237258Y-66522500D01*
%TO.C,C10*%
X51590000Y-58711252D02*
X51590000Y-57288748D01*
X53410000Y-58711252D02*
X53410000Y-57288748D01*
%TO.C,Q5*%
D10*
X84875000Y-47375000D02*
X84875000Y-47550000D01*
X84875000Y-47375000D02*
X88125000Y-47375000D01*
X84875000Y-50450000D02*
X84875000Y-50625000D01*
X84875000Y-50625000D02*
X88125000Y-50625000D01*
X88125000Y-47375000D02*
X88125000Y-47550000D01*
X88125000Y-50450000D02*
X88125000Y-50625000D01*
D11*
X84400000Y-47550000D02*
X84160000Y-47220000D01*
X84640000Y-47220000D01*
X84400000Y-47550000D01*
G36*
X84400000Y-47550000D02*
G01*
X84160000Y-47220000D01*
X84640000Y-47220000D01*
X84400000Y-47550000D01*
G37*
%TO.C,C1*%
X44144420Y-66490000D02*
X44425580Y-66490000D01*
X44144420Y-67510000D02*
X44425580Y-67510000D01*
%TO.C,TP7*%
X49200000Y-58000000D02*
G75*
G02*
X47800000Y-58000000I-700000J0D01*
G01*
X47800000Y-58000000D02*
G75*
G02*
X49200000Y-58000000I700000J0D01*
G01*
%TO.C,Q4*%
D10*
X84875000Y-51375000D02*
X84875000Y-51550000D01*
X84875000Y-51375000D02*
X88125000Y-51375000D01*
X84875000Y-54450000D02*
X84875000Y-54625000D01*
X84875000Y-54625000D02*
X88125000Y-54625000D01*
X88125000Y-51375000D02*
X88125000Y-51550000D01*
X88125000Y-54450000D02*
X88125000Y-54625000D01*
D11*
X84400000Y-51550000D02*
X84160000Y-51220000D01*
X84640000Y-51220000D01*
X84400000Y-51550000D01*
G36*
X84400000Y-51550000D02*
G01*
X84160000Y-51220000D01*
X84640000Y-51220000D01*
X84400000Y-51550000D01*
G37*
%TO.C,R4*%
X47762742Y-66477500D02*
X48237258Y-66477500D01*
X47762742Y-67522500D02*
X48237258Y-67522500D01*
%TO.C,R7*%
X34762742Y-59977500D02*
X35237258Y-59977500D01*
X34762742Y-61022500D02*
X35237258Y-61022500D01*
%TO.C,R19*%
X79762742Y-48477500D02*
X80237258Y-48477500D01*
X79762742Y-49522500D02*
X80237258Y-49522500D01*
%TO.C,C16*%
X67359420Y-53830000D02*
X67640580Y-53830000D01*
X67359420Y-54850000D02*
X67640580Y-54850000D01*
%TO.C,R9*%
X42762742Y-56477500D02*
X43237258Y-56477500D01*
X42762742Y-57522500D02*
X43237258Y-57522500D01*
%TO.C,R18*%
X85762742Y-69477500D02*
X86237258Y-69477500D01*
X85762742Y-70522500D02*
X86237258Y-70522500D01*
%TO.C,R1*%
X40262742Y-75977500D02*
X40737258Y-75977500D01*
X40262742Y-77022500D02*
X40737258Y-77022500D01*
%TO.C,C5*%
X54765000Y-70551251D02*
X54765000Y-70028747D01*
X56235000Y-70551251D02*
X56235000Y-70028747D01*
%TO.C,C11*%
X56090000Y-58711252D02*
X56090000Y-57288748D01*
X57910000Y-58711252D02*
X57910000Y-57288748D01*
%TO.C,R20*%
X73762742Y-74477500D02*
X74237258Y-74477500D01*
X73762742Y-75522500D02*
X74237258Y-75522500D01*
%TO.C,J3*%
X90140000Y-58700000D02*
X90740000Y-59000000D01*
X90140000Y-59300000D02*
X90140000Y-58700000D01*
X90740000Y-59000000D02*
X90140000Y-59300000D01*
X90940000Y-56890000D02*
X92140000Y-56890000D01*
X90940000Y-63910000D02*
X90940000Y-56890000D01*
X92140000Y-55190000D02*
X97820000Y-55190000D01*
X92140000Y-56890000D02*
X92140000Y-55190000D01*
X97820000Y-55190000D02*
X97820000Y-56890000D01*
X97820000Y-56890000D02*
X99020000Y-56890000D01*
X99020000Y-56890000D02*
X99020000Y-63910000D01*
X99020000Y-63910000D02*
X90940000Y-63910000D01*
%TO.C,TP2*%
X37700000Y-74000000D02*
G75*
G02*
X36300000Y-74000000I-700000J0D01*
G01*
X36300000Y-74000000D02*
G75*
G02*
X37700000Y-74000000I700000J0D01*
G01*
%TO.C,U2*%
X79090000Y-55440000D02*
X80910000Y-55440000D01*
X79090000Y-55490000D02*
X79090000Y-55440000D01*
X79090000Y-58560000D02*
X79090000Y-58510000D01*
X80910000Y-55440000D02*
X80910000Y-55490000D01*
X80910000Y-58510000D02*
X80910000Y-58560000D01*
X80910000Y-58560000D02*
X79090000Y-58560000D01*
X78550000Y-55490000D02*
X78310000Y-55160000D01*
X78790000Y-55160000D01*
X78550000Y-55490000D01*
G36*
X78550000Y-55490000D02*
G01*
X78310000Y-55160000D01*
X78790000Y-55160000D01*
X78550000Y-55490000D01*
G37*
%TD*%
%LPC*%
D13*
%TO.C,Q7*%
X91062500Y-77050000D03*
X91062500Y-78950000D03*
X92937500Y-78000000D03*
%TD*%
D14*
%TO.C,TP6*%
X37000000Y-76500000D03*
%TD*%
%TO.C,TP9*%
X67000000Y-74500000D03*
%TD*%
%TO.C,TP5*%
X92000000Y-49000000D03*
%TD*%
%TO.C,TP3*%
X51000000Y-67000000D03*
%TD*%
D15*
%TO.C,D2*%
X67212500Y-84000000D03*
X68787500Y-84000000D03*
%TD*%
D16*
%TO.C,R15*%
X95175000Y-71000000D03*
X96825000Y-71000000D03*
%TD*%
D17*
%TO.C,D6*%
X46650000Y-70500000D03*
X47350000Y-70500000D03*
%TD*%
D13*
%TO.C,U4*%
X43374200Y-62550000D03*
X43374200Y-64450000D03*
X45249200Y-63500000D03*
%TD*%
D18*
%TO.C,C17*%
X79225000Y-53000000D03*
X80775000Y-53000000D03*
%TD*%
D16*
%TO.C,R8*%
X34175000Y-57000000D03*
X35825000Y-57000000D03*
%TD*%
D19*
%TO.C,J2*%
X85890000Y-87200000D03*
X80110000Y-87200000D03*
D20*
X86250000Y-88645000D03*
X85450000Y-88645000D03*
D21*
X84250000Y-88645000D03*
X83250000Y-88645000D03*
X82750000Y-88645000D03*
X81750000Y-88645000D03*
D20*
X80550000Y-88645000D03*
X79750000Y-88645000D03*
X79750000Y-88645000D03*
X80550000Y-88645000D03*
D21*
X81250000Y-88645000D03*
X82250000Y-88645000D03*
X83750000Y-88645000D03*
X84750000Y-88645000D03*
D20*
X85450000Y-88645000D03*
X86250000Y-88645000D03*
D22*
X87320000Y-87730000D03*
D23*
X87320000Y-83550000D03*
D22*
X78680000Y-87730000D03*
D23*
X78680000Y-83550000D03*
%TD*%
D16*
%TO.C,R17*%
X70675000Y-54340000D03*
X72325000Y-54340000D03*
%TD*%
D24*
%TO.C,C7*%
X76525000Y-70000000D03*
X79475000Y-70000000D03*
%TD*%
D25*
%TO.C,C12*%
X61500000Y-59475000D03*
X61500000Y-56525000D03*
%TD*%
D13*
%TO.C,Q8*%
X89562500Y-67050000D03*
X89562500Y-68950000D03*
X91437500Y-68000000D03*
%TD*%
D26*
%TO.C,U3*%
X35816700Y-63595000D03*
X35816700Y-64865000D03*
X35816700Y-66135000D03*
X35816700Y-67405000D03*
X40766700Y-67405000D03*
X40766700Y-66135000D03*
X40766700Y-64865000D03*
X40766700Y-63595000D03*
%TD*%
D27*
%TO.C,C9*%
X81440000Y-66000000D03*
X83340000Y-66000000D03*
%TD*%
D28*
%TO.C,C6*%
X54180000Y-63275000D03*
X54180000Y-61725000D03*
%TD*%
D16*
%TO.C,R10*%
X81345000Y-70000000D03*
X82995000Y-70000000D03*
%TD*%
D29*
%TO.C,U1*%
X56525000Y-63595000D03*
X56525000Y-64865000D03*
X56525000Y-66135000D03*
X56525000Y-67405000D03*
X61475000Y-67405000D03*
X61475000Y-66135000D03*
X61475000Y-64865000D03*
X61475000Y-63595000D03*
D30*
X59000000Y-65500000D03*
%TD*%
D18*
%TO.C,C15*%
X91225000Y-71000000D03*
X92775000Y-71000000D03*
%TD*%
D19*
%TO.C,J1*%
X49890000Y-87200000D03*
X44110000Y-87200000D03*
D20*
X50250000Y-88645000D03*
X49450000Y-88645000D03*
D21*
X48250000Y-88645000D03*
X47250000Y-88645000D03*
X46750000Y-88645000D03*
X45750000Y-88645000D03*
D20*
X44550000Y-88645000D03*
X43750000Y-88645000D03*
X43750000Y-88645000D03*
X44550000Y-88645000D03*
D21*
X45250000Y-88645000D03*
X46250000Y-88645000D03*
X47750000Y-88645000D03*
X48750000Y-88645000D03*
D20*
X49450000Y-88645000D03*
X50250000Y-88645000D03*
D22*
X51320000Y-87730000D03*
D23*
X51320000Y-83550000D03*
D22*
X42680000Y-87730000D03*
D23*
X42680000Y-83550000D03*
%TD*%
D13*
%TO.C,Q2*%
X38062500Y-56050000D03*
X38062500Y-57950000D03*
X39937500Y-57000000D03*
%TD*%
D14*
%TO.C,TP1*%
X40500000Y-74000000D03*
%TD*%
D18*
%TO.C,C3*%
X46225000Y-60500000D03*
X47775000Y-60500000D03*
%TD*%
D25*
%TO.C,C13*%
X66000000Y-59475000D03*
X66000000Y-56525000D03*
%TD*%
D24*
%TO.C,C4*%
X37940000Y-70500000D03*
X40890000Y-70500000D03*
%TD*%
D15*
%TO.C,D4*%
X74212500Y-84000000D03*
X75787500Y-84000000D03*
%TD*%
%TO.C,D1*%
X63712500Y-84000000D03*
X65287500Y-84000000D03*
%TD*%
D16*
%TO.C,R6*%
X42175000Y-60500000D03*
X43825000Y-60500000D03*
%TD*%
%TO.C,R3*%
X42760000Y-70500000D03*
X44410000Y-70500000D03*
%TD*%
D31*
%TO.C,SW1*%
X55000000Y-82125000D03*
X55000000Y-85875000D03*
X61000000Y-82125000D03*
X61000000Y-85875000D03*
%TD*%
D18*
%TO.C,C2*%
X47336700Y-63500000D03*
X48886700Y-63500000D03*
%TD*%
D16*
%TO.C,R16*%
X69675000Y-59980000D03*
X71325000Y-59980000D03*
%TD*%
D32*
%TO.C,H4*%
X96500000Y-48500000D03*
%TD*%
D17*
%TO.C,D8*%
X53150000Y-79000000D03*
X53850000Y-79000000D03*
%TD*%
D14*
%TO.C,TP10*%
X82000000Y-63500000D03*
%TD*%
D18*
%TO.C,C14*%
X62725000Y-77000000D03*
X64275000Y-77000000D03*
%TD*%
D13*
%TO.C,Q6*%
X69562500Y-56210000D03*
X69562500Y-58110000D03*
X71437500Y-57160000D03*
%TD*%
D16*
%TO.C,R5*%
X38175000Y-60500000D03*
X39825000Y-60500000D03*
%TD*%
%TO.C,R14*%
X95175000Y-74500000D03*
X96825000Y-74500000D03*
%TD*%
D32*
%TO.C,H3*%
X33500000Y-48500000D03*
%TD*%
%TO.C,H2*%
X96500000Y-86500000D03*
%TD*%
D13*
%TO.C,Q1*%
X49562500Y-69550000D03*
X49562500Y-71450000D03*
X51437500Y-70500000D03*
%TD*%
D15*
%TO.C,D3*%
X70712500Y-84000000D03*
X72287500Y-84000000D03*
%TD*%
D14*
%TO.C,TP11*%
X96000000Y-81500000D03*
%TD*%
D16*
%TO.C,R2*%
X52675000Y-76500000D03*
X54325000Y-76500000D03*
%TD*%
D15*
%TO.C,D5*%
X63712500Y-80500000D03*
X65287500Y-80500000D03*
%TD*%
D17*
%TO.C,D9*%
X82650000Y-77500000D03*
X83350000Y-77500000D03*
%TD*%
D16*
%TO.C,R21*%
X87175000Y-75000000D03*
X88825000Y-75000000D03*
%TD*%
%TO.C,R13*%
X91175000Y-74500000D03*
X92825000Y-74500000D03*
%TD*%
D17*
%TO.C,D10*%
X73650000Y-77500000D03*
X74350000Y-77500000D03*
%TD*%
%TO.C,D11*%
X87650000Y-77500000D03*
X88350000Y-77500000D03*
%TD*%
D14*
%TO.C,TP4*%
X78000000Y-63500000D03*
%TD*%
D32*
%TO.C,H1*%
X33500000Y-86500000D03*
%TD*%
D16*
%TO.C,R11*%
X59175000Y-77000000D03*
X60825000Y-77000000D03*
%TD*%
D33*
%TO.C,Q3*%
X84350000Y-56025000D03*
X84350000Y-56675000D03*
X84350000Y-57325000D03*
X84350000Y-57975000D03*
X88650000Y-57975000D03*
X88650000Y-57325000D03*
X88650000Y-56675000D03*
X88650000Y-56025000D03*
%TD*%
D14*
%TO.C,TP8*%
X67000000Y-77500000D03*
%TD*%
D24*
%TO.C,C8*%
X76525000Y-66000000D03*
X79475000Y-66000000D03*
%TD*%
D16*
%TO.C,R12*%
X85175000Y-66000000D03*
X86825000Y-66000000D03*
%TD*%
D25*
%TO.C,C10*%
X52500000Y-59475000D03*
X52500000Y-56525000D03*
%TD*%
D33*
%TO.C,Q5*%
X84350000Y-48025000D03*
X84350000Y-48675000D03*
X84350000Y-49325000D03*
X84350000Y-49975000D03*
X88650000Y-49975000D03*
X88650000Y-49325000D03*
X88650000Y-48675000D03*
X88650000Y-48025000D03*
%TD*%
D18*
%TO.C,C1*%
X43510000Y-67000000D03*
X45060000Y-67000000D03*
%TD*%
D14*
%TO.C,TP7*%
X48500000Y-58000000D03*
%TD*%
D33*
%TO.C,Q4*%
X84350000Y-52025000D03*
X84350000Y-52675000D03*
X84350000Y-53325000D03*
X84350000Y-53975000D03*
X88650000Y-53975000D03*
X88650000Y-53325000D03*
X88650000Y-52675000D03*
X88650000Y-52025000D03*
%TD*%
D16*
%TO.C,R4*%
X47175000Y-67000000D03*
X48825000Y-67000000D03*
%TD*%
%TO.C,R7*%
X34175000Y-60500000D03*
X35825000Y-60500000D03*
%TD*%
%TO.C,R19*%
X79175000Y-49000000D03*
X80825000Y-49000000D03*
%TD*%
D18*
%TO.C,C16*%
X66725000Y-54340000D03*
X68275000Y-54340000D03*
%TD*%
D17*
%TO.C,D7*%
X40150000Y-79000000D03*
X40850000Y-79000000D03*
%TD*%
D16*
%TO.C,R9*%
X42175000Y-57000000D03*
X43825000Y-57000000D03*
%TD*%
%TO.C,R18*%
X85175000Y-70000000D03*
X86825000Y-70000000D03*
%TD*%
%TO.C,R1*%
X39675000Y-76500000D03*
X41325000Y-76500000D03*
%TD*%
D34*
%TO.C,C5*%
X55500000Y-71239999D03*
X55500000Y-69339999D03*
%TD*%
D25*
%TO.C,C11*%
X57000000Y-59475000D03*
X57000000Y-56525000D03*
%TD*%
D35*
%TO.C,L1*%
X71000000Y-62500000D03*
X71000000Y-68500000D03*
%TD*%
D16*
%TO.C,R20*%
X73175000Y-75000000D03*
X74825000Y-75000000D03*
%TD*%
D36*
%TO.C,J3*%
X93000000Y-59000000D03*
D37*
X96960000Y-59000000D03*
%TD*%
D14*
%TO.C,TP2*%
X37000000Y-74000000D03*
%TD*%
D38*
%TO.C,U2*%
X78862500Y-56050000D03*
X78862500Y-57000000D03*
X78862500Y-57950000D03*
X81137500Y-57950000D03*
X81137500Y-57000000D03*
X81137500Y-56050000D03*
%TD*%
%LPD*%
M02*
