%TF.GenerationSoftware,KiCad,Pcbnew,10.0.5-10.0.5~ubuntu24.04.1*%
%TF.CreationDate,2026-09-03T10:29:23-06:00*%
%TF.ProjectId,liion_power_bank,6c69696f-6e5f-4706-9f77-65725f62616e,rev?*%
%TF.SameCoordinates,Original*%
%TF.FileFunction,Soldermask,Top*%
%TF.FilePolarity,Negative*%
%FSLAX46Y46*%
G04 Gerber Fmt 4.6, Leading zero omitted, Abs format (unit mm)*
G04 Created by KiCad (PCBNEW 10.0.5-10.0.5~ubuntu24.04.1) date 2026-09-03 10:29:23*
%MOMM*%
%LPD*%
G01*
G04 APERTURE LIST*
G04 Aperture macros list*
%AMRoundRect*
0 Rectangle with rounded corners*
0 $1 Rounding radius*
0 $2 $3 $4 $5 $6 $7 $8 $9 X,Y pos of 4 corners*
0 Add a 4 corners polygon primitive as box body*
4,1,4,$2,$3,$4,$5,$6,$7,$8,$9,$2,$3,0*
0 Add four circle primitives for the rounded corners*
1,1,$1+$1,$2,$3*
1,1,$1+$1,$4,$5*
1,1,$1+$1,$6,$7*
1,1,$1+$1,$8,$9*
0 Add four rect primitives between the rounded corners*
20,1,$1+$1,$2,$3,$4,$5,0*
20,1,$1+$1,$4,$5,$6,$7,0*
20,1,$1+$1,$6,$7,$8,$9,0*
20,1,$1+$1,$8,$9,$2,$3,0*%
G04 Aperture macros list end*
%ADD10RoundRect,0.150000X-0.587500X-0.150000X0.587500X-0.150000X0.587500X0.150000X-0.587500X0.150000X0*%
%ADD11C,1.000000*%
%ADD12RoundRect,0.218750X-0.218750X-0.256250X0.218750X-0.256250X0.218750X0.256250X-0.218750X0.256250X0*%
%ADD13RoundRect,0.200000X-0.200000X-0.275000X0.200000X-0.275000X0.200000X0.275000X-0.200000X0.275000X0*%
%ADD14R,0.300000X0.500000*%
%ADD15RoundRect,0.225000X-0.225000X-0.250000X0.225000X-0.250000X0.225000X0.250000X-0.225000X0.250000X0*%
%ADD16C,0.650000*%
%ADD17RoundRect,0.150000X0.150000X0.575000X-0.150000X0.575000X-0.150000X-0.575000X0.150000X-0.575000X0*%
%ADD18RoundRect,0.075000X0.075000X0.650000X-0.075000X0.650000X-0.075000X-0.650000X0.075000X-0.650000X0*%
%ADD19O,1.000000X2.100000*%
%ADD20O,1.000000X1.600000*%
%ADD21RoundRect,0.250000X-0.325000X-0.650000X0.325000X-0.650000X0.325000X0.650000X-0.325000X0.650000X0*%
%ADD22RoundRect,0.250000X0.650000X-0.325000X0.650000X0.325000X-0.650000X0.325000X-0.650000X-0.325000X0*%
%ADD23RoundRect,0.150000X-0.825000X-0.150000X0.825000X-0.150000X0.825000X0.150000X-0.825000X0.150000X0*%
%ADD24RoundRect,0.250000X-0.250000X-0.475000X0.250000X-0.475000X0.250000X0.475000X-0.250000X0.475000X0*%
%ADD25RoundRect,0.225000X0.250000X-0.225000X0.250000X0.225000X-0.250000X0.225000X-0.250000X-0.225000X0*%
%ADD26R,1.950000X0.600000*%
%ADD27R,2.090000X2.090000*%
%ADD28R,1.000000X0.750000*%
%ADD29C,3.200000*%
%ADD30R,1.100000X0.400000*%
%ADD31RoundRect,0.250000X0.475000X-0.250000X0.475000X0.250000X-0.475000X0.250000X-0.475000X-0.250000X0*%
%ADD32R,7.500000X2.200000*%
%ADD33RoundRect,0.250001X-1.099999X-1.099999X1.099999X-1.099999X1.099999X1.099999X-1.099999X1.099999X0*%
%ADD34C,2.700000*%
%ADD35RoundRect,0.150000X-0.512500X-0.150000X0.512500X-0.150000X0.512500X0.150000X-0.512500X0.150000X0*%
G04 APERTURE END LIST*
D10*
%TO.C,Q7*%
X91062500Y-77050000D03*
X91062500Y-78950000D03*
X92937500Y-78000000D03*
%TD*%
D11*
%TO.C,TP6*%
X37000000Y-76500000D03*
%TD*%
%TO.C,TP9*%
X67000000Y-74500000D03*
%TD*%
%TO.C,TP5*%
X92000000Y-49000000D03*
%TD*%
%TO.C,TP3*%
X51000000Y-67000000D03*
%TD*%
D12*
%TO.C,D2*%
X67212500Y-84000000D03*
X68787500Y-84000000D03*
%TD*%
D13*
%TO.C,R15*%
X95175000Y-71000000D03*
X96825000Y-71000000D03*
%TD*%
D14*
%TO.C,D6*%
X46650000Y-70500000D03*
X47350000Y-70500000D03*
%TD*%
D10*
%TO.C,U4*%
X43374200Y-62550000D03*
X43374200Y-64450000D03*
X45249200Y-63500000D03*
%TD*%
D15*
%TO.C,C17*%
X79225000Y-53000000D03*
X80775000Y-53000000D03*
%TD*%
D13*
%TO.C,R8*%
X34175000Y-57000000D03*
X35825000Y-57000000D03*
%TD*%
D16*
%TO.C,J2*%
X85890000Y-87200000D03*
X80110000Y-87200000D03*
D17*
X86250000Y-88645000D03*
X85450000Y-88645000D03*
D18*
X84250000Y-88645000D03*
X83250000Y-88645000D03*
X82750000Y-88645000D03*
X81750000Y-88645000D03*
D17*
X80550000Y-88645000D03*
X79750000Y-88645000D03*
X79750000Y-88645000D03*
X80550000Y-88645000D03*
D18*
X81250000Y-88645000D03*
X82250000Y-88645000D03*
X83750000Y-88645000D03*
X84750000Y-88645000D03*
D17*
X85450000Y-88645000D03*
X86250000Y-88645000D03*
D19*
X87320000Y-87730000D03*
D20*
X87320000Y-83550000D03*
D19*
X78680000Y-87730000D03*
D20*
X78680000Y-83550000D03*
%TD*%
D13*
%TO.C,R17*%
X70675000Y-54340000D03*
X72325000Y-54340000D03*
%TD*%
D21*
%TO.C,C7*%
X76525000Y-70000000D03*
X79475000Y-70000000D03*
%TD*%
D22*
%TO.C,C12*%
X61500000Y-59475000D03*
X61500000Y-56525000D03*
%TD*%
D10*
%TO.C,Q8*%
X89562500Y-67050000D03*
X89562500Y-68950000D03*
X91437500Y-68000000D03*
%TD*%
D23*
%TO.C,U3*%
X35816700Y-63595000D03*
X35816700Y-64865000D03*
X35816700Y-66135000D03*
X35816700Y-67405000D03*
X40766700Y-67405000D03*
X40766700Y-66135000D03*
X40766700Y-64865000D03*
X40766700Y-63595000D03*
%TD*%
D24*
%TO.C,C9*%
X81440000Y-66000000D03*
X83340000Y-66000000D03*
%TD*%
D25*
%TO.C,C6*%
X54180000Y-63275000D03*
X54180000Y-61725000D03*
%TD*%
D13*
%TO.C,R10*%
X81345000Y-70000000D03*
X82995000Y-70000000D03*
%TD*%
D26*
%TO.C,U1*%
X56525000Y-63595000D03*
X56525000Y-64865000D03*
X56525000Y-66135000D03*
X56525000Y-67405000D03*
X61475000Y-67405000D03*
X61475000Y-66135000D03*
X61475000Y-64865000D03*
X61475000Y-63595000D03*
D27*
X59000000Y-65500000D03*
%TD*%
D15*
%TO.C,C15*%
X91225000Y-71000000D03*
X92775000Y-71000000D03*
%TD*%
D16*
%TO.C,J1*%
X49890000Y-87200000D03*
X44110000Y-87200000D03*
D17*
X50250000Y-88645000D03*
X49450000Y-88645000D03*
D18*
X48250000Y-88645000D03*
X47250000Y-88645000D03*
X46750000Y-88645000D03*
X45750000Y-88645000D03*
D17*
X44550000Y-88645000D03*
X43750000Y-88645000D03*
X43750000Y-88645000D03*
X44550000Y-88645000D03*
D18*
X45250000Y-88645000D03*
X46250000Y-88645000D03*
X47750000Y-88645000D03*
X48750000Y-88645000D03*
D17*
X49450000Y-88645000D03*
X50250000Y-88645000D03*
D19*
X51320000Y-87730000D03*
D20*
X51320000Y-83550000D03*
D19*
X42680000Y-87730000D03*
D20*
X42680000Y-83550000D03*
%TD*%
D10*
%TO.C,Q2*%
X38062500Y-56050000D03*
X38062500Y-57950000D03*
X39937500Y-57000000D03*
%TD*%
D11*
%TO.C,TP1*%
X40500000Y-74000000D03*
%TD*%
D15*
%TO.C,C3*%
X46225000Y-60500000D03*
X47775000Y-60500000D03*
%TD*%
D22*
%TO.C,C13*%
X66000000Y-59475000D03*
X66000000Y-56525000D03*
%TD*%
D21*
%TO.C,C4*%
X37940000Y-70500000D03*
X40890000Y-70500000D03*
%TD*%
D12*
%TO.C,D4*%
X74212500Y-84000000D03*
X75787500Y-84000000D03*
%TD*%
%TO.C,D1*%
X63712500Y-84000000D03*
X65287500Y-84000000D03*
%TD*%
D13*
%TO.C,R6*%
X42175000Y-60500000D03*
X43825000Y-60500000D03*
%TD*%
%TO.C,R3*%
X42760000Y-70500000D03*
X44410000Y-70500000D03*
%TD*%
D28*
%TO.C,SW1*%
X55000000Y-82125000D03*
X55000000Y-85875000D03*
X61000000Y-82125000D03*
X61000000Y-85875000D03*
%TD*%
D15*
%TO.C,C2*%
X47336700Y-63500000D03*
X48886700Y-63500000D03*
%TD*%
D13*
%TO.C,R16*%
X69675000Y-59980000D03*
X71325000Y-59980000D03*
%TD*%
D29*
%TO.C,H4*%
X96500000Y-48500000D03*
%TD*%
D14*
%TO.C,D8*%
X53150000Y-79000000D03*
X53850000Y-79000000D03*
%TD*%
D11*
%TO.C,TP10*%
X82000000Y-63500000D03*
%TD*%
D15*
%TO.C,C14*%
X62725000Y-77000000D03*
X64275000Y-77000000D03*
%TD*%
D10*
%TO.C,Q6*%
X69562500Y-56210000D03*
X69562500Y-58110000D03*
X71437500Y-57160000D03*
%TD*%
D13*
%TO.C,R5*%
X38175000Y-60500000D03*
X39825000Y-60500000D03*
%TD*%
%TO.C,R14*%
X95175000Y-74500000D03*
X96825000Y-74500000D03*
%TD*%
D29*
%TO.C,H3*%
X33500000Y-48500000D03*
%TD*%
%TO.C,H2*%
X96500000Y-86500000D03*
%TD*%
D10*
%TO.C,Q1*%
X49562500Y-69550000D03*
X49562500Y-71450000D03*
X51437500Y-70500000D03*
%TD*%
D12*
%TO.C,D3*%
X70712500Y-84000000D03*
X72287500Y-84000000D03*
%TD*%
D11*
%TO.C,TP11*%
X96000000Y-81500000D03*
%TD*%
D13*
%TO.C,R2*%
X52675000Y-76500000D03*
X54325000Y-76500000D03*
%TD*%
D12*
%TO.C,D5*%
X63712500Y-80500000D03*
X65287500Y-80500000D03*
%TD*%
D14*
%TO.C,D9*%
X82650000Y-77500000D03*
X83350000Y-77500000D03*
%TD*%
D13*
%TO.C,R21*%
X87175000Y-75000000D03*
X88825000Y-75000000D03*
%TD*%
%TO.C,R13*%
X91175000Y-74500000D03*
X92825000Y-74500000D03*
%TD*%
D14*
%TO.C,D10*%
X73650000Y-77500000D03*
X74350000Y-77500000D03*
%TD*%
%TO.C,D11*%
X87650000Y-77500000D03*
X88350000Y-77500000D03*
%TD*%
D11*
%TO.C,TP4*%
X78000000Y-63500000D03*
%TD*%
D29*
%TO.C,H1*%
X33500000Y-86500000D03*
%TD*%
D13*
%TO.C,R11*%
X59175000Y-77000000D03*
X60825000Y-77000000D03*
%TD*%
D30*
%TO.C,Q3*%
X84350000Y-56025000D03*
X84350000Y-56675000D03*
X84350000Y-57325000D03*
X84350000Y-57975000D03*
X88650000Y-57975000D03*
X88650000Y-57325000D03*
X88650000Y-56675000D03*
X88650000Y-56025000D03*
%TD*%
D11*
%TO.C,TP8*%
X67000000Y-77500000D03*
%TD*%
D21*
%TO.C,C8*%
X76525000Y-66000000D03*
X79475000Y-66000000D03*
%TD*%
D13*
%TO.C,R12*%
X85175000Y-66000000D03*
X86825000Y-66000000D03*
%TD*%
D22*
%TO.C,C10*%
X52500000Y-59475000D03*
X52500000Y-56525000D03*
%TD*%
D30*
%TO.C,Q5*%
X84350000Y-48025000D03*
X84350000Y-48675000D03*
X84350000Y-49325000D03*
X84350000Y-49975000D03*
X88650000Y-49975000D03*
X88650000Y-49325000D03*
X88650000Y-48675000D03*
X88650000Y-48025000D03*
%TD*%
D15*
%TO.C,C1*%
X43510000Y-67000000D03*
X45060000Y-67000000D03*
%TD*%
D11*
%TO.C,TP7*%
X48500000Y-58000000D03*
%TD*%
D30*
%TO.C,Q4*%
X84350000Y-52025000D03*
X84350000Y-52675000D03*
X84350000Y-53325000D03*
X84350000Y-53975000D03*
X88650000Y-53975000D03*
X88650000Y-53325000D03*
X88650000Y-52675000D03*
X88650000Y-52025000D03*
%TD*%
D13*
%TO.C,R4*%
X47175000Y-67000000D03*
X48825000Y-67000000D03*
%TD*%
%TO.C,R7*%
X34175000Y-60500000D03*
X35825000Y-60500000D03*
%TD*%
%TO.C,R19*%
X79175000Y-49000000D03*
X80825000Y-49000000D03*
%TD*%
D15*
%TO.C,C16*%
X66725000Y-54340000D03*
X68275000Y-54340000D03*
%TD*%
D14*
%TO.C,D7*%
X40150000Y-79000000D03*
X40850000Y-79000000D03*
%TD*%
D13*
%TO.C,R9*%
X42175000Y-57000000D03*
X43825000Y-57000000D03*
%TD*%
%TO.C,R18*%
X85175000Y-70000000D03*
X86825000Y-70000000D03*
%TD*%
%TO.C,R1*%
X39675000Y-76500000D03*
X41325000Y-76500000D03*
%TD*%
D31*
%TO.C,C5*%
X55500000Y-71239999D03*
X55500000Y-69339999D03*
%TD*%
D22*
%TO.C,C11*%
X57000000Y-59475000D03*
X57000000Y-56525000D03*
%TD*%
D32*
%TO.C,L1*%
X71000000Y-62500000D03*
X71000000Y-68500000D03*
%TD*%
D13*
%TO.C,R20*%
X73175000Y-75000000D03*
X74825000Y-75000000D03*
%TD*%
D33*
%TO.C,J3*%
X93000000Y-59000000D03*
D34*
X96960000Y-59000000D03*
%TD*%
D11*
%TO.C,TP2*%
X37000000Y-74000000D03*
%TD*%
D35*
%TO.C,U2*%
X78862500Y-56050000D03*
X78862500Y-57000000D03*
X78862500Y-57950000D03*
X81137500Y-57950000D03*
X81137500Y-57000000D03*
X81137500Y-56050000D03*
%TD*%
M02*
