%TF.GenerationSoftware,KiCad,Pcbnew,10.0.5-10.0.5~ubuntu24.04.1*%
%TF.CreationDate,2026-09-03T02:54:39-06:00*%
%TF.ProjectId,liion_power_bank,6c69696f-6e5f-4706-9f77-65725f62616e,rev?*%
%TF.SameCoordinates,Original*%
%TF.FileFunction,Copper,L1,Top*%
%TF.FilePolarity,Positive*%
%FSLAX46Y46*%
G04 Gerber Fmt 4.6, Leading zero omitted, Abs format (unit mm)*
G04 Created by KiCad (PCBNEW 10.0.5-10.0.5~ubuntu24.04.1) date 2026-09-03 02:54:39*
%MOMM*%
%LPD*%
G01*
G04 APERTURE LIST*
G04 Aperture macros list*
%AMRoundRect*
0 Rectangle with rounded corners*
0 $1 Rounding radius*
0 $2 $3 $4 $5 $6 $7 $8 $9 X,Y pos of 4 corners*
0 Add a 4 corners polygon primitive as box body*
4,1,4,$2,$3,$4,$5,$6,$7,$8,$9,$2,$3,0*
0 Add four circle primitives for the rounded corners*
1,1,$1+$1,$2,$3*
1,1,$1+$1,$4,$5*
1,1,$1+$1,$6,$7*
1,1,$1+$1,$8,$9*
0 Add four rect primitives between the rounded corners*
20,1,$1+$1,$2,$3,$4,$5,0*
20,1,$1+$1,$4,$5,$6,$7,0*
20,1,$1+$1,$6,$7,$8,$9,0*
20,1,$1+$1,$8,$9,$2,$3,0*%
G04 Aperture macros list end*
%TA.AperFunction,SMDPad,CuDef*%
%ADD10RoundRect,0.150000X-0.587500X-0.150000X0.587500X-0.150000X0.587500X0.150000X-0.587500X0.150000X0*%
%TD*%
%TA.AperFunction,SMDPad,CuDef*%
%ADD11C,1.000000*%
%TD*%
%TA.AperFunction,SMDPad,CuDef*%
%ADD12RoundRect,0.218750X-0.218750X-0.256250X0.218750X-0.256250X0.218750X0.256250X-0.218750X0.256250X0*%
%TD*%
%TA.AperFunction,SMDPad,CuDef*%
%ADD13RoundRect,0.200000X-0.200000X-0.275000X0.200000X-0.275000X0.200000X0.275000X-0.200000X0.275000X0*%
%TD*%
%TA.AperFunction,SMDPad,CuDef*%
%ADD14R,0.300000X0.500000*%
%TD*%
%TA.AperFunction,SMDPad,CuDef*%
%ADD15RoundRect,0.225000X-0.225000X-0.250000X0.225000X-0.250000X0.225000X0.250000X-0.225000X0.250000X0*%
%TD*%
%TA.AperFunction,SMDPad,CuDef*%
%ADD16RoundRect,0.150000X0.150000X0.575000X-0.150000X0.575000X-0.150000X-0.575000X0.150000X-0.575000X0*%
%TD*%
%TA.AperFunction,SMDPad,CuDef*%
%ADD17RoundRect,0.075000X0.075000X0.650000X-0.075000X0.650000X-0.075000X-0.650000X0.075000X-0.650000X0*%
%TD*%
%TA.AperFunction,ComponentPad*%
%ADD18O,1.000000X2.100000*%
%TD*%
%TA.AperFunction,ComponentPad*%
%ADD19O,1.000000X1.600000*%
%TD*%
%TA.AperFunction,SMDPad,CuDef*%
%ADD20RoundRect,0.250000X-0.325000X-0.650000X0.325000X-0.650000X0.325000X0.650000X-0.325000X0.650000X0*%
%TD*%
%TA.AperFunction,SMDPad,CuDef*%
%ADD21RoundRect,0.250000X0.650000X-0.325000X0.650000X0.325000X-0.650000X0.325000X-0.650000X-0.325000X0*%
%TD*%
%TA.AperFunction,SMDPad,CuDef*%
%ADD22RoundRect,0.150000X-0.825000X-0.150000X0.825000X-0.150000X0.825000X0.150000X-0.825000X0.150000X0*%
%TD*%
%TA.AperFunction,SMDPad,CuDef*%
%ADD23RoundRect,0.250000X-0.250000X-0.475000X0.250000X-0.475000X0.250000X0.475000X-0.250000X0.475000X0*%
%TD*%
%TA.AperFunction,SMDPad,CuDef*%
%ADD24RoundRect,0.225000X0.250000X-0.225000X0.250000X0.225000X-0.250000X0.225000X-0.250000X-0.225000X0*%
%TD*%
%TA.AperFunction,SMDPad,CuDef*%
%ADD25R,1.950000X0.600000*%
%TD*%
%TA.AperFunction,HeatsinkPad*%
%ADD26R,2.090000X2.090000*%
%TD*%
%TA.AperFunction,SMDPad,CuDef*%
%ADD27R,1.000000X0.750000*%
%TD*%
%TA.AperFunction,SMDPad,CuDef*%
%ADD28R,1.100000X0.400000*%
%TD*%
%TA.AperFunction,SMDPad,CuDef*%
%ADD29RoundRect,0.250000X0.475000X-0.250000X0.475000X0.250000X-0.475000X0.250000X-0.475000X-0.250000X0*%
%TD*%
%TA.AperFunction,SMDPad,CuDef*%
%ADD30R,7.500000X2.200000*%
%TD*%
%TA.AperFunction,ComponentPad*%
%ADD31RoundRect,0.250001X-1.099999X-1.099999X1.099999X-1.099999X1.099999X1.099999X-1.099999X1.099999X0*%
%TD*%
%TA.AperFunction,ComponentPad*%
%ADD32C,2.700000*%
%TD*%
%TA.AperFunction,SMDPad,CuDef*%
%ADD33RoundRect,0.150000X-0.512500X-0.150000X0.512500X-0.150000X0.512500X0.150000X-0.512500X0.150000X0*%
%TD*%
%TA.AperFunction,ViaPad*%
%ADD34C,0.600000*%
%TD*%
%TA.AperFunction,ViaPad*%
%ADD35C,0.800000*%
%TD*%
%TA.AperFunction,Conductor*%
%ADD36C,0.250000*%
%TD*%
%TA.AperFunction,Conductor*%
%ADD37C,0.400000*%
%TD*%
%TA.AperFunction,Conductor*%
%ADD38C,0.800000*%
%TD*%
%TA.AperFunction,Conductor*%
%ADD39C,0.212200*%
%TD*%
%TA.AperFunction,Conductor*%
%ADD40C,1.600000*%
%TD*%
%TA.AperFunction,Conductor*%
%ADD41C,1.000000*%
%TD*%
%TA.AperFunction,Conductor*%
%ADD42C,1.500000*%
%TD*%
%TA.AperFunction,Conductor*%
%ADD43C,2.000000*%
%TD*%
%TA.AperFunction,Conductor*%
%ADD44C,0.150000*%
%TD*%
%TA.AperFunction,Conductor*%
%ADD45C,0.500000*%
%TD*%
G04 APERTURE END LIST*
D10*
%TO.P,Q7,1*%
%TO.N,SET*%
X91062500Y-77050000D03*
%TO.P,Q7,2*%
%TO.N,GND*%
X91062500Y-78950000D03*
%TO.P,Q7,3*%
%TO.N,OUT_G_D*%
X92937500Y-78000000D03*
%TD*%
D11*
%TO.P,TP6,1*%
%TO.N,GND*%
X37000000Y-76500000D03*
%TD*%
%TO.P,TP9,1*%
%TO.N,VOUT_SW*%
X67000000Y-74500000D03*
%TD*%
%TO.P,TP5,1*%
%TO.N,CELLN*%
X92000000Y-49000000D03*
%TD*%
%TO.P,TP3,1*%
%TO.N,VIN*%
X51000000Y-67000000D03*
%TD*%
D12*
%TO.P,D2,1*%
%TO.N,LED1*%
X67212500Y-84000000D03*
%TO.P,D2,2*%
%TO.N,LED3*%
X68787500Y-84000000D03*
%TD*%
D13*
%TO.P,R15,1*%
%TO.N,VOUT_SW*%
X95175000Y-71000000D03*
%TO.P,R15,2*%
%TO.N,SET*%
X96825000Y-71000000D03*
%TD*%
D14*
%TO.P,D6,1*%
%TO.N,GND*%
X46650000Y-70500000D03*
%TO.P,D6,2*%
%TO.N,VBUS*%
X47350000Y-70500000D03*
%TD*%
D10*
%TO.P,U4,1*%
%TO.N,VREF*%
X43374200Y-62550000D03*
%TO.P,U4,2*%
X43374200Y-64450000D03*
%TO.P,U4,3*%
%TO.N,GND*%
X45249200Y-63500000D03*
%TD*%
D15*
%TO.P,C17,1*%
%TO.N,PROT_VCC*%
X79225000Y-53000000D03*
%TO.P,C17,2*%
%TO.N,CELLN*%
X80775000Y-53000000D03*
%TD*%
D13*
%TO.P,R8,1*%
%TO.N,FAULT_G*%
X34175000Y-57000000D03*
%TO.P,R8,2*%
%TO.N,GND*%
X35825000Y-57000000D03*
%TD*%
D16*
%TO.P,J2,A1*%
%TO.N,GND*%
X86250000Y-88645000D03*
%TO.P,J2,A4*%
%TO.N,VOUT_SW*%
X85450000Y-88645000D03*
D17*
%TO.P,J2,A5*%
%TO.N,OUT_CC1*%
X84250000Y-88645000D03*
%TO.P,J2,A6*%
%TO.N,unconnected-(J2-D+-PadA6)*%
X83250000Y-88645000D03*
%TO.P,J2,A7*%
%TO.N,unconnected-(J2-D--PadA7)*%
X82750000Y-88645000D03*
%TO.P,J2,A8*%
%TO.N,unconnected-(J2-SBU1-PadA8)*%
X81750000Y-88645000D03*
D16*
%TO.P,J2,A9*%
%TO.N,VOUT_SW*%
X80550000Y-88645000D03*
%TO.P,J2,A12*%
%TO.N,GND*%
X79750000Y-88645000D03*
%TO.P,J2,B1*%
X79750000Y-88645000D03*
%TO.P,J2,B4*%
%TO.N,VOUT_SW*%
X80550000Y-88645000D03*
D17*
%TO.P,J2,B5*%
%TO.N,OUT_CC2*%
X81250000Y-88645000D03*
%TO.P,J2,B6*%
%TO.N,unconnected-(J2-D+-PadB6)*%
X82250000Y-88645000D03*
%TO.P,J2,B7*%
%TO.N,unconnected-(J2-D--PadB7)*%
X83750000Y-88645000D03*
%TO.P,J2,B8*%
%TO.N,unconnected-(J2-SBU2-PadB8)*%
X84750000Y-88645000D03*
D16*
%TO.P,J2,B9*%
%TO.N,VOUT_SW*%
X85450000Y-88645000D03*
%TO.P,J2,B12*%
%TO.N,GND*%
X86250000Y-88645000D03*
D18*
%TO.P,J2,SH*%
X87320000Y-87730000D03*
D19*
X87320000Y-83550000D03*
D18*
X78680000Y-87730000D03*
D19*
X78680000Y-83550000D03*
%TD*%
D13*
%TO.P,R17,1*%
%TO.N,OUT_G*%
X70675000Y-54340000D03*
%TO.P,R17,2*%
%TO.N,VOUT*%
X72325000Y-54340000D03*
%TD*%
D20*
%TO.P,C7,1*%
%TO.N,BAT*%
X76525000Y-70000000D03*
%TO.P,C7,2*%
%TO.N,GND*%
X79475000Y-70000000D03*
%TD*%
D21*
%TO.P,C12,1*%
%TO.N,VOUT*%
X61500000Y-59475000D03*
%TO.P,C12,2*%
%TO.N,GND*%
X61500000Y-56525000D03*
%TD*%
D10*
%TO.P,Q8,1*%
%TO.N,BTN*%
X89562500Y-67050000D03*
%TO.P,Q8,2*%
%TO.N,BAT*%
X89562500Y-68950000D03*
%TO.P,Q8,3*%
%TO.N,SET_D*%
X91437500Y-68000000D03*
%TD*%
D22*
%TO.P,U3,1*%
%TO.N,ADV_3A*%
X35816700Y-63595000D03*
%TO.P,U3,2*%
%TO.N,CC1*%
X35816700Y-64865000D03*
%TO.P,U3,3*%
%TO.N,VREF*%
X35816700Y-66135000D03*
%TO.P,U3,4*%
%TO.N,GND*%
X35816700Y-67405000D03*
%TO.P,U3,5*%
%TO.N,VREF*%
X40766700Y-67405000D03*
%TO.P,U3,6*%
%TO.N,CC2*%
X40766700Y-66135000D03*
%TO.P,U3,7*%
%TO.N,ADV_3A*%
X40766700Y-64865000D03*
%TO.P,U3,8*%
%TO.N,VBUS*%
X40766700Y-63595000D03*
%TD*%
D23*
%TO.P,C9,1*%
%TO.N,BAT_DAMP*%
X81440000Y-66000000D03*
%TO.P,C9,2*%
%TO.N,GND*%
X83340000Y-66000000D03*
%TD*%
D24*
%TO.P,C6,1*%
%TO.N,VIN*%
X54180000Y-63275000D03*
%TO.P,C6,2*%
%TO.N,GND*%
X54180000Y-61725000D03*
%TD*%
D13*
%TO.P,R10,1*%
%TO.N,BAT*%
X81345000Y-70000000D03*
%TO.P,R10,2*%
%TO.N,BAT_DAMP*%
X82995000Y-70000000D03*
%TD*%
D25*
%TO.P,U1,1*%
%TO.N,VIN*%
X56525000Y-63595000D03*
%TO.P,U1,2*%
%TO.N,LED1*%
X56525000Y-64865000D03*
%TO.P,U1,3*%
%TO.N,LED2*%
X56525000Y-66135000D03*
%TO.P,U1,4*%
%TO.N,LED3*%
X56525000Y-67405000D03*
%TO.P,U1,5*%
%TO.N,KEY*%
X61475000Y-67405000D03*
%TO.P,U1,6*%
%TO.N,BAT*%
X61475000Y-66135000D03*
%TO.P,U1,7*%
%TO.N,SW*%
X61475000Y-64865000D03*
%TO.P,U1,8*%
%TO.N,VOUT*%
X61475000Y-63595000D03*
D26*
%TO.P,U1,9*%
%TO.N,GND*%
X59000000Y-65500000D03*
%TD*%
D15*
%TO.P,C15,1*%
%TO.N,SET*%
X91225000Y-71000000D03*
%TO.P,C15,2*%
%TO.N,GND*%
X92775000Y-71000000D03*
%TD*%
D16*
%TO.P,J1,A1*%
%TO.N,GND*%
X50250000Y-88645000D03*
%TO.P,J1,A4*%
%TO.N,VBUS*%
X49450000Y-88645000D03*
D17*
%TO.P,J1,A5*%
%TO.N,CC1*%
X48250000Y-88645000D03*
%TO.P,J1,A6*%
%TO.N,unconnected-(J1-D+-PadA6)*%
X47250000Y-88645000D03*
%TO.P,J1,A7*%
%TO.N,unconnected-(J1-D--PadA7)*%
X46750000Y-88645000D03*
%TO.P,J1,A8*%
%TO.N,unconnected-(J1-SBU1-PadA8)*%
X45750000Y-88645000D03*
D16*
%TO.P,J1,A9*%
%TO.N,VBUS*%
X44550000Y-88645000D03*
%TO.P,J1,A12*%
%TO.N,GND*%
X43750000Y-88645000D03*
%TO.P,J1,B1*%
X43750000Y-88645000D03*
%TO.P,J1,B4*%
%TO.N,VBUS*%
X44550000Y-88645000D03*
D17*
%TO.P,J1,B5*%
%TO.N,CC2*%
X45250000Y-88645000D03*
%TO.P,J1,B6*%
%TO.N,unconnected-(J1-D+-PadB6)*%
X46250000Y-88645000D03*
%TO.P,J1,B7*%
%TO.N,unconnected-(J1-D--PadB7)*%
X47750000Y-88645000D03*
%TO.P,J1,B8*%
%TO.N,unconnected-(J1-SBU2-PadB8)*%
X48750000Y-88645000D03*
D16*
%TO.P,J1,B9*%
%TO.N,VBUS*%
X49450000Y-88645000D03*
%TO.P,J1,B12*%
%TO.N,GND*%
X50250000Y-88645000D03*
D18*
%TO.P,J1,SH*%
X51320000Y-87730000D03*
D19*
X51320000Y-83550000D03*
D18*
X42680000Y-87730000D03*
D19*
X42680000Y-83550000D03*
%TD*%
D10*
%TO.P,Q2,1*%
%TO.N,FAULT_G*%
X38062500Y-56050000D03*
%TO.P,Q2,2*%
%TO.N,GND*%
X38062500Y-57950000D03*
%TO.P,Q2,3*%
%TO.N,FAULT_K*%
X39937500Y-57000000D03*
%TD*%
D11*
%TO.P,TP1,1*%
%TO.N,VBUS*%
X40500000Y-74000000D03*
%TD*%
D15*
%TO.P,C3,1*%
%TO.N,VIN_G*%
X46225000Y-60500000D03*
%TO.P,C3,2*%
%TO.N,VBUS*%
X47775000Y-60500000D03*
%TD*%
D21*
%TO.P,C13,1*%
%TO.N,VOUT*%
X66000000Y-59475000D03*
%TO.P,C13,2*%
%TO.N,GND*%
X66000000Y-56525000D03*
%TD*%
D20*
%TO.P,C4,1*%
%TO.N,VBUS_DAMP*%
X37940000Y-70500000D03*
%TO.P,C4,2*%
%TO.N,GND*%
X40890000Y-70500000D03*
%TD*%
D12*
%TO.P,D4,1*%
%TO.N,LED2*%
X74212500Y-84000000D03*
%TO.P,D4,2*%
%TO.N,LED3*%
X75787500Y-84000000D03*
%TD*%
%TO.P,D1,1*%
%TO.N,LED3*%
X63712500Y-84000000D03*
%TO.P,D1,2*%
%TO.N,LED1*%
X65287500Y-84000000D03*
%TD*%
D13*
%TO.P,R6,1*%
%TO.N,VIN_G*%
X42175000Y-60500000D03*
%TO.P,R6,2*%
%TO.N,ADV_3A*%
X43825000Y-60500000D03*
%TD*%
%TO.P,R3,1*%
%TO.N,VBUS*%
X42760000Y-70500000D03*
%TO.P,R3,2*%
%TO.N,VBUS_DAMP*%
X44410000Y-70500000D03*
%TD*%
D27*
%TO.P,SW1,1*%
%TO.N,BTN*%
X55000000Y-82125000D03*
%TO.P,SW1,2*%
X55000000Y-85875000D03*
%TO.P,SW1,3*%
%TO.N,GND*%
X61000000Y-82125000D03*
%TO.P,SW1,4*%
X61000000Y-85875000D03*
%TD*%
D15*
%TO.P,C2,1*%
%TO.N,VREF*%
X47336700Y-63500000D03*
%TO.P,C2,2*%
%TO.N,GND*%
X48886700Y-63500000D03*
%TD*%
D13*
%TO.P,R16,1*%
%TO.N,OUT_G_D*%
X69675000Y-59980000D03*
%TO.P,R16,2*%
%TO.N,OUT_G*%
X71325000Y-59980000D03*
%TD*%
D14*
%TO.P,D8,1*%
%TO.N,GND*%
X53150000Y-79000000D03*
%TO.P,D8,2*%
%TO.N,CC2*%
X53850000Y-79000000D03*
%TD*%
D11*
%TO.P,TP10,1*%
%TO.N,BAT*%
X82000000Y-63500000D03*
%TD*%
D15*
%TO.P,C14,1*%
%TO.N,KEY*%
X62725000Y-77000000D03*
%TO.P,C14,2*%
%TO.N,GND*%
X64275000Y-77000000D03*
%TD*%
D10*
%TO.P,Q6,1*%
%TO.N,OUT_G*%
X69562500Y-56210000D03*
%TO.P,Q6,2*%
%TO.N,VOUT*%
X69562500Y-58110000D03*
%TO.P,Q6,3*%
%TO.N,VOUT_SW*%
X71437500Y-57160000D03*
%TD*%
D13*
%TO.P,R5,1*%
%TO.N,VBUS*%
X38175000Y-60500000D03*
%TO.P,R5,2*%
%TO.N,VIN_G*%
X39825000Y-60500000D03*
%TD*%
%TO.P,R14,1*%
%TO.N,SET*%
X95175000Y-74500000D03*
%TO.P,R14,2*%
%TO.N,GND*%
X96825000Y-74500000D03*
%TD*%
D10*
%TO.P,Q1,1*%
%TO.N,VIN_G*%
X49562500Y-69550000D03*
%TO.P,Q1,2*%
%TO.N,VBUS*%
X49562500Y-71450000D03*
%TO.P,Q1,3*%
%TO.N,VIN*%
X51437500Y-70500000D03*
%TD*%
D12*
%TO.P,D3,1*%
%TO.N,LED3*%
X70712500Y-84000000D03*
%TO.P,D3,2*%
%TO.N,LED2*%
X72287500Y-84000000D03*
%TD*%
D11*
%TO.P,TP11,1*%
%TO.N,GND*%
X96000000Y-81500000D03*
%TD*%
D13*
%TO.P,R2,1*%
%TO.N,CC2*%
X52675000Y-76500000D03*
%TO.P,R2,2*%
%TO.N,GND*%
X54325000Y-76500000D03*
%TD*%
D12*
%TO.P,D5,1*%
%TO.N,FAULT_K*%
X63712500Y-80500000D03*
%TO.P,D5,2*%
%TO.N,FAULT_A*%
X65287500Y-80500000D03*
%TD*%
D14*
%TO.P,D9,1*%
%TO.N,GND*%
X82650000Y-77500000D03*
%TO.P,D9,2*%
%TO.N,VOUT_SW*%
X83350000Y-77500000D03*
%TD*%
D13*
%TO.P,R21,1*%
%TO.N,VOUT_SW*%
X87175000Y-75000000D03*
%TO.P,R21,2*%
%TO.N,OUT_CC2*%
X88825000Y-75000000D03*
%TD*%
%TO.P,R13,1*%
%TO.N,SET_D*%
X91175000Y-74500000D03*
%TO.P,R13,2*%
%TO.N,SET*%
X92825000Y-74500000D03*
%TD*%
D14*
%TO.P,D10,1*%
%TO.N,GND*%
X73650000Y-77500000D03*
%TO.P,D10,2*%
%TO.N,OUT_CC1*%
X74350000Y-77500000D03*
%TD*%
%TO.P,D11,1*%
%TO.N,GND*%
X87650000Y-77500000D03*
%TO.P,D11,2*%
%TO.N,OUT_CC2*%
X88350000Y-77500000D03*
%TD*%
D11*
%TO.P,TP4,1*%
%TO.N,BAT*%
X78000000Y-63500000D03*
%TD*%
D13*
%TO.P,R11,1*%
%TO.N,BTN*%
X59175000Y-77000000D03*
%TO.P,R11,2*%
%TO.N,KEY*%
X60825000Y-77000000D03*
%TD*%
D28*
%TO.P,Q3,1*%
%TO.N,PROT_D3*%
X84350000Y-56025000D03*
%TO.P,Q3,2*%
%TO.N,CELLN*%
X84350000Y-56675000D03*
%TO.P,Q3,3*%
X84350000Y-57325000D03*
%TO.P,Q3,4*%
%TO.N,PROT_OD*%
X84350000Y-57975000D03*
%TO.P,Q3,5*%
%TO.N,PROT_OC*%
X88650000Y-57975000D03*
%TO.P,Q3,6*%
%TO.N,GND*%
X88650000Y-57325000D03*
%TO.P,Q3,7*%
X88650000Y-56675000D03*
%TO.P,Q3,8*%
%TO.N,PROT_D3*%
X88650000Y-56025000D03*
%TD*%
D11*
%TO.P,TP8,1*%
%TO.N,VOUT_SW*%
X67000000Y-77500000D03*
%TD*%
D20*
%TO.P,C8,1*%
%TO.N,BAT*%
X76525000Y-66000000D03*
%TO.P,C8,2*%
%TO.N,GND*%
X79475000Y-66000000D03*
%TD*%
D13*
%TO.P,R12,1*%
%TO.N,BTN*%
X85175000Y-66000000D03*
%TO.P,R12,2*%
%TO.N,BAT*%
X86825000Y-66000000D03*
%TD*%
D21*
%TO.P,C10,1*%
%TO.N,VOUT*%
X52500000Y-59475000D03*
%TO.P,C10,2*%
%TO.N,GND*%
X52500000Y-56525000D03*
%TD*%
D28*
%TO.P,Q5,1*%
%TO.N,PROT_D5*%
X84350000Y-48025000D03*
%TO.P,Q5,2*%
%TO.N,CELLN*%
X84350000Y-48675000D03*
%TO.P,Q5,3*%
X84350000Y-49325000D03*
%TO.P,Q5,4*%
%TO.N,PROT_OD*%
X84350000Y-49975000D03*
%TO.P,Q5,5*%
%TO.N,PROT_OC*%
X88650000Y-49975000D03*
%TO.P,Q5,6*%
%TO.N,GND*%
X88650000Y-49325000D03*
%TO.P,Q5,7*%
X88650000Y-48675000D03*
%TO.P,Q5,8*%
%TO.N,PROT_D5*%
X88650000Y-48025000D03*
%TD*%
D15*
%TO.P,C1,1*%
%TO.N,VBUS*%
X43510000Y-67000000D03*
%TO.P,C1,2*%
%TO.N,GND*%
X45060000Y-67000000D03*
%TD*%
D11*
%TO.P,TP7,1*%
%TO.N,VOUT*%
X48500000Y-58000000D03*
%TD*%
D28*
%TO.P,Q4,1*%
%TO.N,PROT_D4*%
X84350000Y-52025000D03*
%TO.P,Q4,2*%
%TO.N,CELLN*%
X84350000Y-52675000D03*
%TO.P,Q4,3*%
X84350000Y-53325000D03*
%TO.P,Q4,4*%
%TO.N,PROT_OD*%
X84350000Y-53975000D03*
%TO.P,Q4,5*%
%TO.N,PROT_OC*%
X88650000Y-53975000D03*
%TO.P,Q4,6*%
%TO.N,GND*%
X88650000Y-53325000D03*
%TO.P,Q4,7*%
X88650000Y-52675000D03*
%TO.P,Q4,8*%
%TO.N,PROT_D4*%
X88650000Y-52025000D03*
%TD*%
D13*
%TO.P,R4,1*%
%TO.N,VBUS*%
X47175000Y-67000000D03*
%TO.P,R4,2*%
%TO.N,VREF*%
X48825000Y-67000000D03*
%TD*%
%TO.P,R7,1*%
%TO.N,ADV_3A*%
X34175000Y-60500000D03*
%TO.P,R7,2*%
%TO.N,FAULT_G*%
X35825000Y-60500000D03*
%TD*%
%TO.P,R19,1*%
%TO.N,GND*%
X79175000Y-49000000D03*
%TO.P,R19,2*%
%TO.N,PROT_VM*%
X80825000Y-49000000D03*
%TD*%
D15*
%TO.P,C16,1*%
%TO.N,OUT_G*%
X66725000Y-54340000D03*
%TO.P,C16,2*%
%TO.N,VOUT*%
X68275000Y-54340000D03*
%TD*%
D14*
%TO.P,D7,1*%
%TO.N,GND*%
X40150000Y-79000000D03*
%TO.P,D7,2*%
%TO.N,CC1*%
X40850000Y-79000000D03*
%TD*%
D13*
%TO.P,R9,1*%
%TO.N,VBUS*%
X42175000Y-57000000D03*
%TO.P,R9,2*%
%TO.N,FAULT_A*%
X43825000Y-57000000D03*
%TD*%
%TO.P,R18,1*%
%TO.N,BAT*%
X85175000Y-70000000D03*
%TO.P,R18,2*%
%TO.N,PROT_VCC*%
X86825000Y-70000000D03*
%TD*%
%TO.P,R1,1*%
%TO.N,CC1*%
X39675000Y-76500000D03*
%TO.P,R1,2*%
%TO.N,GND*%
X41325000Y-76500000D03*
%TD*%
D29*
%TO.P,C5,1*%
%TO.N,VIN*%
X55500000Y-71239999D03*
%TO.P,C5,2*%
%TO.N,GND*%
X55500000Y-69339999D03*
%TD*%
D21*
%TO.P,C11,1*%
%TO.N,VOUT*%
X57000000Y-59475000D03*
%TO.P,C11,2*%
%TO.N,GND*%
X57000000Y-56525000D03*
%TD*%
D30*
%TO.P,L1,1*%
%TO.N,SW*%
X71000000Y-62500000D03*
%TO.P,L1,2*%
%TO.N,BAT*%
X71000000Y-68500000D03*
%TD*%
D13*
%TO.P,R20,1*%
%TO.N,VOUT_SW*%
X73175000Y-75000000D03*
%TO.P,R20,2*%
%TO.N,OUT_CC1*%
X74825000Y-75000000D03*
%TD*%
D31*
%TO.P,J3,1*%
%TO.N,BAT*%
X93000000Y-59000000D03*
D32*
%TO.P,J3,2*%
%TO.N,CELLN*%
X96960000Y-59000000D03*
%TD*%
D11*
%TO.P,TP2,1*%
%TO.N,GND*%
X37000000Y-74000000D03*
%TD*%
D33*
%TO.P,U2,1*%
%TO.N,PROT_OD*%
X78862500Y-56050000D03*
%TO.P,U2,2*%
%TO.N,PROT_VM*%
X78862500Y-57000000D03*
%TO.P,U2,3*%
%TO.N,PROT_OC*%
X78862500Y-57950000D03*
%TO.P,U2,4*%
%TO.N,unconnected-(U2-TD-Pad4)*%
X81137500Y-57950000D03*
%TO.P,U2,5*%
%TO.N,PROT_VCC*%
X81137500Y-57000000D03*
%TO.P,U2,6*%
%TO.N,CELLN*%
X81137500Y-56050000D03*
%TD*%
D34*
%TO.N,GND*%
X42507585Y-89362308D03*
X58718000Y-56525000D03*
D35*
X60000000Y-68450000D03*
X58000000Y-68450000D03*
D34*
X84554382Y-66931828D03*
D35*
X59000000Y-62550000D03*
D34*
X41784711Y-89171597D03*
X52284617Y-88645000D03*
X98095987Y-74500000D03*
X51492415Y-89362308D03*
X55595987Y-76500000D03*
X80073723Y-49898723D03*
X89885234Y-53325000D03*
X42252981Y-71545852D03*
X57030695Y-69339999D03*
X62275000Y-82125000D03*
X80689809Y-67214809D03*
X38357106Y-74000000D03*
X92508682Y-78950000D03*
X77784711Y-89171597D03*
X67718000Y-56525000D03*
X88284617Y-88645000D03*
X94079312Y-71000000D03*
X40620773Y-79815404D03*
X50191012Y-63500000D03*
X89885234Y-56675000D03*
X89885234Y-52675000D03*
X83120773Y-78315404D03*
X55484312Y-61725000D03*
X89885234Y-49325000D03*
X46501630Y-64223091D03*
X37095987Y-57000000D03*
X54218000Y-56525000D03*
X74120773Y-78315404D03*
X80837981Y-71045852D03*
X63218000Y-56525000D03*
D35*
X59000000Y-68450000D03*
D34*
X53620773Y-79815404D03*
X45984226Y-71165774D03*
X89885234Y-57325000D03*
X38357106Y-76500000D03*
D35*
X60000000Y-62550000D03*
X58000000Y-62550000D03*
D34*
X46319869Y-67337580D03*
X65579312Y-77000000D03*
X97357106Y-81500000D03*
X88120773Y-78315404D03*
X37486810Y-67405000D03*
X89885234Y-48675000D03*
X78507585Y-89362308D03*
X42595987Y-76500000D03*
X39508682Y-57950000D03*
X87492415Y-89362308D03*
X62275000Y-85875000D03*
%TO.N,OUT_G_D*%
X69500000Y-72700000D03*
X68700000Y-60700000D03*
D35*
%TO.N,VOUT_SW*%
X77600000Y-60600000D03*
X76400000Y-81000000D03*
X76400000Y-60600000D03*
D34*
X65900000Y-74400000D03*
X92000000Y-72600000D03*
X65900000Y-76100000D03*
X88100000Y-73900000D03*
D35*
X77600000Y-81000000D03*
D34*
X73000000Y-76000000D03*
%TO.N,VIN*%
X51700000Y-65200000D03*
X54000000Y-64300000D03*
%TO.N,LED1*%
X66400000Y-72700000D03*
X55000000Y-65400000D03*
%TO.N,LED3*%
X57400000Y-77400000D03*
X71400000Y-80400000D03*
X57300000Y-70300000D03*
X73000000Y-80600000D03*
X56600000Y-68300000D03*
X64000000Y-82900000D03*
X66200000Y-83000000D03*
%TO.N,VBUS*%
X44200000Y-68100000D03*
X41100000Y-62500000D03*
X41100000Y-60500000D03*
X44200000Y-73000000D03*
X42300000Y-65500000D03*
%TO.N,VREF*%
X39100000Y-66200000D03*
X43300000Y-65600000D03*
%TO.N,PROT_VCC*%
X80000000Y-52000000D03*
X87800000Y-68500000D03*
X82500000Y-55800000D03*
%TO.N,OUT_CC1*%
X82750000Y-87150000D03*
X82700000Y-79625000D03*
%TO.N,OUT_CC2*%
X84325000Y-84525000D03*
X81950000Y-87375000D03*
%TO.N,OUT_G*%
X70000000Y-57100000D03*
X70600000Y-59000000D03*
%TO.N,VOUT*%
X48500000Y-57000000D03*
X52200000Y-58450000D03*
%TO.N,BTN*%
X85100000Y-74100000D03*
X85100000Y-68800000D03*
%TO.N,ADV_3A*%
X37700000Y-64700000D03*
X38800000Y-63600000D03*
%TO.N,CC1*%
X45578200Y-84448000D03*
X46750000Y-87150000D03*
%TO.N,CC2*%
X51300000Y-69400000D03*
X52400000Y-78300000D03*
X51300000Y-71600000D03*
X48325000Y-84525000D03*
X45950000Y-87375000D03*
X52500000Y-75500000D03*
%TO.N,LED2*%
X61600000Y-79000000D03*
X71700000Y-83000000D03*
X73800000Y-82900000D03*
X53000000Y-69200000D03*
%TO.N,KEY*%
X64100000Y-78200000D03*
X63800000Y-71300000D03*
%TO.N,FAULT_K*%
X61400000Y-75900000D03*
X52500000Y-67000000D03*
%TO.N,VIN_G*%
X43000000Y-59500000D03*
X50000000Y-70400000D03*
X38600000Y-59000000D03*
X47000000Y-59500000D03*
%TO.N,VBUS_DAMP*%
X38900000Y-69300000D03*
X40500000Y-68900000D03*
%TO.N,FAULT_A*%
X48100000Y-68200000D03*
X48700000Y-73000000D03*
%TO.N,PROT_OD*%
X79300000Y-55200000D03*
X83200000Y-58000000D03*
%TO.N,PROT_OC*%
X89700000Y-54600000D03*
X89400000Y-58700000D03*
X89600000Y-50700000D03*
%TD*%
%TO.N,SET*%
D36*
X91200000Y-71000000D02*
X91225000Y-71000000D01*
X96800000Y-72900000D02*
X96800000Y-71000000D01*
X91800000Y-73500000D02*
X91200000Y-72900000D01*
X95200000Y-74500000D02*
X92800000Y-74500000D01*
X91100000Y-75900000D02*
X91100000Y-77000000D01*
X92800000Y-74500000D02*
X91800000Y-73500000D01*
X95175000Y-74500000D02*
X95200000Y-74500000D01*
X90300000Y-73900000D02*
X90300000Y-75100000D01*
X91100000Y-77000000D02*
X91062500Y-77050000D01*
X96800000Y-71000000D02*
X96825000Y-71000000D01*
X91800000Y-73500000D02*
X90700000Y-73500000D01*
X90700000Y-73500000D02*
X90300000Y-73900000D01*
X90300000Y-75100000D02*
X91100000Y-75900000D01*
X91200000Y-72900000D02*
X91200000Y-71000000D01*
X95200000Y-74500000D02*
X96800000Y-72900000D01*
X92800000Y-74500000D02*
X92825000Y-74500000D01*
%TO.N,GND*%
D37*
X92775000Y-71000000D02*
X94079312Y-71000000D01*
X88650000Y-49325000D02*
X89885234Y-49325000D01*
X41325000Y-76500000D02*
X42595987Y-76500000D01*
X73650000Y-77500000D02*
X74120773Y-78315404D01*
X96825000Y-74500000D02*
X98095987Y-74500000D01*
X54325000Y-76500000D02*
X55595987Y-76500000D01*
X43750000Y-88645000D02*
X42507585Y-89362308D01*
X37000000Y-76500000D02*
X38357106Y-76500000D01*
X55500000Y-69339999D02*
X57030695Y-69339999D01*
X79750000Y-88645000D02*
X78507585Y-89362308D01*
X40150000Y-79000000D02*
X40620773Y-79815404D01*
X87650000Y-77500000D02*
X88120773Y-78315404D01*
X46650000Y-70500000D02*
X45984226Y-71165774D01*
X48886700Y-63500000D02*
X50191012Y-63500000D01*
X59000000Y-65500000D02*
X60000000Y-68450000D01*
X79750000Y-88645000D02*
X77784711Y-89171597D01*
X88650000Y-53325000D02*
X89885234Y-53325000D01*
X35816700Y-67405000D02*
X37486810Y-67405000D01*
X38062500Y-57950000D02*
X39508682Y-57950000D01*
X79475000Y-70000000D02*
X80837981Y-71045852D01*
X86250000Y-88645000D02*
X87492415Y-89362308D01*
X50250000Y-88645000D02*
X51492415Y-89362308D01*
X59000000Y-65500000D02*
X59000000Y-68450000D01*
X45249200Y-63500000D02*
X46501630Y-64223091D01*
X79175000Y-49000000D02*
X80073723Y-49898723D01*
X50250000Y-88645000D02*
X52284617Y-88645000D01*
X59000000Y-65500000D02*
X60000000Y-62550000D01*
X35825000Y-57000000D02*
X37095987Y-57000000D01*
X53150000Y-79000000D02*
X53620773Y-79815404D01*
X61000000Y-82125000D02*
X62275000Y-82125000D01*
X66000000Y-56525000D02*
X67718000Y-56525000D01*
X88650000Y-48675000D02*
X89885234Y-48675000D01*
X57000000Y-56525000D02*
X58718000Y-56525000D01*
X82650000Y-77500000D02*
X83120773Y-78315404D01*
X86250000Y-88645000D02*
X87320000Y-87730000D01*
X45060000Y-67000000D02*
X46319869Y-67337580D01*
X86250000Y-88645000D02*
X88284617Y-88645000D01*
X52500000Y-56525000D02*
X54218000Y-56525000D01*
X59000000Y-65500000D02*
X58000000Y-68450000D01*
X43750000Y-88645000D02*
X42680000Y-87730000D01*
X88650000Y-56675000D02*
X89885234Y-56675000D01*
X37000000Y-74000000D02*
X38357106Y-74000000D01*
X88650000Y-57325000D02*
X89885234Y-57325000D01*
X43750000Y-88645000D02*
X41784711Y-89171597D01*
X61000000Y-85875000D02*
X62275000Y-85875000D01*
X91062500Y-78950000D02*
X92508682Y-78950000D01*
X59000000Y-65500000D02*
X59000000Y-62550000D01*
X54180000Y-61725000D02*
X55484312Y-61725000D01*
X83340000Y-66000000D02*
X84554382Y-66931828D01*
X64275000Y-77000000D02*
X65579312Y-77000000D01*
X40890000Y-70500000D02*
X42252981Y-71545852D01*
X79750000Y-88645000D02*
X78680000Y-87730000D01*
X88650000Y-52675000D02*
X89885234Y-52675000D01*
X79475000Y-66000000D02*
X80689809Y-67214809D01*
X96000000Y-81500000D02*
X97357106Y-81500000D01*
X50250000Y-88645000D02*
X51320000Y-87730000D01*
X61500000Y-56525000D02*
X63218000Y-56525000D01*
X59000000Y-65500000D02*
X58000000Y-62550000D01*
%TO.N,OUT_G_D*%
D36*
X68700000Y-60700000D02*
X69400000Y-60000000D01*
X69400000Y-60000000D02*
X69700000Y-60000000D01*
X89700000Y-77700000D02*
X89700000Y-74400000D01*
X92100000Y-77800000D02*
X89800000Y-77800000D01*
X92900000Y-78000000D02*
X92600000Y-77700000D01*
X92937500Y-78000000D02*
X92900000Y-78000000D01*
X92600000Y-77700000D02*
X92200000Y-77700000D01*
X92200000Y-77700000D02*
X92100000Y-77800000D01*
X89800000Y-77800000D02*
X89700000Y-77700000D01*
X88000000Y-72700000D02*
X69500000Y-72700000D01*
X89700000Y-74400000D02*
X88000000Y-72700000D01*
X69700000Y-60000000D02*
X69675000Y-59980000D01*
%TO.N,VOUT_SW*%
X84000000Y-78000000D02*
X83800000Y-77800000D01*
X87200000Y-75000000D02*
X88100000Y-73900000D01*
X95200000Y-71000000D02*
X95175000Y-71000000D01*
D38*
X77000000Y-60600000D02*
X76400000Y-60600000D01*
D39*
X83400000Y-77500000D02*
X83350000Y-77500000D01*
D40*
X82430500Y-81029000D02*
X77000000Y-81000000D01*
D36*
X85150000Y-87650000D02*
X85150000Y-85800000D01*
X73000000Y-76700000D02*
X73200000Y-76500000D01*
X65900000Y-74400000D02*
X67000000Y-74500000D01*
D41*
X71437500Y-57160000D02*
X74000000Y-58000000D01*
D36*
X74700000Y-79300000D02*
X73900000Y-79300000D01*
D40*
X83000000Y-85800000D02*
X83000000Y-81000000D01*
D36*
X95200000Y-71100000D02*
X95200000Y-71000000D01*
X73900000Y-79300000D02*
X73000000Y-78400000D01*
X87200000Y-75000000D02*
X87175000Y-75000000D01*
X83800000Y-77700000D02*
X83600000Y-77500000D01*
X93700000Y-72600000D02*
X95200000Y-71100000D01*
D40*
X83000000Y-81000000D02*
X82430500Y-81029000D01*
D36*
X73000000Y-78400000D02*
X73000000Y-76700000D01*
X80850000Y-87650000D02*
X80850000Y-85800000D01*
X83600000Y-77500000D02*
X83400000Y-77500000D01*
D42*
X74000000Y-58000000D02*
X77000000Y-59500000D01*
D36*
X83000000Y-81000000D02*
X84000000Y-80000000D01*
X73200000Y-75000000D02*
X73175000Y-75000000D01*
D38*
X77000000Y-81000000D02*
X76400000Y-81000000D01*
D36*
X73200000Y-76500000D02*
X73200000Y-75000000D01*
X84000000Y-78000000D02*
X87000000Y-75000000D01*
X92000000Y-72600000D02*
X93700000Y-72600000D01*
X83800000Y-77800000D02*
X83800000Y-77700000D01*
D40*
X77000000Y-60600000D02*
X77000000Y-59500000D01*
D42*
X80850000Y-85800000D02*
X83000000Y-85800000D01*
D36*
X76400000Y-81000000D02*
X74700000Y-79300000D01*
X65900000Y-76100000D02*
X67000000Y-77200000D01*
X84000000Y-80000000D02*
X84000000Y-78000000D01*
X87000000Y-75000000D02*
X87200000Y-75000000D01*
X67000000Y-77200000D02*
X67000000Y-77500000D01*
X85300000Y-88200000D02*
X85150000Y-87650000D01*
D42*
X83000000Y-85800000D02*
X85150000Y-85800000D01*
D36*
X80700000Y-88200000D02*
X80850000Y-87650000D01*
%TO.N,CELLN*%
D43*
X96960000Y-59000000D02*
X96960000Y-54960000D01*
X96960000Y-54960000D02*
X92000000Y-49000000D01*
%TO.N,VIN*%
D36*
X51437500Y-70500000D02*
X51400000Y-70500000D01*
X52100000Y-69100000D02*
X52100000Y-69700000D01*
X51700000Y-65200000D02*
X51700000Y-66300000D01*
X51700000Y-66300000D02*
X51000000Y-67000000D01*
X51400000Y-67400000D02*
X51400000Y-68400000D01*
X53500000Y-71200000D02*
X55500000Y-71200000D01*
X52100000Y-69700000D02*
X51400000Y-70400000D01*
X51400000Y-70400000D02*
X51400000Y-70500000D01*
D41*
X51437500Y-70500000D02*
X52500000Y-70500000D01*
D36*
X55500000Y-71200000D02*
X55500000Y-71239999D01*
D41*
X55000000Y-63595000D02*
X54000000Y-64300000D01*
X52500000Y-70500000D02*
X53500000Y-70200000D01*
X53500000Y-70200000D02*
X53500000Y-71200000D01*
D36*
X51400000Y-70500000D02*
X52100000Y-71200000D01*
X51000000Y-67000000D02*
X51400000Y-67400000D01*
X52100000Y-71200000D02*
X53500000Y-71200000D01*
X51400000Y-68400000D02*
X52100000Y-69100000D01*
D41*
X56525000Y-63595000D02*
X55000000Y-63595000D01*
%TO.N,LED1*%
D36*
X66800000Y-79900000D02*
X66800000Y-81300000D01*
X65300000Y-84000000D02*
X67200000Y-84000000D01*
X67400000Y-73500000D02*
X68600000Y-74700000D01*
X68500000Y-78200000D02*
X66800000Y-79900000D01*
X68600000Y-74700000D02*
X68600000Y-78000000D01*
X56100000Y-65300000D02*
X55300000Y-65300000D01*
X68600000Y-78000000D02*
X68500000Y-78100000D01*
X66400000Y-72700000D02*
X67200000Y-73500000D01*
X56525000Y-64865000D02*
X56500000Y-64900000D01*
X56500000Y-64900000D02*
X56100000Y-65300000D01*
X66800000Y-81300000D02*
X65300000Y-82800000D01*
X55300000Y-65300000D02*
X55000000Y-65400000D01*
X65300000Y-82800000D02*
X65300000Y-84000000D01*
X67200000Y-73500000D02*
X67400000Y-73500000D01*
X68500000Y-78100000D02*
X68500000Y-78200000D01*
%TO.N,LED3*%
X68800000Y-84000000D02*
X70700000Y-84000000D01*
X75800000Y-83400000D02*
X75800000Y-84000000D01*
X64000000Y-82900000D02*
X63800000Y-83400000D01*
X63700000Y-83500000D02*
X63700000Y-84000000D01*
X56500000Y-67400000D02*
X56500000Y-67700000D01*
X70700000Y-84000000D02*
X70800000Y-83900000D01*
X63800000Y-83400000D02*
X63700000Y-83500000D01*
X73000000Y-80600000D02*
X75800000Y-83400000D01*
X70800000Y-81000000D02*
X71400000Y-80400000D01*
X70800000Y-83900000D02*
X70800000Y-81000000D01*
X56500000Y-67700000D02*
X56400000Y-67800000D01*
X57300000Y-70300000D02*
X57400000Y-77400000D01*
X56525000Y-67405000D02*
X56500000Y-67400000D01*
X66200000Y-83000000D02*
X67800000Y-83000000D01*
X56400000Y-67800000D02*
X56600000Y-68300000D01*
X67800000Y-83000000D02*
X68800000Y-84000000D01*
%TO.N,VBUS*%
X44400000Y-56100000D02*
X46900000Y-58600000D01*
X46700000Y-66500000D02*
X46800000Y-66500000D01*
X44200000Y-67700000D02*
X44200000Y-68100000D01*
X43400000Y-72200000D02*
X44200000Y-73000000D01*
X47800000Y-60500000D02*
X47775000Y-60500000D01*
X43100000Y-66500000D02*
X43100000Y-66600000D01*
X46900000Y-58600000D02*
X47300000Y-58600000D01*
D42*
X44850000Y-85800000D02*
X47000000Y-85800000D01*
D36*
X44700000Y-88200000D02*
X44850000Y-87650000D01*
D44*
X41520000Y-72785000D02*
X49562500Y-71450000D01*
D36*
X40800000Y-63600000D02*
X40766700Y-63595000D01*
X44850000Y-87650000D02*
X44850000Y-85800000D01*
X47200000Y-66900000D02*
X47200000Y-67000000D01*
X42200000Y-57000000D02*
X42400000Y-57000000D01*
X40400000Y-58800000D02*
X42200000Y-57000000D01*
X42200000Y-57000000D02*
X42175000Y-57000000D01*
X42800000Y-70500000D02*
X42760000Y-70500000D01*
X43100000Y-66600000D02*
X43500000Y-67000000D01*
X49150000Y-87650000D02*
X49150000Y-85800000D01*
X38175000Y-60500000D02*
X38200000Y-60500000D01*
X38200000Y-60500000D02*
X39900000Y-58800000D01*
X40500000Y-73800000D02*
X40500000Y-74000000D01*
X47300000Y-58600000D02*
X47800000Y-59100000D01*
X47400000Y-70500000D02*
X47350000Y-70500000D01*
X41100000Y-62500000D02*
X40800000Y-62800000D01*
X40800000Y-62800000D02*
X40800000Y-63600000D01*
X46200000Y-66000000D02*
X46700000Y-66500000D01*
D42*
X47000000Y-85800000D02*
X49150000Y-85800000D01*
D36*
X47800000Y-59100000D02*
X47800000Y-60500000D01*
X39900000Y-58800000D02*
X40400000Y-58800000D01*
X44400000Y-66200000D02*
X44600000Y-66000000D01*
X42400000Y-57000000D02*
X43300000Y-56100000D01*
X40400000Y-58800000D02*
X41100000Y-59500000D01*
X49600000Y-71400000D02*
X49562500Y-71450000D01*
X43300000Y-56100000D02*
X44400000Y-56100000D01*
D40*
X47000000Y-72000000D02*
X47000000Y-85800000D01*
D36*
X46800000Y-66500000D02*
X47200000Y-66900000D01*
X43500000Y-67000000D02*
X44200000Y-67700000D01*
X44600000Y-66000000D02*
X46200000Y-66000000D01*
X44300000Y-66200000D02*
X44400000Y-66200000D01*
D44*
X47000000Y-72000000D02*
X47350000Y-70500000D01*
D36*
X41520000Y-72785000D02*
X40500000Y-73800000D01*
X41100000Y-59500000D02*
X41100000Y-60500000D01*
X43400000Y-71400000D02*
X42800000Y-70800000D01*
X49300000Y-88200000D02*
X49150000Y-87650000D01*
X47200000Y-67000000D02*
X47175000Y-67000000D01*
X42300000Y-65500000D02*
X43100000Y-66500000D01*
X43400000Y-71400000D02*
X43400000Y-72200000D01*
X42800000Y-70800000D02*
X42800000Y-70500000D01*
X43500000Y-67000000D02*
X44300000Y-66200000D01*
%TO.N,VREF*%
X40800000Y-67400000D02*
X40766700Y-67405000D01*
X34300000Y-63200000D02*
X34700000Y-62800000D01*
X35100000Y-66100000D02*
X34300000Y-65300000D01*
X39400000Y-66700000D02*
X40100000Y-67400000D01*
X43300000Y-65600000D02*
X43400000Y-64400000D01*
X34300000Y-65300000D02*
X34300000Y-63200000D01*
X48800000Y-65000000D02*
X48800000Y-67000000D01*
X44000000Y-63100000D02*
X44400000Y-62700000D01*
X34700000Y-62800000D02*
X36900000Y-62800000D01*
X46500000Y-62700000D02*
X47300000Y-63500000D01*
X47300000Y-63500000D02*
X48800000Y-65000000D01*
X35816700Y-66135000D02*
X35800000Y-66100000D01*
X43400000Y-64400000D02*
X43374200Y-64450000D01*
X44000000Y-63800000D02*
X44000000Y-63100000D01*
X40100000Y-67400000D02*
X40800000Y-67400000D01*
X48800000Y-67000000D02*
X48825000Y-67000000D01*
X39300000Y-65200000D02*
X39300000Y-66500000D01*
X47300000Y-63500000D02*
X47336700Y-63500000D01*
X43400000Y-64400000D02*
X44000000Y-63800000D01*
X44000000Y-63100000D02*
X43500000Y-62600000D01*
X39300000Y-66500000D02*
X39400000Y-66600000D01*
X43400000Y-62600000D02*
X43374200Y-62550000D01*
X36900000Y-62800000D02*
X39300000Y-65200000D01*
X44400000Y-62700000D02*
X46500000Y-62700000D01*
X43500000Y-62600000D02*
X43400000Y-62600000D01*
X35800000Y-66100000D02*
X35100000Y-66100000D01*
X39400000Y-66600000D02*
X39400000Y-66700000D01*
%TO.N,PROT_VCC*%
X82500000Y-56400000D02*
X82500000Y-55800000D01*
X79700000Y-52500000D02*
X79200000Y-53000000D01*
X86800000Y-70000000D02*
X86825000Y-70000000D01*
X81900000Y-57000000D02*
X82500000Y-56400000D01*
X80000000Y-52000000D02*
X79700000Y-52300000D01*
X81100000Y-57000000D02*
X81900000Y-57000000D01*
X79200000Y-53000000D02*
X79225000Y-53000000D01*
X81137500Y-57000000D02*
X81100000Y-57000000D01*
X87800000Y-68500000D02*
X86800000Y-69700000D01*
X86800000Y-69700000D02*
X86800000Y-70000000D01*
X79700000Y-52300000D02*
X79700000Y-52500000D01*
%TO.N,FAULT_G*%
X35800000Y-60500000D02*
X35825000Y-60500000D01*
X35400000Y-56000000D02*
X38100000Y-56000000D01*
X34900000Y-57700000D02*
X35800000Y-58600000D01*
X35800000Y-58600000D02*
X35800000Y-60500000D01*
X34175000Y-57000000D02*
X34200000Y-57000000D01*
X34200000Y-57000000D02*
X34900000Y-57700000D01*
X34900000Y-57700000D02*
X34900000Y-56500000D01*
X38100000Y-56000000D02*
X38062500Y-56050000D01*
X34900000Y-56500000D02*
X35400000Y-56000000D01*
%TO.N,OUT_CC1*%
X74400000Y-77500000D02*
X74800000Y-77100000D01*
D39*
X74350000Y-77500000D02*
X74400000Y-77500000D01*
D44*
X84250000Y-87800000D02*
X84250000Y-88650000D01*
D36*
X74800000Y-75000000D02*
X74825000Y-75000000D01*
D44*
X83150000Y-87550000D02*
X84100000Y-87650000D01*
X82750000Y-87150000D02*
X83150000Y-87550000D01*
X76525000Y-79625000D02*
X82700000Y-79625000D01*
D36*
X74800000Y-77100000D02*
X74800000Y-75000000D01*
D44*
X84100000Y-87650000D02*
X84250000Y-87800000D01*
X74400000Y-77500000D02*
X76525000Y-79625000D01*
%TO.N,OUT_CC2*%
D36*
X88400000Y-77500000D02*
X88800000Y-77100000D01*
D44*
X84100000Y-83225000D02*
X84100000Y-84300000D01*
X88750000Y-78200000D02*
X88650000Y-78675000D01*
D36*
X88800000Y-77100000D02*
X88800000Y-75000000D01*
D44*
X81425000Y-87675000D02*
X81250000Y-87850000D01*
D36*
X88800000Y-75000000D02*
X88825000Y-75000000D01*
D44*
X81725000Y-87600000D02*
X81425000Y-87675000D01*
X81250000Y-87850000D02*
X81250000Y-88650000D01*
X88650000Y-78675000D02*
X84100000Y-83225000D01*
X88300000Y-77625000D02*
X88750000Y-78200000D01*
D39*
X88350000Y-77500000D02*
X88400000Y-77500000D01*
D44*
X84100000Y-84300000D02*
X84325000Y-84525000D01*
X81950000Y-87375000D02*
X81725000Y-87600000D01*
%TO.N,OUT_G*%
D36*
X71300000Y-60000000D02*
X71325000Y-59980000D01*
X69600000Y-56200000D02*
X70000000Y-56600000D01*
X70600000Y-59000000D02*
X71300000Y-59700000D01*
X71300000Y-59700000D02*
X71300000Y-60000000D01*
X69600000Y-56200000D02*
X68600000Y-56200000D01*
X68600000Y-56200000D02*
X66700000Y-54300000D01*
X70700000Y-54300000D02*
X70675000Y-54340000D01*
X69600000Y-56200000D02*
X70700000Y-55100000D01*
X66700000Y-54300000D02*
X66725000Y-54340000D01*
X70000000Y-56600000D02*
X70000000Y-57100000D01*
X70700000Y-55100000D02*
X70700000Y-54300000D01*
X69562500Y-56210000D02*
X69600000Y-56200000D01*
%TO.N,VOUT*%
D40*
X62500000Y-60500000D02*
X61500000Y-59475000D01*
D36*
X48500000Y-57600000D02*
X48500000Y-57700000D01*
D40*
X61900000Y-62200000D02*
X62000000Y-62100000D01*
D43*
X49000000Y-57300000D02*
X48500000Y-57000000D01*
D44*
X49000000Y-57500000D02*
X48500000Y-58000000D01*
D36*
X48500000Y-57400000D02*
X48500000Y-57500000D01*
D40*
X62200000Y-61500000D02*
X62300000Y-61400000D01*
X61900000Y-62800000D02*
X61900000Y-62200000D01*
D36*
X48500000Y-57700000D02*
X48500000Y-57800000D01*
X48500000Y-57000000D02*
X48500000Y-58000000D01*
D40*
X62200000Y-61600000D02*
X62200000Y-61500000D01*
D36*
X48500000Y-57900000D02*
X48500000Y-58000000D01*
D40*
X62500000Y-61100000D02*
X62500000Y-60500000D01*
X62100000Y-61700000D02*
X62200000Y-61600000D01*
D43*
X49000000Y-57500000D02*
X49000000Y-57300000D01*
D40*
X62300000Y-61400000D02*
X62300000Y-61300000D01*
D36*
X48500000Y-57000000D02*
X48500000Y-57400000D01*
D40*
X62000000Y-62100000D02*
X62000000Y-61900000D01*
X62000000Y-61900000D02*
X62100000Y-61800000D01*
X62300000Y-61300000D02*
X62500000Y-61100000D01*
D43*
X52200000Y-58450000D02*
X52500000Y-59000000D01*
D36*
X48500000Y-57800000D02*
X48500000Y-57900000D01*
D40*
X62100000Y-61800000D02*
X62100000Y-61700000D01*
D36*
X48500000Y-57500000D02*
X48500000Y-57600000D01*
%TO.N,BAT*%
D41*
X61475000Y-66135000D02*
X65500000Y-66135000D01*
D43*
X82000000Y-63500000D02*
X88500000Y-63500000D01*
X88500000Y-63500000D02*
X93000000Y-59000000D01*
D41*
X65500000Y-66135000D02*
X65500000Y-67400000D01*
D40*
X65500000Y-67400000D02*
X66600000Y-68500000D01*
X66600000Y-68500000D02*
X67600000Y-68500000D01*
%TO.N,BTN*%
D36*
X79600000Y-74100000D02*
X85100000Y-74100000D01*
X86400000Y-67600000D02*
X86400000Y-67500000D01*
X72700000Y-85000000D02*
X72100000Y-85000000D01*
X86400000Y-67500000D02*
X86900000Y-67000000D01*
X62700000Y-86800000D02*
X59700000Y-86800000D01*
X79100000Y-73600000D02*
X79600000Y-74100000D01*
X72200000Y-82400000D02*
X73200000Y-83400000D01*
X59200000Y-77000000D02*
X64300000Y-71900000D01*
X71500000Y-85600000D02*
X63900000Y-85600000D01*
X85400000Y-66500000D02*
X85400000Y-66200000D01*
X55000000Y-85900000D02*
X55000000Y-85875000D01*
X72200000Y-73600000D02*
X79100000Y-73600000D01*
X56900000Y-84000000D02*
X55000000Y-85900000D01*
X64300000Y-71900000D02*
X67500000Y-71900000D01*
X72200000Y-73600000D02*
X72200000Y-82400000D01*
X86900000Y-67000000D02*
X89600000Y-67000000D01*
X69300000Y-73600000D02*
X72200000Y-73600000D01*
X85200000Y-66000000D02*
X85175000Y-66000000D01*
X63900000Y-85600000D02*
X62700000Y-86800000D01*
X85100000Y-68800000D02*
X86400000Y-67600000D01*
X69200000Y-73500000D02*
X69300000Y-73600000D01*
X86400000Y-67500000D02*
X85400000Y-66500000D01*
X85400000Y-66200000D02*
X85200000Y-66000000D01*
X59700000Y-86800000D02*
X56900000Y-84000000D01*
X89600000Y-67000000D02*
X89562500Y-67050000D01*
X72100000Y-85000000D02*
X71500000Y-85600000D01*
X73200000Y-83400000D02*
X73200000Y-84500000D01*
X55000000Y-82100000D02*
X55000000Y-82125000D01*
X59175000Y-77000000D02*
X59200000Y-77000000D01*
X69100000Y-73500000D02*
X69200000Y-73500000D01*
X56900000Y-84000000D02*
X55000000Y-82100000D01*
X73200000Y-84500000D02*
X72700000Y-85000000D01*
X67500000Y-71900000D02*
X69100000Y-73500000D01*
%TO.N,SET_D*%
X91437500Y-68000000D02*
X91400000Y-68000000D01*
X91200000Y-74500000D02*
X91175000Y-74500000D01*
X92400000Y-69000000D02*
X96300000Y-69000000D01*
X98400000Y-75400000D02*
X92100000Y-75400000D01*
X91400000Y-68000000D02*
X92400000Y-69000000D01*
X99300000Y-72000000D02*
X99300000Y-74500000D01*
X92100000Y-75400000D02*
X91200000Y-74500000D01*
X99300000Y-74500000D02*
X98400000Y-75400000D01*
X96300000Y-69000000D02*
X99300000Y-72000000D01*
%TO.N,ADV_3A*%
X37700000Y-64700000D02*
X36900000Y-63600000D01*
X40300000Y-64400000D02*
X39700000Y-64400000D01*
X36900000Y-63600000D02*
X35800000Y-63600000D01*
X35200000Y-61500000D02*
X34200000Y-60500000D01*
X34200000Y-60500000D02*
X34175000Y-60500000D01*
X39300000Y-63500000D02*
X39300000Y-63200000D01*
X38800000Y-63600000D02*
X36700000Y-61500000D01*
X40766700Y-64865000D02*
X40800000Y-64900000D01*
X39700000Y-64400000D02*
X39300000Y-64000000D01*
X39200000Y-63600000D02*
X38800000Y-63600000D01*
X40800000Y-64900000D02*
X40300000Y-64400000D01*
X39300000Y-64000000D02*
X39300000Y-63500000D01*
X39300000Y-63200000D02*
X41000000Y-61500000D01*
X42800000Y-61500000D02*
X43800000Y-60500000D01*
X39300000Y-63500000D02*
X39200000Y-63600000D01*
X41000000Y-61500000D02*
X42800000Y-61500000D01*
X36700000Y-61500000D02*
X35200000Y-61500000D01*
X43800000Y-60500000D02*
X43825000Y-60500000D01*
%TO.N,CC1*%
X35816700Y-64865000D02*
X35800000Y-64900000D01*
X39500000Y-74300000D02*
X39600000Y-74400000D01*
X36800000Y-65300000D02*
X39700000Y-68200000D01*
X39700000Y-76500000D02*
X39675000Y-76500000D01*
D44*
X47150000Y-87550000D02*
X48100000Y-87650000D01*
X48250000Y-87800000D02*
X48250000Y-88650000D01*
X48100000Y-87650000D02*
X48250000Y-87800000D01*
D36*
X39700000Y-68200000D02*
X39700000Y-73400000D01*
X40800000Y-78800000D02*
X40900000Y-78900000D01*
X35800000Y-64900000D02*
X36200000Y-65300000D01*
X39500000Y-73600000D02*
X39500000Y-74300000D01*
X40800000Y-77600000D02*
X40800000Y-78800000D01*
X36200000Y-65300000D02*
X36800000Y-65300000D01*
D44*
X45625000Y-83775000D02*
X45578200Y-84448000D01*
D36*
X39600000Y-74400000D02*
X39600000Y-74500000D01*
D44*
X46750000Y-87150000D02*
X47150000Y-87550000D01*
X40850000Y-79000000D02*
X45625000Y-83775000D01*
D36*
X39700000Y-73400000D02*
X39500000Y-73600000D01*
X39700000Y-76500000D02*
X40800000Y-77600000D01*
X39600000Y-74500000D02*
X39700000Y-74600000D01*
X39700000Y-74600000D02*
X39700000Y-76500000D01*
%TO.N,CC2*%
D44*
X45425000Y-87675000D02*
X45250000Y-87850000D01*
D36*
X50500000Y-68800000D02*
X51300000Y-69400000D01*
D44*
X45950000Y-87375000D02*
X45725000Y-87600000D01*
D36*
X52700000Y-73000000D02*
X52700000Y-76500000D01*
X42600000Y-67600000D02*
X44000000Y-69000000D01*
X40800000Y-66100000D02*
X41300000Y-66100000D01*
D44*
X48325000Y-82575000D02*
X48325000Y-84525000D01*
D36*
X40766700Y-66135000D02*
X40800000Y-66100000D01*
X48400000Y-69000000D02*
X48600000Y-68800000D01*
D44*
X52400000Y-78300000D02*
X48325000Y-82575000D01*
D36*
X51300000Y-71600000D02*
X52700000Y-73000000D01*
X52700000Y-76500000D02*
X52675000Y-76500000D01*
X42600000Y-67400000D02*
X42600000Y-67600000D01*
X52400000Y-78300000D02*
X53600000Y-78300000D01*
X53600000Y-78300000D02*
X53800000Y-78500000D01*
X41300000Y-66100000D02*
X42600000Y-67400000D01*
X53800000Y-78500000D02*
X53800000Y-78800000D01*
X44000000Y-69000000D02*
X48400000Y-69000000D01*
X53800000Y-78800000D02*
X53900000Y-78900000D01*
D44*
X45725000Y-87600000D02*
X45425000Y-87675000D01*
D36*
X48600000Y-68800000D02*
X50500000Y-68800000D01*
D44*
X45250000Y-87850000D02*
X45250000Y-88650000D01*
%TO.N,BAT_DAMP*%
D36*
X81440000Y-66000000D02*
X81400000Y-66000000D01*
X83000000Y-67600000D02*
X83000000Y-70000000D01*
X81400000Y-66000000D02*
X83000000Y-67600000D01*
%TO.N,LED2*%
X63200000Y-81500000D02*
X63200000Y-83000000D01*
X62800000Y-81100000D02*
X63200000Y-81500000D01*
X72300000Y-84000000D02*
X72300000Y-83600000D01*
X63200000Y-85000000D02*
X71300000Y-85000000D01*
X56000000Y-66600000D02*
X55300000Y-66600000D01*
X56500000Y-66100000D02*
X56000000Y-66600000D01*
X53900000Y-68000000D02*
X53900000Y-68200000D01*
X72300000Y-83600000D02*
X71700000Y-83000000D01*
X61600000Y-79000000D02*
X62800000Y-80200000D01*
X73800000Y-82900000D02*
X74200000Y-83300000D01*
X71300000Y-85000000D02*
X72300000Y-84000000D01*
X62800000Y-80200000D02*
X62800000Y-81100000D01*
X62800000Y-84600000D02*
X63200000Y-85000000D01*
X56525000Y-66135000D02*
X56500000Y-66100000D01*
X74200000Y-83300000D02*
X74200000Y-84000000D01*
X55300000Y-66600000D02*
X53900000Y-68000000D01*
X63200000Y-83000000D02*
X62800000Y-83400000D01*
X53900000Y-68200000D02*
X53700000Y-68400000D01*
X53700000Y-68400000D02*
X53700000Y-68500000D01*
X62800000Y-83400000D02*
X62800000Y-84600000D01*
X53700000Y-68500000D02*
X53000000Y-69200000D01*
%TO.N,KEY*%
X60800000Y-77000000D02*
X62800000Y-77000000D01*
X61500000Y-69000000D02*
X61500000Y-67400000D01*
X61500000Y-67400000D02*
X61475000Y-67405000D01*
X63800000Y-71300000D02*
X61500000Y-69000000D01*
X60825000Y-77000000D02*
X60800000Y-77000000D01*
X62800000Y-77000000D02*
X64100000Y-78200000D01*
%TO.N,SW*%
D40*
X64000000Y-62500000D02*
X67600000Y-62500000D01*
D41*
X61475000Y-64865000D02*
X64000000Y-64864999D01*
D40*
X64000000Y-63600000D02*
X64000000Y-62500000D01*
D41*
X64000000Y-64864999D02*
X64000000Y-63600000D01*
%TO.N,FAULT_K*%
D36*
X50600000Y-54600000D02*
X50600000Y-59800000D01*
X61400000Y-75900000D02*
X64000000Y-75900000D01*
X64000000Y-75900000D02*
X64700000Y-75200000D01*
X67900000Y-77900000D02*
X67900000Y-78000000D01*
X42500000Y-54600000D02*
X50600000Y-54600000D01*
X68000000Y-77800000D02*
X67900000Y-77900000D01*
X65700000Y-81500000D02*
X64700000Y-81500000D01*
X66200000Y-81000000D02*
X65700000Y-81500000D01*
X39900000Y-57000000D02*
X40100000Y-57000000D01*
X40100000Y-57000000D02*
X42500000Y-54600000D01*
X66100000Y-75200000D02*
X68000000Y-77100000D01*
X67900000Y-78000000D02*
X66200000Y-79700000D01*
X50600000Y-59800000D02*
X52500000Y-61700000D01*
X66200000Y-79700000D02*
X66200000Y-81000000D01*
X64700000Y-81500000D02*
X63700000Y-80500000D01*
X64700000Y-75200000D02*
X66100000Y-75200000D01*
X39937500Y-57000000D02*
X39900000Y-57000000D01*
X52500000Y-61700000D02*
X52500000Y-67000000D01*
X68000000Y-77100000D02*
X68000000Y-77800000D01*
%TO.N,VIN_G*%
X49600000Y-69600000D02*
X49562500Y-69550000D01*
X46200000Y-60500000D02*
X47000000Y-59500000D01*
X38800000Y-61500000D02*
X39800000Y-60500000D01*
X46225000Y-60500000D02*
X46200000Y-60500000D01*
X42200000Y-60300000D02*
X42200000Y-60500000D01*
X39800000Y-60500000D02*
X39825000Y-60500000D01*
X37700000Y-59500000D02*
X37300000Y-59900000D01*
X42200000Y-60500000D02*
X42175000Y-60500000D01*
X49600000Y-70000000D02*
X49600000Y-69600000D01*
X38100000Y-59500000D02*
X37700000Y-59500000D01*
X38600000Y-59000000D02*
X38100000Y-59500000D01*
X43000000Y-59500000D02*
X42200000Y-60300000D01*
X37300000Y-59900000D02*
X37300000Y-61000000D01*
X37300000Y-61000000D02*
X37800000Y-61500000D01*
X37800000Y-61500000D02*
X38800000Y-61500000D01*
X50000000Y-70400000D02*
X49600000Y-70000000D01*
%TO.N,VBUS_DAMP*%
X40500000Y-68900000D02*
X43100000Y-68900000D01*
X44400000Y-70200000D02*
X44400000Y-70500000D01*
X37900000Y-70500000D02*
X38900000Y-69300000D01*
X37940000Y-70500000D02*
X37900000Y-70500000D01*
X43100000Y-68900000D02*
X44400000Y-70200000D01*
%TO.N,FAULT_A*%
X48100000Y-68200000D02*
X49300000Y-68000000D01*
X51200000Y-64600000D02*
X51200000Y-63300000D01*
X63000000Y-78200000D02*
X55400000Y-78200000D01*
X49700000Y-67600000D02*
X49700000Y-66100000D01*
X54200000Y-77500000D02*
X52300000Y-77500000D01*
X49300000Y-68000000D02*
X49700000Y-67600000D01*
X55200000Y-78000000D02*
X55100000Y-78000000D01*
X54900000Y-77800000D02*
X54800000Y-77800000D01*
X54500000Y-77600000D02*
X54300000Y-77600000D01*
X48700000Y-73900000D02*
X48700000Y-73000000D01*
X54700000Y-77700000D02*
X54600000Y-77700000D01*
X54800000Y-77800000D02*
X54700000Y-77700000D01*
X49700000Y-66100000D02*
X51200000Y-64600000D01*
X54600000Y-77700000D02*
X54500000Y-77600000D01*
X45600000Y-61400000D02*
X44700000Y-60500000D01*
X65300000Y-80500000D02*
X63000000Y-78200000D01*
X51200000Y-63300000D02*
X49300000Y-61400000D01*
X44700000Y-59900000D02*
X43800000Y-59000000D01*
X52300000Y-77500000D02*
X48700000Y-73900000D01*
X43800000Y-59000000D02*
X43800000Y-57000000D01*
X55100000Y-78000000D02*
X54900000Y-77800000D01*
X44700000Y-60500000D02*
X44700000Y-59900000D01*
X54300000Y-77600000D02*
X54200000Y-77500000D01*
X43800000Y-57000000D02*
X43825000Y-57000000D01*
X49300000Y-61400000D02*
X45600000Y-61400000D01*
X55400000Y-78200000D02*
X55200000Y-78000000D01*
%TO.N,PROT_D3*%
D45*
X84350000Y-55025000D02*
X88650000Y-55025000D01*
X88650000Y-55025000D02*
X88650000Y-56025000D01*
X84350000Y-56025000D02*
X84350000Y-55025000D01*
%TO.N,PROT_OD*%
D36*
X84400000Y-54000000D02*
X84350000Y-53975000D01*
X82600000Y-53000000D02*
X83600000Y-54000000D01*
X84400000Y-58000000D02*
X84350000Y-57975000D01*
X83600000Y-54000000D02*
X84400000Y-54000000D01*
X82200000Y-53100000D02*
X82300000Y-53000000D01*
X79600000Y-55600000D02*
X79700000Y-55600000D01*
X79300000Y-55600000D02*
X79300000Y-55200000D01*
X79300000Y-55200000D02*
X79500000Y-55500000D01*
X83200000Y-58000000D02*
X84400000Y-58000000D01*
X78900000Y-56000000D02*
X79300000Y-55600000D01*
X83700000Y-50000000D02*
X84400000Y-50000000D01*
X78862500Y-56050000D02*
X78900000Y-56000000D01*
X82200000Y-51500000D02*
X83700000Y-50000000D01*
X82200000Y-53100000D02*
X82200000Y-51500000D01*
X79500000Y-55500000D02*
X79600000Y-55600000D01*
X82300000Y-53000000D02*
X82600000Y-53000000D01*
X79700000Y-55600000D02*
X82200000Y-53100000D01*
X84400000Y-50000000D02*
X84350000Y-49975000D01*
%TO.N,PROT_OC*%
X88600000Y-58000000D02*
X88650000Y-57975000D01*
X89600000Y-50700000D02*
X88900000Y-50000000D01*
X88600000Y-50000000D02*
X88650000Y-49975000D01*
X80500000Y-58800000D02*
X87800000Y-58800000D01*
X79200000Y-58000000D02*
X79800000Y-58600000D01*
X80200000Y-58600000D02*
X80300000Y-58700000D01*
X89700000Y-54600000D02*
X89100000Y-54000000D01*
X78900000Y-58000000D02*
X79200000Y-58000000D01*
X80400000Y-58700000D02*
X80500000Y-58800000D01*
X87800000Y-58800000D02*
X88600000Y-58000000D01*
X89100000Y-54000000D02*
X88600000Y-54000000D01*
X78862500Y-57950000D02*
X78900000Y-58000000D01*
X79800000Y-58600000D02*
X80200000Y-58600000D01*
X80300000Y-58700000D02*
X80400000Y-58700000D01*
X88600000Y-54000000D02*
X88650000Y-53975000D01*
X88600000Y-58000000D02*
X89400000Y-58700000D01*
X88900000Y-50000000D02*
X88600000Y-50000000D01*
%TO.N,PROT_D5*%
D45*
X84350000Y-47025000D02*
X88650000Y-47025000D01*
X84350000Y-48025000D02*
X84350000Y-47025000D01*
X88650000Y-47025000D02*
X88650000Y-48025000D01*
%TO.N,PROT_D4*%
X88650000Y-51025000D02*
X88650000Y-52025000D01*
X84350000Y-51025000D02*
X88650000Y-51025000D01*
X84350000Y-52025000D02*
X84350000Y-51025000D01*
%TO.N,PROT_VM*%
D36*
X80825000Y-49000000D02*
X80800000Y-49000000D01*
X77600000Y-56400000D02*
X78200000Y-57000000D01*
X79900000Y-48100000D02*
X78600000Y-48100000D01*
X80800000Y-49000000D02*
X79900000Y-48100000D01*
X77600000Y-49100000D02*
X77600000Y-56400000D01*
X78200000Y-57000000D02*
X78900000Y-57000000D01*
X78900000Y-57000000D02*
X78862500Y-57000000D01*
X78600000Y-48100000D02*
X77600000Y-49100000D01*
%TD*%
%TA.AperFunction,Conductor*%
%TO.N,BAT*%
G36*
X91215908Y-62004843D02*
G01*
X91228595Y-62008966D01*
X91278095Y-62044927D01*
X91278096Y-62044928D01*
X91281091Y-62049050D01*
X91300000Y-62107240D01*
X91300000Y-67434819D01*
X91295154Y-67465412D01*
X91291032Y-67478098D01*
X91255080Y-67527589D01*
X91250959Y-67530584D01*
X91192771Y-67549500D01*
X90804764Y-67549500D01*
X90802885Y-67549761D01*
X90780014Y-67552412D01*
X90780006Y-67552414D01*
X90677237Y-67597792D01*
X90597794Y-67677235D01*
X90552413Y-67780013D01*
X90549500Y-67805123D01*
X90549500Y-68195234D01*
X90549761Y-68197114D01*
X90552412Y-68219987D01*
X90552413Y-68219990D01*
X90553913Y-68223386D01*
X90553914Y-68223388D01*
X90597792Y-68322762D01*
X90597793Y-68322763D01*
X90597794Y-68322765D01*
X90677235Y-68402206D01*
X90780009Y-68447585D01*
X90805135Y-68450500D01*
X91185319Y-68450499D01*
X91215905Y-68455342D01*
X91221684Y-68457219D01*
X91228592Y-68459463D01*
X91278094Y-68495424D01*
X91278096Y-68495427D01*
X91281091Y-68499549D01*
X91300000Y-68557739D01*
X91300000Y-70259819D01*
X91295154Y-70290412D01*
X91291032Y-70303098D01*
X91255080Y-70352589D01*
X91250959Y-70355584D01*
X91192771Y-70374500D01*
X90964363Y-70374500D01*
X90920568Y-70380880D01*
X90920567Y-70380879D01*
X90891375Y-70385133D01*
X90778792Y-70440171D01*
X90690172Y-70528791D01*
X90635134Y-70641372D01*
X90634377Y-70644644D01*
X90634100Y-70648471D01*
X90629285Y-70681521D01*
X90624500Y-70714364D01*
X90624500Y-71285636D01*
X90629866Y-71322465D01*
X90635134Y-71358626D01*
X90659182Y-71407816D01*
X90690174Y-71471211D01*
X90778789Y-71559826D01*
X90854895Y-71597032D01*
X90880247Y-71614817D01*
X90892568Y-71626738D01*
X90919804Y-71673985D01*
X90921570Y-71681082D01*
X90924500Y-71704988D01*
X90924500Y-71785319D01*
X90919654Y-71815912D01*
X90915532Y-71828598D01*
X90879580Y-71878089D01*
X90875459Y-71881084D01*
X90817271Y-71900000D01*
X67946303Y-71900000D01*
X67915710Y-71895154D01*
X67892483Y-71887607D01*
X67853073Y-71863457D01*
X67656061Y-71666446D01*
X67656058Y-71666443D01*
X67554800Y-71624500D01*
X67554799Y-71624500D01*
X66364680Y-71624500D01*
X66334087Y-71619654D01*
X66321401Y-71615532D01*
X66271901Y-71579568D01*
X66271894Y-71579558D01*
X66268900Y-71575436D01*
X66250000Y-71517256D01*
X66250000Y-69318476D01*
X78749500Y-69318476D01*
X78749500Y-70682237D01*
X78750081Y-70685190D01*
X78764352Y-70775298D01*
X78764362Y-70775322D01*
X78821948Y-70888339D01*
X78821950Y-70888342D01*
X78911658Y-70978050D01*
X79024696Y-71035646D01*
X79118481Y-71050500D01*
X79831518Y-71050499D01*
X79831520Y-71050499D01*
X79836593Y-71050499D01*
X79843093Y-71048665D01*
X79878411Y-71043072D01*
X79878412Y-71043072D01*
X79917611Y-71036865D01*
X79921501Y-71036558D01*
X79921513Y-71036556D01*
X79924804Y-71035901D01*
X80011822Y-70991563D01*
X80015408Y-70990994D01*
X80046036Y-70975381D01*
X80046038Y-70975383D01*
X80061632Y-70967434D01*
X80122055Y-70957853D01*
X80129326Y-70959003D01*
X80174113Y-70978243D01*
X80244158Y-71031991D01*
X80360793Y-71121488D01*
X80382114Y-71143955D01*
X80398313Y-71167525D01*
X80412349Y-71197971D01*
X80418182Y-71219738D01*
X80418183Y-71219741D01*
X80477488Y-71322460D01*
X80477490Y-71322462D01*
X80477492Y-71322465D01*
X80561368Y-71406341D01*
X80561370Y-71406342D01*
X80561477Y-71406449D01*
X80561727Y-71406635D01*
X80563915Y-71407812D01*
X80661350Y-71464066D01*
X80663751Y-71465558D01*
X80664092Y-71465649D01*
X80664095Y-71465651D01*
X80778672Y-71496352D01*
X80778674Y-71496352D01*
X80897288Y-71496352D01*
X80897290Y-71496352D01*
X81011867Y-71465651D01*
X81011868Y-71465650D01*
X81011870Y-71465649D01*
X81011871Y-71465649D01*
X81108454Y-71409886D01*
X81111342Y-71408483D01*
X81112126Y-71407967D01*
X81117143Y-71404868D01*
X81118441Y-71404118D01*
X81123799Y-71397135D01*
X81198470Y-71322465D01*
X81198473Y-71322460D01*
X81257778Y-71219742D01*
X81257778Y-71219740D01*
X81257780Y-71219738D01*
X81288481Y-71105161D01*
X81288481Y-70986543D01*
X81257780Y-70871966D01*
X81257778Y-70871963D01*
X81257778Y-70871961D01*
X81257777Y-70871960D01*
X81257687Y-70871622D01*
X81256205Y-70869236D01*
X81199941Y-70771786D01*
X81198764Y-70769598D01*
X81198578Y-70769348D01*
X81198471Y-70769241D01*
X81198470Y-70769239D01*
X81114594Y-70685363D01*
X81114591Y-70685361D01*
X81114589Y-70685359D01*
X81114587Y-70685357D01*
X81069157Y-70659128D01*
X81048123Y-70635767D01*
X80972755Y-70615573D01*
X80972180Y-70615419D01*
X80897290Y-70595352D01*
X80897289Y-70595352D01*
X80875923Y-70595352D01*
X80845329Y-70590506D01*
X80818133Y-70581669D01*
X80788460Y-70566057D01*
X80251673Y-70154165D01*
X80230351Y-70131697D01*
X80217910Y-70113595D01*
X80200499Y-70057521D01*
X80200499Y-69317764D01*
X80199917Y-69314807D01*
X80186865Y-69232389D01*
X80186559Y-69228505D01*
X80186556Y-69228492D01*
X80185900Y-69225195D01*
X80182339Y-69218207D01*
X80128050Y-69111658D01*
X80038342Y-69021950D01*
X80024822Y-69015061D01*
X79984243Y-68994385D01*
X79959652Y-68969793D01*
X79831524Y-68949500D01*
X79831521Y-68949500D01*
X79118479Y-68949500D01*
X79118473Y-68949500D01*
X79118424Y-68949508D01*
X79118061Y-68949566D01*
X79024700Y-68964352D01*
X79024676Y-68964362D01*
X78911661Y-69021947D01*
X78821948Y-69111660D01*
X78764354Y-69224693D01*
X78749500Y-69318476D01*
X66250000Y-69318476D01*
X66250000Y-65318476D01*
X78749500Y-65318476D01*
X78749500Y-66682237D01*
X78750081Y-66685190D01*
X78764352Y-66775298D01*
X78764362Y-66775322D01*
X78816508Y-66877662D01*
X78821950Y-66888342D01*
X78911658Y-66978050D01*
X79024696Y-67035646D01*
X79118481Y-67050500D01*
X79831518Y-67050499D01*
X79831520Y-67050499D01*
X79853409Y-67050499D01*
X79863280Y-67045468D01*
X79895407Y-67040380D01*
X79900664Y-67041213D01*
X79933612Y-67035982D01*
X79933613Y-67035983D01*
X79949238Y-67033502D01*
X80009669Y-67043050D01*
X80021541Y-67049093D01*
X80046636Y-67067317D01*
X80206166Y-67226847D01*
X80221900Y-67247354D01*
X80234487Y-67269157D01*
X80244373Y-67293021D01*
X80247446Y-67304485D01*
X80247447Y-67304496D01*
X80247449Y-67304496D01*
X80265741Y-67372764D01*
X80270012Y-67388701D01*
X80317637Y-67471190D01*
X80329316Y-67491417D01*
X80329318Y-67491419D01*
X80329320Y-67491422D01*
X80413196Y-67575298D01*
X80413198Y-67575299D01*
X80413305Y-67575406D01*
X80413555Y-67575592D01*
X80415743Y-67576769D01*
X80513178Y-67633023D01*
X80515579Y-67634515D01*
X80515920Y-67634606D01*
X80515923Y-67634608D01*
X80630500Y-67665309D01*
X80630502Y-67665309D01*
X80749116Y-67665309D01*
X80749118Y-67665309D01*
X80863695Y-67634608D01*
X80863696Y-67634607D01*
X80863698Y-67634606D01*
X80863699Y-67634606D01*
X80960282Y-67578843D01*
X80963170Y-67577440D01*
X80963954Y-67576924D01*
X80968971Y-67573825D01*
X80970269Y-67573075D01*
X80975627Y-67566092D01*
X81050298Y-67491422D01*
X81050301Y-67491417D01*
X81109606Y-67388699D01*
X81109606Y-67388697D01*
X81109608Y-67388695D01*
X81140309Y-67274118D01*
X81140309Y-67155500D01*
X81109608Y-67040923D01*
X81109606Y-67040919D01*
X81107679Y-67037581D01*
X81096577Y-67008663D01*
X81094208Y-66997516D01*
X81100604Y-66936668D01*
X81141543Y-66891199D01*
X81145778Y-66888754D01*
X81195264Y-66875499D01*
X81721522Y-66875499D01*
X81729429Y-66874246D01*
X81753159Y-66870488D01*
X81798108Y-66863369D01*
X81829072Y-66863369D01*
X81850392Y-66866745D01*
X81904907Y-66894522D01*
X82684417Y-67674032D01*
X82702622Y-67699090D01*
X82713709Y-67720849D01*
X82724500Y-67765795D01*
X82724500Y-69291844D01*
X82719654Y-69322439D01*
X82714356Y-69338743D01*
X82683873Y-69383957D01*
X82678271Y-69388662D01*
X82658081Y-69401793D01*
X82588521Y-69435799D01*
X82588519Y-69435800D01*
X82505800Y-69518519D01*
X82454427Y-69623604D01*
X82453670Y-69626875D01*
X82453393Y-69630703D01*
X82444500Y-69691742D01*
X82444500Y-70308257D01*
X82451118Y-70353683D01*
X82451117Y-70353683D01*
X82454425Y-70376388D01*
X82454428Y-70376398D01*
X82458699Y-70385133D01*
X82485607Y-70440173D01*
X82505802Y-70481483D01*
X82588517Y-70564198D01*
X82588518Y-70564198D01*
X82588519Y-70564199D01*
X82613567Y-70576444D01*
X82613568Y-70576445D01*
X82642331Y-70590506D01*
X82693388Y-70615466D01*
X82694092Y-70615814D01*
X82694164Y-70615850D01*
X82696604Y-70616309D01*
X82700693Y-70616605D01*
X82761740Y-70625500D01*
X82761743Y-70625500D01*
X83228257Y-70625500D01*
X83228260Y-70625500D01*
X83296393Y-70615573D01*
X83401483Y-70564198D01*
X83484198Y-70481483D01*
X83535573Y-70376393D01*
X83545500Y-70308260D01*
X83545500Y-69691740D01*
X86274500Y-69691740D01*
X86274500Y-69694974D01*
X86274500Y-70308257D01*
X86281118Y-70353683D01*
X86281117Y-70353683D01*
X86284425Y-70376388D01*
X86284428Y-70376398D01*
X86288699Y-70385133D01*
X86315607Y-70440173D01*
X86335802Y-70481483D01*
X86418517Y-70564198D01*
X86418518Y-70564198D01*
X86418519Y-70564199D01*
X86443567Y-70576444D01*
X86443568Y-70576445D01*
X86472331Y-70590506D01*
X86523388Y-70615466D01*
X86524092Y-70615814D01*
X86524164Y-70615850D01*
X86526604Y-70616309D01*
X86530693Y-70616605D01*
X86591740Y-70625500D01*
X86591743Y-70625500D01*
X87058257Y-70625500D01*
X87058260Y-70625500D01*
X87126393Y-70615573D01*
X87231483Y-70564198D01*
X87314198Y-70481483D01*
X87365573Y-70376393D01*
X87375500Y-70308260D01*
X87375500Y-69691740D01*
X87365573Y-69623607D01*
X87347636Y-69586917D01*
X87338555Y-69557308D01*
X87336279Y-69541221D01*
X87344490Y-69485705D01*
X87348185Y-69477737D01*
X87361939Y-69456015D01*
X87425349Y-69379925D01*
X87648905Y-69111658D01*
X87743485Y-68998162D01*
X87766787Y-68977767D01*
X87779454Y-68969793D01*
X87785924Y-68965720D01*
X87838667Y-68950500D01*
X87859307Y-68950500D01*
X87859309Y-68950500D01*
X87973886Y-68919799D01*
X87973887Y-68919798D01*
X87973889Y-68919797D01*
X87973890Y-68919797D01*
X88070473Y-68864034D01*
X88073361Y-68862631D01*
X88074145Y-68862115D01*
X88079162Y-68859016D01*
X88080460Y-68858266D01*
X88085818Y-68851283D01*
X88160489Y-68776613D01*
X88166361Y-68766443D01*
X88219797Y-68673890D01*
X88219797Y-68673888D01*
X88219799Y-68673886D01*
X88250500Y-68559309D01*
X88250500Y-68440691D01*
X88219799Y-68326114D01*
X88219797Y-68326111D01*
X88219797Y-68326109D01*
X88219796Y-68326108D01*
X88219706Y-68325770D01*
X88218224Y-68323384D01*
X88161960Y-68225934D01*
X88160783Y-68223746D01*
X88160597Y-68223496D01*
X88160490Y-68223389D01*
X88160489Y-68223387D01*
X88076613Y-68139511D01*
X88076610Y-68139509D01*
X88076608Y-68139507D01*
X88031175Y-68113276D01*
X88010142Y-68089916D01*
X87960352Y-68076574D01*
X87960351Y-68076574D01*
X87859309Y-68049500D01*
X87859307Y-68049500D01*
X87740692Y-68049500D01*
X87740691Y-68049500D01*
X87705629Y-68058894D01*
X87670566Y-68068289D01*
X87670565Y-68068288D01*
X87626111Y-68080200D01*
X87626108Y-68080201D01*
X87523393Y-68139505D01*
X87439505Y-68223393D01*
X87380203Y-68326105D01*
X87378490Y-68332496D01*
X87365708Y-68380201D01*
X87365707Y-68380202D01*
X87365707Y-68380203D01*
X87349818Y-68439507D01*
X87349500Y-68440692D01*
X87349500Y-68440693D01*
X87349500Y-68551931D01*
X87347842Y-68569976D01*
X87342483Y-68598885D01*
X87321195Y-68644218D01*
X86752352Y-69326833D01*
X86729046Y-69347231D01*
X86709912Y-69359278D01*
X86657167Y-69374500D01*
X86591736Y-69374500D01*
X86557670Y-69379463D01*
X86557669Y-69379462D01*
X86523606Y-69384426D01*
X86523604Y-69384426D01*
X86418520Y-69435799D01*
X86335800Y-69518519D01*
X86284427Y-69623604D01*
X86283670Y-69626875D01*
X86283457Y-69629809D01*
X86283492Y-69630002D01*
X86283430Y-69630446D01*
X86274500Y-69691740D01*
X83545500Y-69691740D01*
X83535573Y-69623607D01*
X83517638Y-69586921D01*
X83510483Y-69572285D01*
X83484198Y-69518517D01*
X83401483Y-69435802D01*
X83401481Y-69435801D01*
X83401480Y-69435800D01*
X83345103Y-69408238D01*
X83319752Y-69390453D01*
X83308868Y-69379924D01*
X83307432Y-69378534D01*
X83280194Y-69331280D01*
X83278426Y-69324175D01*
X83275500Y-69300281D01*
X83275500Y-67545198D01*
X83233559Y-67443943D01*
X82776683Y-66987066D01*
X82758478Y-66962009D01*
X82754737Y-66954667D01*
X82745165Y-66894235D01*
X82772942Y-66839718D01*
X82827456Y-66811940D01*
X82827465Y-66811939D01*
X82842946Y-66810721D01*
X82842947Y-66810721D01*
X82887891Y-66821511D01*
X82964696Y-66860646D01*
X83058481Y-66875500D01*
X83621518Y-66875499D01*
X83621520Y-66875499D01*
X83621521Y-66875498D01*
X83668411Y-66868072D01*
X83715299Y-66860647D01*
X83715301Y-66860647D01*
X83715302Y-66860646D01*
X83715304Y-66860646D01*
X83748175Y-66843896D01*
X83777624Y-66834327D01*
X83794307Y-66831685D01*
X83848868Y-66838506D01*
X83855985Y-66841564D01*
X83856668Y-66841964D01*
X83856974Y-66841996D01*
X83857449Y-66842422D01*
X83877171Y-66853982D01*
X84077193Y-67007464D01*
X84098513Y-67029930D01*
X84114711Y-67053497D01*
X84128750Y-67083947D01*
X84134583Y-67105714D01*
X84134584Y-67105717D01*
X84193889Y-67208436D01*
X84193891Y-67208438D01*
X84193893Y-67208441D01*
X84277769Y-67292317D01*
X84277771Y-67292318D01*
X84277878Y-67292425D01*
X84278128Y-67292611D01*
X84280316Y-67293788D01*
X84377751Y-67350042D01*
X84380152Y-67351534D01*
X84380493Y-67351625D01*
X84380496Y-67351627D01*
X84495073Y-67382328D01*
X84495075Y-67382328D01*
X84613689Y-67382328D01*
X84613691Y-67382328D01*
X84728268Y-67351627D01*
X84728269Y-67351626D01*
X84728271Y-67351625D01*
X84728272Y-67351625D01*
X84824855Y-67295862D01*
X84827743Y-67294459D01*
X84828527Y-67293943D01*
X84833544Y-67290844D01*
X84834842Y-67290094D01*
X84840200Y-67283111D01*
X84914871Y-67208441D01*
X84974181Y-67105714D01*
X85004882Y-66991137D01*
X85004882Y-66872519D01*
X84978636Y-66774568D01*
X84975567Y-66756690D01*
X84974928Y-66748546D01*
X84973895Y-66735368D01*
X84988195Y-66675878D01*
X85034728Y-66636157D01*
X85041880Y-66633196D01*
X85102877Y-66628417D01*
X85110316Y-66630516D01*
X85133017Y-66637891D01*
X85172428Y-66662043D01*
X85577818Y-67067434D01*
X85577819Y-67067434D01*
X85970488Y-67460103D01*
X85988692Y-67485159D01*
X85994748Y-67497044D01*
X86004321Y-67557474D01*
X86003664Y-67561623D01*
X85984783Y-67605936D01*
X85984013Y-67606952D01*
X85972262Y-67619900D01*
X85221829Y-68312609D01*
X85196066Y-68329798D01*
X85179570Y-68337389D01*
X85172953Y-68340434D01*
X85131567Y-68349500D01*
X85040691Y-68349500D01*
X85005629Y-68358894D01*
X84970566Y-68368289D01*
X84970565Y-68368288D01*
X84926111Y-68380200D01*
X84926108Y-68380201D01*
X84823393Y-68439505D01*
X84739503Y-68523395D01*
X84680201Y-68626109D01*
X84679924Y-68626844D01*
X84679377Y-68629185D01*
X84649500Y-68740691D01*
X84649500Y-68859311D01*
X84672514Y-68945197D01*
X84672515Y-68945201D01*
X84680200Y-68973885D01*
X84680203Y-68973892D01*
X84694218Y-68998167D01*
X84739507Y-69076608D01*
X84739509Y-69076610D01*
X84739511Y-69076613D01*
X84823387Y-69160489D01*
X84823389Y-69160490D01*
X84823496Y-69160597D01*
X84823746Y-69160783D01*
X84825934Y-69161960D01*
X84923369Y-69218214D01*
X84925770Y-69219706D01*
X84926111Y-69219797D01*
X84926114Y-69219799D01*
X85040691Y-69250500D01*
X85040693Y-69250500D01*
X85159307Y-69250500D01*
X85159309Y-69250500D01*
X85273886Y-69219799D01*
X85273887Y-69219798D01*
X85273889Y-69219797D01*
X85273890Y-69219797D01*
X85370473Y-69164034D01*
X85373361Y-69162631D01*
X85374145Y-69162115D01*
X85379162Y-69159016D01*
X85380460Y-69158266D01*
X85385818Y-69151283D01*
X85460489Y-69076613D01*
X85492050Y-69021949D01*
X85519797Y-68973890D01*
X85519797Y-68973888D01*
X85519799Y-68973886D01*
X85550500Y-68859309D01*
X85550500Y-68818108D01*
X85555345Y-68787517D01*
X85562192Y-68766443D01*
X85562622Y-68765118D01*
X85589625Y-68722967D01*
X86537018Y-67848449D01*
X86542870Y-67843456D01*
X86548983Y-67838642D01*
X86555284Y-67834071D01*
X86555405Y-67833990D01*
X86556041Y-67833574D01*
X86588839Y-67800775D01*
X86590236Y-67799405D01*
X86591687Y-67798012D01*
X86593054Y-67796726D01*
X86611162Y-67780011D01*
X86627134Y-67765268D01*
X86627134Y-67765266D01*
X86632181Y-67760608D01*
X86635414Y-67751574D01*
X86651314Y-67713187D01*
X86652081Y-67711385D01*
X86652852Y-67709624D01*
X86653593Y-67707974D01*
X86670862Y-67670587D01*
X86671170Y-67670248D01*
X86672015Y-67668091D01*
X86673089Y-67665767D01*
X86673089Y-67665763D01*
X86673107Y-67665725D01*
X86673309Y-67664845D01*
X86673679Y-67663309D01*
X86674360Y-67660650D01*
X86674390Y-67660533D01*
X86674399Y-67660509D01*
X86674482Y-67660128D01*
X86674483Y-67660113D01*
X86674662Y-67659296D01*
X86677244Y-67649750D01*
X86678634Y-67645469D01*
X86678636Y-67645470D01*
X86687893Y-67616978D01*
X86712041Y-67577573D01*
X86974034Y-67315581D01*
X86999092Y-67297377D01*
X87020855Y-67286289D01*
X87065797Y-67275500D01*
X88599659Y-67275500D01*
X88630252Y-67280346D01*
X88645560Y-67285320D01*
X88692000Y-67317290D01*
X88697666Y-67324309D01*
X88711195Y-67346499D01*
X88713457Y-67351621D01*
X88713458Y-67351623D01*
X88713460Y-67351627D01*
X88722794Y-67372765D01*
X88802235Y-67452206D01*
X88905009Y-67497585D01*
X88930135Y-67500500D01*
X90194864Y-67500499D01*
X90219991Y-67497585D01*
X90322765Y-67452206D01*
X90402206Y-67372765D01*
X90447585Y-67269991D01*
X90450500Y-67244865D01*
X90450499Y-66855136D01*
X90447585Y-66830009D01*
X90402206Y-66727235D01*
X90322765Y-66647794D01*
X90322763Y-66647793D01*
X90236919Y-66609888D01*
X90235211Y-66608719D01*
X90219061Y-66602029D01*
X90214308Y-66601755D01*
X90208374Y-66601066D01*
X90194868Y-66599500D01*
X90194866Y-66599500D01*
X88929764Y-66599500D01*
X88927885Y-66599761D01*
X88905014Y-66602412D01*
X88905006Y-66602414D01*
X88802234Y-66647793D01*
X88802232Y-66647795D01*
X88765608Y-66684418D01*
X88740553Y-66702621D01*
X88718795Y-66713708D01*
X88673848Y-66724500D01*
X86845196Y-66724500D01*
X86743945Y-66766438D01*
X86743941Y-66766441D01*
X86481089Y-67029292D01*
X86456033Y-67047497D01*
X86444148Y-67053553D01*
X86383716Y-67063125D01*
X86383708Y-67063124D01*
X86378678Y-67062327D01*
X86324167Y-67034551D01*
X86040588Y-66750972D01*
X85755478Y-66465863D01*
X85737275Y-66440807D01*
X85727395Y-66421417D01*
X85717640Y-66362203D01*
X85725500Y-66308260D01*
X85725500Y-65691740D01*
X85715573Y-65623607D01*
X85664198Y-65518517D01*
X85581483Y-65435802D01*
X85581481Y-65435801D01*
X85476395Y-65384427D01*
X85449139Y-65380456D01*
X85449138Y-65380455D01*
X85418655Y-65376014D01*
X85408260Y-65374500D01*
X85408258Y-65374500D01*
X84941736Y-65374500D01*
X84907670Y-65379463D01*
X84907669Y-65379462D01*
X84873606Y-65384426D01*
X84873604Y-65384426D01*
X84768520Y-65435799D01*
X84685799Y-65518520D01*
X84634427Y-65623604D01*
X84624501Y-65691740D01*
X84624500Y-65691746D01*
X84624500Y-66308267D01*
X84625741Y-66316786D01*
X84625356Y-66347742D01*
X84623546Y-66358318D01*
X84595099Y-66412486D01*
X84540244Y-66439589D01*
X84486321Y-66432340D01*
X84480818Y-66429935D01*
X84460200Y-66417764D01*
X84041670Y-66096614D01*
X84020351Y-66074148D01*
X84007910Y-66056046D01*
X83990499Y-65999972D01*
X83990499Y-65492764D01*
X83989917Y-65489807D01*
X83976865Y-65407389D01*
X83976559Y-65403505D01*
X83976556Y-65403492D01*
X83975900Y-65400195D01*
X83967865Y-65384426D01*
X83918050Y-65286658D01*
X83828342Y-65196950D01*
X83774243Y-65169385D01*
X83749652Y-65144793D01*
X83621525Y-65124500D01*
X83621522Y-65124500D01*
X83058479Y-65124500D01*
X83058473Y-65124500D01*
X83058424Y-65124508D01*
X83058061Y-65124566D01*
X82964700Y-65139352D01*
X82964676Y-65139362D01*
X82851661Y-65196947D01*
X82761948Y-65286660D01*
X82704354Y-65399693D01*
X82698636Y-65435799D01*
X82689500Y-65493478D01*
X82689500Y-66506521D01*
X82689501Y-66506523D01*
X82704352Y-66600299D01*
X82704353Y-66600302D01*
X82704353Y-66600303D01*
X82704354Y-66600304D01*
X82743869Y-66677858D01*
X82746352Y-66685761D01*
X82746314Y-66689573D01*
X82749684Y-66699944D01*
X82750973Y-66708084D01*
X82745813Y-66740649D01*
X82745752Y-66746943D01*
X82744562Y-66748546D01*
X82741399Y-66768516D01*
X82698133Y-66811779D01*
X82637701Y-66821348D01*
X82637700Y-66821348D01*
X82583187Y-66793572D01*
X82130581Y-66340966D01*
X82112375Y-66315907D01*
X82101287Y-66294145D01*
X82090499Y-66249203D01*
X82090499Y-65492764D01*
X82089917Y-65489807D01*
X82076865Y-65407389D01*
X82076559Y-65403505D01*
X82076556Y-65403492D01*
X82075900Y-65400195D01*
X82067865Y-65384426D01*
X82018050Y-65286658D01*
X81928342Y-65196950D01*
X81874243Y-65169385D01*
X81849652Y-65144793D01*
X81721525Y-65124500D01*
X81721522Y-65124500D01*
X81158479Y-65124500D01*
X81158473Y-65124500D01*
X81158424Y-65124508D01*
X81158061Y-65124566D01*
X81064700Y-65139352D01*
X81064676Y-65139362D01*
X80951661Y-65196947D01*
X80861948Y-65286660D01*
X80804354Y-65399693D01*
X80789500Y-65493476D01*
X80789500Y-66507237D01*
X80790081Y-66510190D01*
X80798154Y-66561163D01*
X80798154Y-66592139D01*
X80796864Y-66600282D01*
X80769084Y-66654798D01*
X80714567Y-66682574D01*
X80654138Y-66673001D01*
X80646794Y-66669259D01*
X80621735Y-66651054D01*
X80240581Y-66269900D01*
X80222375Y-66244841D01*
X80211287Y-66223079D01*
X80200499Y-66178137D01*
X80200499Y-65317764D01*
X80199917Y-65314807D01*
X80186865Y-65232389D01*
X80186559Y-65228505D01*
X80186556Y-65228492D01*
X80185900Y-65225195D01*
X80171508Y-65196950D01*
X80128050Y-65111658D01*
X80038342Y-65021950D01*
X79984243Y-64994385D01*
X79959652Y-64969793D01*
X79831524Y-64949500D01*
X79831521Y-64949500D01*
X79118479Y-64949500D01*
X79118473Y-64949500D01*
X79118424Y-64949508D01*
X79118061Y-64949566D01*
X79024700Y-64964352D01*
X79024676Y-64964362D01*
X78911661Y-65021947D01*
X78821948Y-65111660D01*
X78764354Y-65224693D01*
X78749500Y-65318476D01*
X66250000Y-65318476D01*
X66250000Y-63565180D01*
X66254843Y-63534594D01*
X66258965Y-63521905D01*
X66294923Y-63472406D01*
X66295522Y-63471971D01*
X66299063Y-63469400D01*
X66357243Y-63450500D01*
X66984820Y-63450500D01*
X67015408Y-63455343D01*
X67028095Y-63459466D01*
X67077595Y-63495427D01*
X67077596Y-63495428D01*
X67080591Y-63499550D01*
X67099500Y-63557740D01*
X67099500Y-63614833D01*
X67108230Y-63658717D01*
X67108235Y-63658727D01*
X67141493Y-63708500D01*
X67141496Y-63708504D01*
X67191278Y-63741767D01*
X67202316Y-63743961D01*
X67202324Y-63743966D01*
X67202325Y-63743964D01*
X67224846Y-63748444D01*
X67233487Y-63750163D01*
X67235034Y-63750500D01*
X74764820Y-63750500D01*
X74768107Y-63750500D01*
X74774361Y-63748601D01*
X74786615Y-63746163D01*
X74786623Y-63746164D01*
X74786623Y-63746162D01*
X74808722Y-63741767D01*
X74858504Y-63708504D01*
X74891767Y-63658722D01*
X74896162Y-63636623D01*
X74900499Y-63614827D01*
X74900500Y-63614818D01*
X74900500Y-62114680D01*
X74905343Y-62084094D01*
X74909465Y-62071405D01*
X74945423Y-62021906D01*
X74946022Y-62021471D01*
X74949563Y-62018900D01*
X75007743Y-62000000D01*
X91185320Y-62000000D01*
X91215908Y-62004843D01*
G37*
%TD.AperFunction*%
%TD*%
%TA.AperFunction,Conductor*%
%TO.N,VIN*%
G36*
X55369161Y-67065243D02*
G01*
X55395418Y-67112122D01*
X55396762Y-67117717D01*
X55399500Y-67140840D01*
X55399500Y-67719833D01*
X55408230Y-67763717D01*
X55408235Y-67763727D01*
X55441493Y-67813500D01*
X55441496Y-67813504D01*
X55491278Y-67846767D01*
X55502316Y-67848961D01*
X55502324Y-67848966D01*
X55502325Y-67848964D01*
X55524846Y-67853444D01*
X55533487Y-67855163D01*
X55535034Y-67855500D01*
X55535180Y-67855500D01*
X56042770Y-67855500D01*
X56073357Y-67860343D01*
X56087764Y-67865024D01*
X56135290Y-67898363D01*
X56141768Y-67906684D01*
X56155569Y-67930732D01*
X56188139Y-68012157D01*
X56195002Y-68042359D01*
X56196471Y-68064459D01*
X56183426Y-68120524D01*
X56180203Y-68126106D01*
X56179922Y-68126849D01*
X56179378Y-68129181D01*
X56149500Y-68240691D01*
X56149500Y-68359309D01*
X56154122Y-68376559D01*
X56169625Y-68434419D01*
X56180202Y-68473890D01*
X56227068Y-68555063D01*
X56238170Y-68583986D01*
X56239883Y-68592047D01*
X56233484Y-68652896D01*
X56192541Y-68698364D01*
X56132705Y-68711084D01*
X56125792Y-68710358D01*
X56105534Y-68706052D01*
X56100301Y-68704351D01*
X56006524Y-68689499D01*
X56006521Y-68689499D01*
X54993478Y-68689499D01*
X54992759Y-68689499D01*
X54989808Y-68690080D01*
X54899700Y-68704351D01*
X54899698Y-68704352D01*
X54899676Y-68704361D01*
X54786661Y-68761946D01*
X54696948Y-68851659D01*
X54639354Y-68964692D01*
X54624500Y-69058474D01*
X54624500Y-69621521D01*
X54624508Y-69621571D01*
X54624566Y-69621936D01*
X54639352Y-69715297D01*
X54639362Y-69715321D01*
X54696948Y-69828338D01*
X54696950Y-69828341D01*
X54786658Y-69918049D01*
X54899696Y-69975645D01*
X54993481Y-69990499D01*
X56006518Y-69990498D01*
X56006521Y-69990498D01*
X56011593Y-69990498D01*
X56018092Y-69988664D01*
X56053411Y-69983071D01*
X56092615Y-69976862D01*
X56096506Y-69976556D01*
X56096509Y-69976556D01*
X56104142Y-69975037D01*
X56108064Y-69974415D01*
X56117838Y-69966710D01*
X56213342Y-69918049D01*
X56303050Y-69828341D01*
X56338624Y-69758520D01*
X56356828Y-69733465D01*
X56369265Y-69721029D01*
X56416161Y-69694770D01*
X56422565Y-69693233D01*
X56445669Y-69690499D01*
X56697220Y-69690499D01*
X56722840Y-69693872D01*
X56726192Y-69694770D01*
X56747162Y-69700389D01*
X56771037Y-69710278D01*
X56854052Y-69758207D01*
X56856463Y-69759704D01*
X56856803Y-69759795D01*
X56856805Y-69759796D01*
X56856806Y-69759796D01*
X56856809Y-69759798D01*
X56949144Y-69784539D01*
X56977436Y-69797135D01*
X56986990Y-69803339D01*
X57025496Y-69850888D01*
X57028701Y-69911988D01*
X57027440Y-69916695D01*
X57001817Y-69961078D01*
X56939516Y-70023380D01*
X56939508Y-70023389D01*
X56880200Y-70126112D01*
X56879924Y-70126844D01*
X56879377Y-70129185D01*
X56849500Y-70240691D01*
X56849500Y-70359309D01*
X56876574Y-70460351D01*
X56876575Y-70460353D01*
X56880202Y-70473890D01*
X56939508Y-70576610D01*
X56990131Y-70627234D01*
X57008337Y-70652292D01*
X57019577Y-70674352D01*
X57030357Y-70717903D01*
X57057203Y-72623926D01*
X57052788Y-72654586D01*
X57048845Y-72667328D01*
X57013582Y-72717328D01*
X57009673Y-72720253D01*
X56967815Y-72738436D01*
X56967748Y-72738448D01*
X56950294Y-72739999D01*
X52886302Y-72739999D01*
X52855709Y-72735153D01*
X52832482Y-72727606D01*
X52793071Y-72703456D01*
X52540082Y-72450467D01*
X52521876Y-72425408D01*
X52510788Y-72403646D01*
X52500000Y-72358704D01*
X52500000Y-69591789D01*
X52504843Y-69561203D01*
X52508223Y-69550798D01*
X52544183Y-69501298D01*
X52602372Y-69482387D01*
X52654112Y-69496979D01*
X52659015Y-69499984D01*
X52677285Y-69514388D01*
X52723492Y-69560594D01*
X52723746Y-69560783D01*
X52725934Y-69561960D01*
X52823369Y-69618214D01*
X52825770Y-69619706D01*
X52826111Y-69619797D01*
X52826114Y-69619799D01*
X52940691Y-69650500D01*
X52940693Y-69650500D01*
X53059307Y-69650500D01*
X53059309Y-69650500D01*
X53173886Y-69619799D01*
X53173887Y-69619798D01*
X53173889Y-69619797D01*
X53173890Y-69619797D01*
X53270473Y-69564034D01*
X53273361Y-69562631D01*
X53274145Y-69562115D01*
X53279162Y-69559016D01*
X53280460Y-69558266D01*
X53285818Y-69551283D01*
X53360489Y-69476613D01*
X53370480Y-69459309D01*
X53419797Y-69373890D01*
X53419797Y-69373888D01*
X53419799Y-69373886D01*
X53450500Y-69259309D01*
X53450500Y-69195802D01*
X53455345Y-69165211D01*
X53462891Y-69141985D01*
X53487043Y-69102572D01*
X53677508Y-68912107D01*
X53677514Y-68912101D01*
X53933557Y-68656059D01*
X53954198Y-68606226D01*
X53954197Y-68606226D01*
X53954199Y-68606225D01*
X53966876Y-68575620D01*
X53970042Y-68571912D01*
X53974775Y-68557346D01*
X53976367Y-68553031D01*
X53977141Y-68550066D01*
X53978632Y-68545479D01*
X53987891Y-68516981D01*
X54012041Y-68477573D01*
X54029571Y-68460044D01*
X54133558Y-68356058D01*
X54134195Y-68354520D01*
X54138056Y-68345201D01*
X54175500Y-68254802D01*
X54175500Y-68170803D01*
X54180344Y-68140214D01*
X54181245Y-68137441D01*
X54187891Y-68116983D01*
X54212040Y-68077574D01*
X55219412Y-67070202D01*
X55244464Y-67052001D01*
X55254215Y-67047033D01*
X55314645Y-67037464D01*
X55369161Y-67065243D01*
G37*
%TD.AperFunction*%
%TA.AperFunction,Conductor*%
G36*
X53470408Y-61829843D02*
G01*
X53483095Y-61833966D01*
X53532595Y-61869927D01*
X53532596Y-61869928D01*
X53535591Y-61874050D01*
X53553068Y-61915467D01*
X53554089Y-61921406D01*
X53554500Y-61924000D01*
X53554500Y-61985636D01*
X53556520Y-61999500D01*
X53565134Y-62058626D01*
X53578267Y-62085489D01*
X53584491Y-62098221D01*
X53584492Y-62098224D01*
X53620171Y-62171207D01*
X53620173Y-62171209D01*
X53620174Y-62171211D01*
X53708789Y-62259826D01*
X53821375Y-62314866D01*
X53894364Y-62325500D01*
X53894367Y-62325500D01*
X54465632Y-62325500D01*
X54465636Y-62325500D01*
X54538625Y-62314866D01*
X54651211Y-62259826D01*
X54739826Y-62171211D01*
X54752588Y-62145104D01*
X54770373Y-62119753D01*
X54782296Y-62107429D01*
X54829542Y-62080196D01*
X54836645Y-62078429D01*
X54860548Y-62075500D01*
X55150837Y-62075500D01*
X55176457Y-62078873D01*
X55181267Y-62080161D01*
X55200779Y-62085390D01*
X55224654Y-62095279D01*
X55307669Y-62143208D01*
X55310080Y-62144705D01*
X55310420Y-62144796D01*
X55310422Y-62144797D01*
X55310423Y-62144797D01*
X55310426Y-62144799D01*
X55425003Y-62175500D01*
X55425005Y-62175500D01*
X55543619Y-62175500D01*
X55543621Y-62175500D01*
X55658198Y-62144799D01*
X55658199Y-62144798D01*
X55658201Y-62144797D01*
X55658202Y-62144797D01*
X55754785Y-62089034D01*
X55757673Y-62087631D01*
X55758457Y-62087115D01*
X55763474Y-62084016D01*
X55764772Y-62083266D01*
X55770130Y-62076283D01*
X55844801Y-62001613D01*
X55846021Y-61999500D01*
X55904380Y-61898421D01*
X55907088Y-61894001D01*
X55907550Y-61893290D01*
X55920052Y-61874038D01*
X55967599Y-61835535D01*
X55967602Y-61835535D01*
X55967603Y-61835535D01*
X55977920Y-61831575D01*
X56013396Y-61825000D01*
X57110320Y-61825000D01*
X57140908Y-61829843D01*
X57153595Y-61833966D01*
X57203095Y-61869927D01*
X57203096Y-61869928D01*
X57206091Y-61874050D01*
X57225000Y-61932240D01*
X57225000Y-64299819D01*
X57220154Y-64330412D01*
X57216032Y-64343098D01*
X57180080Y-64392589D01*
X57175959Y-64395584D01*
X57117771Y-64414500D01*
X55535165Y-64414500D01*
X55491281Y-64423230D01*
X55491280Y-64423231D01*
X55491275Y-64423233D01*
X55441498Y-64456494D01*
X55441494Y-64456498D01*
X55408233Y-64506275D01*
X55408231Y-64506280D01*
X55408230Y-64506281D01*
X55399500Y-64550165D01*
X55399500Y-64908909D01*
X55394654Y-64939502D01*
X55390532Y-64952188D01*
X55354569Y-65001688D01*
X55351830Y-65003678D01*
X55305647Y-65021854D01*
X55302971Y-65022181D01*
X55283949Y-65022663D01*
X55276276Y-65022118D01*
X55254294Y-65018025D01*
X55233323Y-65011601D01*
X55212821Y-65002680D01*
X55173886Y-64980201D01*
X55059309Y-64949500D01*
X55059307Y-64949500D01*
X54940692Y-64949500D01*
X54940691Y-64949500D01*
X54905629Y-64958894D01*
X54870566Y-64968289D01*
X54870565Y-64968288D01*
X54826111Y-64980200D01*
X54826108Y-64980201D01*
X54723393Y-65039505D01*
X54639503Y-65123395D01*
X54580201Y-65226109D01*
X54579924Y-65226844D01*
X54579377Y-65229185D01*
X54556250Y-65315500D01*
X54549500Y-65340691D01*
X54549500Y-65459309D01*
X54568547Y-65530390D01*
X54569395Y-65533556D01*
X54580203Y-65573893D01*
X54639506Y-65676607D01*
X54639507Y-65676608D01*
X54639509Y-65676610D01*
X54639511Y-65676613D01*
X54723387Y-65760489D01*
X54723389Y-65760490D01*
X54723496Y-65760597D01*
X54723746Y-65760783D01*
X54725934Y-65761960D01*
X54823369Y-65818214D01*
X54825770Y-65819706D01*
X54826111Y-65819797D01*
X54826114Y-65819799D01*
X54940691Y-65850500D01*
X54940693Y-65850500D01*
X55059307Y-65850500D01*
X55059309Y-65850500D01*
X55173886Y-65819799D01*
X55237422Y-65783115D01*
X55266334Y-65772016D01*
X55277485Y-65769646D01*
X55338334Y-65776045D01*
X55383789Y-65816966D01*
X55386226Y-65821187D01*
X55399500Y-65870703D01*
X55399500Y-66209819D01*
X55394654Y-66240412D01*
X55390532Y-66253098D01*
X55354580Y-66302589D01*
X55350459Y-66305584D01*
X55292271Y-66324500D01*
X55245200Y-66324500D01*
X55143942Y-66366443D01*
X55143941Y-66366444D01*
X53772939Y-67737446D01*
X53772932Y-67737449D01*
X53666451Y-67843930D01*
X53666452Y-67843931D01*
X53666447Y-67843935D01*
X53666443Y-67843941D01*
X53624500Y-67945200D01*
X53624500Y-68029196D01*
X53619654Y-68059790D01*
X53612107Y-68083016D01*
X53587961Y-68122421D01*
X53572943Y-68137441D01*
X53572936Y-68137444D01*
X53572937Y-68137445D01*
X53466451Y-68243930D01*
X53466452Y-68243931D01*
X53466447Y-68243935D01*
X53466446Y-68243937D01*
X53466446Y-68243938D01*
X53466444Y-68243940D01*
X53466443Y-68243942D01*
X53461945Y-68254801D01*
X53461945Y-68254802D01*
X53433130Y-68324365D01*
X53429956Y-68328081D01*
X53412108Y-68383014D01*
X53387956Y-68422426D01*
X53100965Y-68709416D01*
X53075909Y-68727620D01*
X53054149Y-68738708D01*
X53009202Y-68749500D01*
X52940691Y-68749500D01*
X52905629Y-68758894D01*
X52870566Y-68768289D01*
X52870565Y-68768288D01*
X52826111Y-68780200D01*
X52826108Y-68780201D01*
X52722415Y-68840070D01*
X52720645Y-68841337D01*
X52718097Y-68843035D01*
X52713019Y-68849879D01*
X52680089Y-68882808D01*
X52655036Y-68901010D01*
X52645293Y-68905975D01*
X52584862Y-68915550D01*
X52530343Y-68887776D01*
X52504077Y-68840875D01*
X52503749Y-68839510D01*
X52502733Y-68835278D01*
X52500000Y-68812173D01*
X52500000Y-67558036D01*
X52504843Y-67527450D01*
X52508965Y-67514761D01*
X52544923Y-67465262D01*
X52553868Y-67458763D01*
X52586432Y-67443231D01*
X52673886Y-67419799D01*
X52776613Y-67360489D01*
X52860489Y-67276613D01*
X52919799Y-67173886D01*
X52950500Y-67059309D01*
X52950500Y-66940691D01*
X52919799Y-66826114D01*
X52919797Y-66826111D01*
X52919797Y-66826109D01*
X52919796Y-66826108D01*
X52919706Y-66825770D01*
X52918224Y-66823384D01*
X52861960Y-66725934D01*
X52860783Y-66723746D01*
X52860594Y-66723492D01*
X52815579Y-66678476D01*
X52797376Y-66653421D01*
X52786288Y-66631659D01*
X52775500Y-66586720D01*
X52775500Y-61939680D01*
X52780343Y-61909094D01*
X52784465Y-61896405D01*
X52820423Y-61846906D01*
X52821022Y-61846471D01*
X52824563Y-61843900D01*
X52882743Y-61825000D01*
X53439820Y-61825000D01*
X53470408Y-61829843D01*
G37*
%TD.AperFunction*%
%TD*%
%TA.AperFunction,Conductor*%
%TO.N,CELLN*%
G36*
X83694754Y-47493907D02*
G01*
X83730718Y-47543407D01*
X83730718Y-47604593D01*
X83694754Y-47654093D01*
X83691565Y-47656315D01*
X83655451Y-47680445D01*
X83655445Y-47680451D01*
X83611134Y-47746766D01*
X83611132Y-47746772D01*
X83599501Y-47805241D01*
X83599500Y-47805253D01*
X83599500Y-48244746D01*
X83599501Y-48244758D01*
X83611132Y-48303227D01*
X83611134Y-48303233D01*
X83655445Y-48369548D01*
X83655448Y-48369552D01*
X83721769Y-48413867D01*
X83766231Y-48422711D01*
X83780241Y-48425498D01*
X83780246Y-48425498D01*
X83780252Y-48425500D01*
X83780253Y-48425500D01*
X84919747Y-48425500D01*
X84919748Y-48425500D01*
X84978231Y-48413867D01*
X85044552Y-48369552D01*
X85088867Y-48303231D01*
X85100500Y-48244748D01*
X85100500Y-47805252D01*
X85088867Y-47746769D01*
X85044552Y-47680448D01*
X85008434Y-47656314D01*
X84970556Y-47608265D01*
X84968154Y-47547127D01*
X85002147Y-47496253D01*
X85059551Y-47475076D01*
X85063437Y-47475000D01*
X87936563Y-47475000D01*
X87994754Y-47493907D01*
X88030718Y-47543407D01*
X88030718Y-47604593D01*
X87994754Y-47654093D01*
X87991565Y-47656315D01*
X87955451Y-47680445D01*
X87955445Y-47680451D01*
X87911134Y-47746766D01*
X87911132Y-47746772D01*
X87899501Y-47805241D01*
X87899500Y-47805253D01*
X87899500Y-48244746D01*
X87899501Y-48244758D01*
X87911132Y-48303230D01*
X87914814Y-48312119D01*
X87919611Y-48373116D01*
X87914814Y-48387881D01*
X87911132Y-48396769D01*
X87899501Y-48455241D01*
X87899500Y-48455253D01*
X87899500Y-48894746D01*
X87899501Y-48894758D01*
X87911132Y-48953230D01*
X87914814Y-48962119D01*
X87919611Y-49023116D01*
X87914814Y-49037881D01*
X87911132Y-49046769D01*
X87899501Y-49105241D01*
X87899500Y-49105253D01*
X87899500Y-49544746D01*
X87899501Y-49544758D01*
X87911132Y-49603230D01*
X87914814Y-49612119D01*
X87919611Y-49673116D01*
X87914814Y-49687881D01*
X87911132Y-49696769D01*
X87899501Y-49755241D01*
X87899500Y-49755253D01*
X87899500Y-50194746D01*
X87899501Y-50194758D01*
X87911132Y-50253227D01*
X87911134Y-50253233D01*
X87955445Y-50319548D01*
X87955448Y-50319552D01*
X88021769Y-50363867D01*
X88066231Y-50372711D01*
X88080241Y-50375498D01*
X88080246Y-50375498D01*
X88080252Y-50375500D01*
X88844878Y-50375500D01*
X88903069Y-50394407D01*
X88914874Y-50404489D01*
X89120505Y-50610121D01*
X89148281Y-50664635D01*
X89149500Y-50680122D01*
X89149500Y-50720746D01*
X89130593Y-50778937D01*
X89081093Y-50814901D01*
X89019907Y-50814901D01*
X88975340Y-50783403D01*
X88975068Y-50783676D01*
X88973482Y-50782090D01*
X88971958Y-50781013D01*
X88970483Y-50779091D01*
X88970481Y-50779089D01*
X88970480Y-50779087D01*
X88895913Y-50704520D01*
X88853654Y-50680122D01*
X88804589Y-50651794D01*
X88804588Y-50651793D01*
X88804587Y-50651793D01*
X88702727Y-50624500D01*
X84402727Y-50624500D01*
X84297273Y-50624500D01*
X84195413Y-50651793D01*
X84195412Y-50651793D01*
X84195410Y-50651794D01*
X84195409Y-50651794D01*
X84104089Y-50704518D01*
X84029518Y-50779089D01*
X83976794Y-50870409D01*
X83976794Y-50870410D01*
X83976793Y-50870412D01*
X83976793Y-50870413D01*
X83950321Y-50969211D01*
X83949500Y-50972274D01*
X83949500Y-51525500D01*
X83930593Y-51583691D01*
X83881093Y-51619655D01*
X83850500Y-51624500D01*
X83780252Y-51624500D01*
X83780251Y-51624500D01*
X83780241Y-51624501D01*
X83721772Y-51636132D01*
X83721766Y-51636134D01*
X83655451Y-51680445D01*
X83655445Y-51680451D01*
X83611134Y-51746766D01*
X83611132Y-51746772D01*
X83599501Y-51805241D01*
X83599500Y-51805253D01*
X83599500Y-52244746D01*
X83599501Y-52244758D01*
X83611132Y-52303227D01*
X83611134Y-52303233D01*
X83649392Y-52360489D01*
X83655448Y-52369552D01*
X83721769Y-52413867D01*
X83766231Y-52422711D01*
X83780241Y-52425498D01*
X83780246Y-52425498D01*
X83780252Y-52425500D01*
X83780253Y-52425500D01*
X84919747Y-52425500D01*
X84919748Y-52425500D01*
X84978231Y-52413867D01*
X85044552Y-52369552D01*
X85088867Y-52303231D01*
X85100500Y-52244748D01*
X85100500Y-51805252D01*
X85088867Y-51746769D01*
X85044552Y-51680448D01*
X85044548Y-51680445D01*
X84978233Y-51636134D01*
X84978231Y-51636133D01*
X84978228Y-51636132D01*
X84978227Y-51636132D01*
X84919758Y-51624501D01*
X84919748Y-51624500D01*
X84919747Y-51624500D01*
X84849500Y-51624500D01*
X84791309Y-51605593D01*
X84755345Y-51556093D01*
X84750500Y-51525500D01*
X84750500Y-51524500D01*
X84769407Y-51466309D01*
X84818907Y-51430345D01*
X84849500Y-51425500D01*
X88150500Y-51425500D01*
X88208691Y-51444407D01*
X88244655Y-51493907D01*
X88249500Y-51524500D01*
X88249500Y-51525500D01*
X88230593Y-51583691D01*
X88181093Y-51619655D01*
X88150500Y-51624500D01*
X88080252Y-51624500D01*
X88080251Y-51624500D01*
X88080241Y-51624501D01*
X88021772Y-51636132D01*
X88021766Y-51636134D01*
X87955451Y-51680445D01*
X87955445Y-51680451D01*
X87911134Y-51746766D01*
X87911132Y-51746772D01*
X87899501Y-51805241D01*
X87899500Y-51805253D01*
X87899500Y-52244746D01*
X87899501Y-52244758D01*
X87911132Y-52303230D01*
X87914814Y-52312119D01*
X87919611Y-52373116D01*
X87914814Y-52387881D01*
X87911132Y-52396769D01*
X87899501Y-52455241D01*
X87899500Y-52455253D01*
X87899500Y-52894746D01*
X87899501Y-52894758D01*
X87911132Y-52953230D01*
X87914814Y-52962119D01*
X87919611Y-53023116D01*
X87914814Y-53037881D01*
X87911132Y-53046769D01*
X87899501Y-53105241D01*
X87899500Y-53105253D01*
X87899500Y-53544746D01*
X87899501Y-53544758D01*
X87911132Y-53603230D01*
X87914814Y-53612119D01*
X87919611Y-53673116D01*
X87914814Y-53687881D01*
X87911132Y-53696769D01*
X87899501Y-53755241D01*
X87899500Y-53755253D01*
X87899500Y-54194746D01*
X87899501Y-54194758D01*
X87911132Y-54253227D01*
X87911134Y-54253233D01*
X87955445Y-54319548D01*
X87955448Y-54319552D01*
X88021769Y-54363867D01*
X88066231Y-54372711D01*
X88080241Y-54375498D01*
X88080246Y-54375498D01*
X88080252Y-54375500D01*
X89044878Y-54375500D01*
X89103069Y-54394407D01*
X89114873Y-54404489D01*
X89220505Y-54510121D01*
X89248281Y-54564635D01*
X89249500Y-54580122D01*
X89249500Y-54659309D01*
X89267542Y-54726643D01*
X89280202Y-54773890D01*
X89339507Y-54876608D01*
X89339509Y-54876610D01*
X89339511Y-54876613D01*
X89423387Y-54960489D01*
X89423389Y-54960490D01*
X89423391Y-54960492D01*
X89526110Y-55019797D01*
X89526111Y-55019797D01*
X89526114Y-55019799D01*
X89640691Y-55050500D01*
X89640693Y-55050500D01*
X89759307Y-55050500D01*
X89759309Y-55050500D01*
X89873886Y-55019799D01*
X89873888Y-55019797D01*
X89873890Y-55019797D01*
X89976608Y-54960492D01*
X89976608Y-54960491D01*
X89976613Y-54960489D01*
X90060489Y-54876613D01*
X90081910Y-54839511D01*
X90119797Y-54773890D01*
X90119797Y-54773888D01*
X90119799Y-54773886D01*
X90150500Y-54659309D01*
X90150500Y-54540691D01*
X90119799Y-54426114D01*
X90119797Y-54426111D01*
X90119797Y-54426109D01*
X90060492Y-54323391D01*
X90060490Y-54323389D01*
X90060489Y-54323387D01*
X89976613Y-54239511D01*
X89976610Y-54239509D01*
X89976608Y-54239507D01*
X89873889Y-54180202D01*
X89873890Y-54180202D01*
X89860351Y-54176574D01*
X89759309Y-54149500D01*
X89680124Y-54149500D01*
X89621933Y-54130593D01*
X89610120Y-54120504D01*
X89429496Y-53939880D01*
X89401719Y-53885363D01*
X89400500Y-53869876D01*
X89400500Y-53774500D01*
X89419407Y-53716309D01*
X89468907Y-53680345D01*
X89499500Y-53675500D01*
X89564792Y-53675500D01*
X89614292Y-53688764D01*
X89711344Y-53744797D01*
X89711345Y-53744797D01*
X89711348Y-53744799D01*
X89825925Y-53775500D01*
X89825927Y-53775500D01*
X89944541Y-53775500D01*
X89944543Y-53775500D01*
X90059120Y-53744799D01*
X90059122Y-53744797D01*
X90059124Y-53744797D01*
X90161842Y-53685492D01*
X90161842Y-53685491D01*
X90161847Y-53685489D01*
X90245723Y-53601613D01*
X90246953Y-53599483D01*
X90305031Y-53498890D01*
X90305031Y-53498888D01*
X90305033Y-53498886D01*
X90335734Y-53384309D01*
X90335734Y-53265691D01*
X90305033Y-53151114D01*
X90246365Y-53049500D01*
X90233644Y-52989652D01*
X90246366Y-52950499D01*
X90249612Y-52944877D01*
X90305033Y-52848886D01*
X90335734Y-52734309D01*
X90335734Y-52615691D01*
X90305033Y-52501114D01*
X90305031Y-52501111D01*
X90305031Y-52501109D01*
X90245726Y-52398391D01*
X90245724Y-52398389D01*
X90245723Y-52398387D01*
X90161847Y-52314511D01*
X90161844Y-52314509D01*
X90161842Y-52314507D01*
X90059123Y-52255202D01*
X90059124Y-52255202D01*
X90020109Y-52244748D01*
X89944543Y-52224500D01*
X89825925Y-52224500D01*
X89755801Y-52243289D01*
X89711343Y-52255202D01*
X89614292Y-52311236D01*
X89564792Y-52324500D01*
X89499500Y-52324500D01*
X89441309Y-52305593D01*
X89405345Y-52256093D01*
X89400500Y-52225500D01*
X89400500Y-51805253D01*
X89400498Y-51805241D01*
X89397711Y-51791231D01*
X89388867Y-51746769D01*
X89344552Y-51680448D01*
X89344548Y-51680445D01*
X89278233Y-51636134D01*
X89278231Y-51636133D01*
X89278228Y-51636132D01*
X89278227Y-51636132D01*
X89219758Y-51624501D01*
X89219748Y-51624500D01*
X89219747Y-51624500D01*
X89149500Y-51624500D01*
X89091309Y-51605593D01*
X89055345Y-51556093D01*
X89050500Y-51525500D01*
X89050500Y-51018709D01*
X89069407Y-50960518D01*
X89118907Y-50924554D01*
X89180093Y-50924554D01*
X89229593Y-50960518D01*
X89235232Y-50969202D01*
X89239511Y-50976613D01*
X89323387Y-51060489D01*
X89323389Y-51060490D01*
X89323391Y-51060492D01*
X89426110Y-51119797D01*
X89426111Y-51119797D01*
X89426114Y-51119799D01*
X89540691Y-51150500D01*
X89540693Y-51150500D01*
X89659307Y-51150500D01*
X89659309Y-51150500D01*
X89773886Y-51119799D01*
X89773888Y-51119797D01*
X89773890Y-51119797D01*
X89876608Y-51060492D01*
X89876608Y-51060491D01*
X89876613Y-51060489D01*
X89960489Y-50976613D01*
X90019799Y-50873886D01*
X90050500Y-50759309D01*
X90050500Y-50640691D01*
X90019799Y-50526114D01*
X90019797Y-50526111D01*
X90019797Y-50526109D01*
X89960492Y-50423391D01*
X89960490Y-50423389D01*
X89960489Y-50423387D01*
X89876613Y-50339511D01*
X89876610Y-50339509D01*
X89876608Y-50339507D01*
X89773889Y-50280202D01*
X89773890Y-50280202D01*
X89760351Y-50276574D01*
X89659309Y-50249500D01*
X89580124Y-50249500D01*
X89521933Y-50230593D01*
X89510120Y-50220504D01*
X89429496Y-50139880D01*
X89401719Y-50085363D01*
X89400500Y-50069876D01*
X89400500Y-49774500D01*
X89419407Y-49716309D01*
X89468907Y-49680345D01*
X89499500Y-49675500D01*
X89564792Y-49675500D01*
X89614292Y-49688764D01*
X89711344Y-49744797D01*
X89711345Y-49744797D01*
X89711348Y-49744799D01*
X89825925Y-49775500D01*
X89825927Y-49775500D01*
X89944541Y-49775500D01*
X89944543Y-49775500D01*
X90059120Y-49744799D01*
X90059122Y-49744797D01*
X90059124Y-49744797D01*
X90161842Y-49685492D01*
X90161842Y-49685491D01*
X90161847Y-49685489D01*
X90245723Y-49601613D01*
X90254660Y-49586134D01*
X90305031Y-49498890D01*
X90305031Y-49498888D01*
X90305033Y-49498886D01*
X90335734Y-49384309D01*
X90335734Y-49265691D01*
X90305033Y-49151114D01*
X90246365Y-49049500D01*
X90233644Y-48989652D01*
X90246366Y-48950499D01*
X90272564Y-48905123D01*
X90305033Y-48848886D01*
X90335734Y-48734309D01*
X90335734Y-48615691D01*
X90305033Y-48501114D01*
X90305031Y-48501111D01*
X90305031Y-48501109D01*
X90245726Y-48398391D01*
X90245724Y-48398389D01*
X90245723Y-48398387D01*
X90161847Y-48314511D01*
X90161844Y-48314509D01*
X90161842Y-48314507D01*
X90059123Y-48255202D01*
X90059124Y-48255202D01*
X90020109Y-48244748D01*
X89944543Y-48224500D01*
X89825925Y-48224500D01*
X89755801Y-48243289D01*
X89711343Y-48255202D01*
X89614292Y-48311236D01*
X89564792Y-48324500D01*
X89499500Y-48324500D01*
X89441309Y-48305593D01*
X89405345Y-48256093D01*
X89400500Y-48225500D01*
X89400500Y-47805253D01*
X89400498Y-47805241D01*
X89397711Y-47791231D01*
X89388867Y-47746769D01*
X89344552Y-47680448D01*
X89308434Y-47656314D01*
X89270556Y-47608265D01*
X89268154Y-47547127D01*
X89302147Y-47496253D01*
X89359551Y-47475076D01*
X89363437Y-47475000D01*
X93401000Y-47475000D01*
X93459191Y-47493907D01*
X93495155Y-47543407D01*
X93500000Y-47574000D01*
X93500000Y-57400500D01*
X93481093Y-57458691D01*
X93431593Y-57494655D01*
X93401000Y-57499500D01*
X91868480Y-57499500D01*
X91774697Y-57514354D01*
X91774695Y-57514354D01*
X91661658Y-57571950D01*
X91571950Y-57661658D01*
X91514354Y-57774695D01*
X91514354Y-57774697D01*
X91499500Y-57868480D01*
X91499500Y-58426000D01*
X91480593Y-58484191D01*
X91431093Y-58520155D01*
X91400500Y-58525000D01*
X89876313Y-58525000D01*
X89818122Y-58506093D01*
X89790578Y-58475502D01*
X89760489Y-58423387D01*
X89676613Y-58339511D01*
X89676610Y-58339509D01*
X89676608Y-58339507D01*
X89573889Y-58280202D01*
X89573890Y-58280202D01*
X89556342Y-58275500D01*
X89473875Y-58253403D01*
X89422562Y-58220080D01*
X89400636Y-58162958D01*
X89400500Y-58157777D01*
X89400500Y-57774500D01*
X89419407Y-57716309D01*
X89468907Y-57680345D01*
X89499500Y-57675500D01*
X89564792Y-57675500D01*
X89614292Y-57688764D01*
X89711344Y-57744797D01*
X89711345Y-57744797D01*
X89711348Y-57744799D01*
X89825925Y-57775500D01*
X89825927Y-57775500D01*
X89944541Y-57775500D01*
X89944543Y-57775500D01*
X90059120Y-57744799D01*
X90059122Y-57744797D01*
X90059124Y-57744797D01*
X90161842Y-57685492D01*
X90161842Y-57685491D01*
X90161847Y-57685489D01*
X90245723Y-57601613D01*
X90254660Y-57586134D01*
X90305031Y-57498890D01*
X90305031Y-57498888D01*
X90305033Y-57498886D01*
X90335734Y-57384309D01*
X90335734Y-57265691D01*
X90305033Y-57151114D01*
X90246365Y-57049500D01*
X90233644Y-56989652D01*
X90246366Y-56950499D01*
X90305033Y-56848886D01*
X90335734Y-56734309D01*
X90335734Y-56615691D01*
X90305033Y-56501114D01*
X90305031Y-56501111D01*
X90305031Y-56501109D01*
X90245726Y-56398391D01*
X90245724Y-56398389D01*
X90245723Y-56398387D01*
X90161847Y-56314511D01*
X90161844Y-56314509D01*
X90161842Y-56314507D01*
X90059123Y-56255202D01*
X90059124Y-56255202D01*
X90045585Y-56251574D01*
X89944543Y-56224500D01*
X89825925Y-56224500D01*
X89755801Y-56243289D01*
X89711343Y-56255202D01*
X89614292Y-56311236D01*
X89564792Y-56324500D01*
X89499500Y-56324500D01*
X89441309Y-56305593D01*
X89405345Y-56256093D01*
X89400500Y-56225500D01*
X89400500Y-55805253D01*
X89400498Y-55805241D01*
X89397711Y-55791231D01*
X89388867Y-55746769D01*
X89344552Y-55680448D01*
X89295683Y-55647794D01*
X89278233Y-55636134D01*
X89278231Y-55636133D01*
X89278228Y-55636132D01*
X89278227Y-55636132D01*
X89219758Y-55624501D01*
X89219748Y-55624500D01*
X89219747Y-55624500D01*
X89149500Y-55624500D01*
X89091309Y-55605593D01*
X89055345Y-55556093D01*
X89050500Y-55525500D01*
X89050500Y-54972274D01*
X89047343Y-54960492D01*
X89023207Y-54870413D01*
X89005363Y-54839507D01*
X88971123Y-54780201D01*
X88970480Y-54779087D01*
X88895913Y-54704520D01*
X88804587Y-54651793D01*
X88702727Y-54624500D01*
X84402727Y-54624500D01*
X84297273Y-54624500D01*
X84195413Y-54651793D01*
X84195412Y-54651793D01*
X84195410Y-54651794D01*
X84195409Y-54651794D01*
X84104089Y-54704518D01*
X84029518Y-54779089D01*
X83976794Y-54870409D01*
X83976794Y-54870410D01*
X83976793Y-54870412D01*
X83976793Y-54870413D01*
X83952658Y-54960489D01*
X83949500Y-54972274D01*
X83949500Y-55525500D01*
X83930593Y-55583691D01*
X83881093Y-55619655D01*
X83850500Y-55624500D01*
X83780252Y-55624500D01*
X83780251Y-55624500D01*
X83780241Y-55624501D01*
X83721772Y-55636132D01*
X83721766Y-55636134D01*
X83655451Y-55680445D01*
X83655445Y-55680451D01*
X83611134Y-55746766D01*
X83611132Y-55746772D01*
X83599501Y-55805241D01*
X83599500Y-55805253D01*
X83599500Y-56244746D01*
X83599501Y-56244758D01*
X83611132Y-56303227D01*
X83611134Y-56303233D01*
X83655445Y-56369548D01*
X83655448Y-56369552D01*
X83721769Y-56413867D01*
X83766231Y-56422711D01*
X83780241Y-56425498D01*
X83780246Y-56425498D01*
X83780252Y-56425500D01*
X83780253Y-56425500D01*
X84919747Y-56425500D01*
X84919748Y-56425500D01*
X84978231Y-56413867D01*
X85044552Y-56369552D01*
X85088867Y-56303231D01*
X85100500Y-56244748D01*
X85100500Y-55805252D01*
X85088867Y-55746769D01*
X85044552Y-55680448D01*
X84995683Y-55647794D01*
X84978233Y-55636134D01*
X84978231Y-55636133D01*
X84978228Y-55636132D01*
X84978227Y-55636132D01*
X84919758Y-55624501D01*
X84919748Y-55624500D01*
X84919747Y-55624500D01*
X84849500Y-55624500D01*
X84791309Y-55605593D01*
X84755345Y-55556093D01*
X84750500Y-55525500D01*
X84750500Y-55524500D01*
X84769407Y-55466309D01*
X84818907Y-55430345D01*
X84849500Y-55425500D01*
X88150500Y-55425500D01*
X88208691Y-55444407D01*
X88244655Y-55493907D01*
X88249500Y-55524500D01*
X88249500Y-55525500D01*
X88230593Y-55583691D01*
X88181093Y-55619655D01*
X88150500Y-55624500D01*
X88080252Y-55624500D01*
X88080251Y-55624500D01*
X88080241Y-55624501D01*
X88021772Y-55636132D01*
X88021766Y-55636134D01*
X87955451Y-55680445D01*
X87955445Y-55680451D01*
X87911134Y-55746766D01*
X87911132Y-55746772D01*
X87899501Y-55805241D01*
X87899500Y-55805253D01*
X87899500Y-56244746D01*
X87899501Y-56244758D01*
X87911132Y-56303230D01*
X87914814Y-56312119D01*
X87919611Y-56373116D01*
X87914814Y-56387881D01*
X87911132Y-56396769D01*
X87899501Y-56455241D01*
X87899500Y-56455253D01*
X87899500Y-56894746D01*
X87899501Y-56894758D01*
X87911132Y-56953230D01*
X87914814Y-56962119D01*
X87919611Y-57023116D01*
X87914814Y-57037881D01*
X87911132Y-57046769D01*
X87899501Y-57105241D01*
X87899500Y-57105253D01*
X87899500Y-57544746D01*
X87899501Y-57544758D01*
X87911132Y-57603230D01*
X87914814Y-57612119D01*
X87919611Y-57673116D01*
X87914814Y-57687881D01*
X87911132Y-57696769D01*
X87899501Y-57755241D01*
X87899500Y-57755251D01*
X87899500Y-57755252D01*
X87899500Y-58194748D01*
X87908444Y-58239716D01*
X87901254Y-58300476D01*
X87881351Y-58329033D01*
X87714882Y-58495503D01*
X87660365Y-58523281D01*
X87644878Y-58524500D01*
X85064185Y-58524500D01*
X85005994Y-58505593D01*
X84970030Y-58456093D01*
X84970030Y-58394907D01*
X85005994Y-58345407D01*
X85009183Y-58343185D01*
X85044552Y-58319552D01*
X85088867Y-58253231D01*
X85100500Y-58194748D01*
X85100500Y-57755252D01*
X85088867Y-57696769D01*
X85044552Y-57630448D01*
X85044548Y-57630445D01*
X84978233Y-57586134D01*
X84978231Y-57586133D01*
X84978228Y-57586132D01*
X84978227Y-57586132D01*
X84919758Y-57574501D01*
X84919748Y-57574500D01*
X83780252Y-57574500D01*
X83780251Y-57574500D01*
X83780241Y-57574501D01*
X83721772Y-57586132D01*
X83721766Y-57586134D01*
X83655451Y-57630445D01*
X83655442Y-57630454D01*
X83647203Y-57642785D01*
X83599152Y-57680663D01*
X83538014Y-57683063D01*
X83494888Y-57657786D01*
X83476613Y-57639511D01*
X83476610Y-57639509D01*
X83476608Y-57639507D01*
X83373889Y-57580202D01*
X83373890Y-57580202D01*
X83343093Y-57571950D01*
X83259309Y-57549500D01*
X83140691Y-57549500D01*
X83070567Y-57568289D01*
X83026109Y-57580202D01*
X82923391Y-57639507D01*
X82839507Y-57723391D01*
X82780202Y-57826109D01*
X82780201Y-57826114D01*
X82749500Y-57940691D01*
X82749500Y-58059309D01*
X82772424Y-58144863D01*
X82780202Y-58173890D01*
X82839507Y-58276608D01*
X82839509Y-58276610D01*
X82839511Y-58276613D01*
X82918396Y-58355498D01*
X82946172Y-58410013D01*
X82936601Y-58470445D01*
X82893336Y-58513710D01*
X82848391Y-58524500D01*
X81889478Y-58524500D01*
X81831287Y-58505593D01*
X81795323Y-58456093D01*
X81795323Y-58394907D01*
X81819474Y-58355496D01*
X81822763Y-58352206D01*
X81822765Y-58352206D01*
X81902206Y-58272765D01*
X81947585Y-58169991D01*
X81950500Y-58144865D01*
X81950499Y-57755136D01*
X81947585Y-57730009D01*
X81902206Y-57627235D01*
X81822765Y-57547794D01*
X81822763Y-57547793D01*
X81819974Y-57545004D01*
X81792197Y-57490487D01*
X81801768Y-57430055D01*
X81819975Y-57404996D01*
X81902206Y-57322765D01*
X81907391Y-57315197D01*
X81909812Y-57316855D01*
X81940738Y-57282286D01*
X81952629Y-57276398D01*
X81954797Y-57275500D01*
X81954800Y-57275500D01*
X82056058Y-57233557D01*
X82133557Y-57156058D01*
X82133556Y-57156058D01*
X82733557Y-56556059D01*
X82733558Y-56556057D01*
X82756570Y-56500501D01*
X82756570Y-56500500D01*
X82775312Y-56455253D01*
X82775500Y-56454800D01*
X82775500Y-56202609D01*
X82794407Y-56144418D01*
X82804490Y-56132611D01*
X82860489Y-56076613D01*
X82919799Y-55973886D01*
X82950500Y-55859309D01*
X82950500Y-55740691D01*
X82919799Y-55626114D01*
X82919797Y-55626111D01*
X82919797Y-55626109D01*
X82860492Y-55523391D01*
X82860490Y-55523389D01*
X82860489Y-55523387D01*
X82776613Y-55439511D01*
X82776610Y-55439509D01*
X82776608Y-55439507D01*
X82673889Y-55380202D01*
X82673890Y-55380202D01*
X82650318Y-55373886D01*
X82559309Y-55349500D01*
X82440691Y-55349500D01*
X82370567Y-55368289D01*
X82326109Y-55380202D01*
X82223391Y-55439507D01*
X82139507Y-55523391D01*
X82080202Y-55626109D01*
X82077516Y-55636133D01*
X82049500Y-55740691D01*
X82049500Y-55859309D01*
X82064243Y-55914330D01*
X82080202Y-55973890D01*
X82139507Y-56076608D01*
X82139509Y-56076610D01*
X82139511Y-56076613D01*
X82195505Y-56132607D01*
X82223281Y-56187122D01*
X82224500Y-56202609D01*
X82224500Y-56244876D01*
X82205593Y-56303067D01*
X82195504Y-56314879D01*
X81933028Y-56577354D01*
X81878513Y-56605131D01*
X81823038Y-56597915D01*
X81822765Y-56597794D01*
X81719991Y-56552415D01*
X81719990Y-56552414D01*
X81719988Y-56552414D01*
X81694868Y-56549500D01*
X80580139Y-56549500D01*
X80580136Y-56549501D01*
X80555009Y-56552414D01*
X80452235Y-56597794D01*
X80372794Y-56677235D01*
X80327414Y-56780011D01*
X80324500Y-56805130D01*
X80324500Y-57194860D01*
X80324501Y-57194863D01*
X80327414Y-57219990D01*
X80333405Y-57233557D01*
X80372794Y-57322765D01*
X80452235Y-57402206D01*
X80452236Y-57402206D01*
X80455026Y-57404996D01*
X80482803Y-57459513D01*
X80473232Y-57519945D01*
X80455026Y-57545004D01*
X80452236Y-57547793D01*
X80452235Y-57547794D01*
X80413897Y-57586132D01*
X80372794Y-57627235D01*
X80327414Y-57730011D01*
X80324500Y-57755130D01*
X80324500Y-58144860D01*
X80324501Y-58144863D01*
X80327414Y-58169990D01*
X80327415Y-58169992D01*
X80334268Y-58185513D01*
X80340475Y-58246383D01*
X80309719Y-58299276D01*
X80253746Y-58323989D01*
X80243703Y-58324500D01*
X79955123Y-58324500D01*
X79896932Y-58305593D01*
X79885125Y-58295509D01*
X79704494Y-58114879D01*
X79676718Y-58060363D01*
X79675499Y-58044876D01*
X79675499Y-57755139D01*
X79675499Y-57755136D01*
X79672585Y-57730009D01*
X79627206Y-57627235D01*
X79547765Y-57547794D01*
X79547763Y-57547793D01*
X79544974Y-57545004D01*
X79517197Y-57490487D01*
X79526768Y-57430055D01*
X79544974Y-57404996D01*
X79547763Y-57402206D01*
X79547765Y-57402206D01*
X79627206Y-57322765D01*
X79672585Y-57219991D01*
X79675500Y-57194865D01*
X79675499Y-56805136D01*
X79672585Y-56780009D01*
X79627206Y-56677235D01*
X79547765Y-56597794D01*
X79547763Y-56597793D01*
X79544974Y-56595004D01*
X79517197Y-56540487D01*
X79526768Y-56480055D01*
X79544974Y-56454996D01*
X79547763Y-56452206D01*
X79547765Y-56452206D01*
X79627206Y-56372765D01*
X79672585Y-56269991D01*
X79675500Y-56244865D01*
X79675499Y-55972519D01*
X79694406Y-55914330D01*
X79743906Y-55878366D01*
X79754644Y-55875564D01*
X79754799Y-55875500D01*
X79754800Y-55875500D01*
X79856058Y-55833557D01*
X79933557Y-55756058D01*
X82379996Y-53309619D01*
X82434513Y-53281842D01*
X82494945Y-53291413D01*
X82520003Y-53309618D01*
X83443942Y-54233558D01*
X83443943Y-54233558D01*
X83443944Y-54233559D01*
X83545198Y-54275500D01*
X83545200Y-54275500D01*
X83573097Y-54275500D01*
X83631288Y-54294407D01*
X83655411Y-54319497D01*
X83655448Y-54319552D01*
X83721769Y-54363867D01*
X83766231Y-54372711D01*
X83780241Y-54375498D01*
X83780246Y-54375498D01*
X83780252Y-54375500D01*
X83780253Y-54375500D01*
X84919747Y-54375500D01*
X84919748Y-54375500D01*
X84978231Y-54363867D01*
X85044552Y-54319552D01*
X85088867Y-54253231D01*
X85100500Y-54194748D01*
X85100500Y-53755252D01*
X85088867Y-53696769D01*
X85044552Y-53630448D01*
X85037147Y-53625500D01*
X84978233Y-53586134D01*
X84978231Y-53586133D01*
X84978228Y-53586132D01*
X84978227Y-53586132D01*
X84919758Y-53574501D01*
X84919748Y-53574500D01*
X83780252Y-53574500D01*
X83780251Y-53574500D01*
X83780241Y-53574501D01*
X83721772Y-53586132D01*
X83721767Y-53586134D01*
X83701789Y-53599483D01*
X83642900Y-53616090D01*
X83585497Y-53594911D01*
X83576785Y-53587170D01*
X83255306Y-53265691D01*
X82756058Y-52766443D01*
X82654800Y-52724500D01*
X82654799Y-52724500D01*
X82574500Y-52724500D01*
X82516309Y-52705593D01*
X82480345Y-52656093D01*
X82475500Y-52625500D01*
X82475500Y-51655123D01*
X82494407Y-51596932D01*
X82504496Y-51585119D01*
X83070906Y-51018709D01*
X83687672Y-50401942D01*
X83742187Y-50374167D01*
X83776993Y-50374851D01*
X83780252Y-50375500D01*
X83780255Y-50375500D01*
X84919747Y-50375500D01*
X84919748Y-50375500D01*
X84978231Y-50363867D01*
X85044552Y-50319552D01*
X85088867Y-50253231D01*
X85100500Y-50194748D01*
X85100500Y-49755252D01*
X85088867Y-49696769D01*
X85044552Y-49630448D01*
X85032074Y-49622110D01*
X84978233Y-49586134D01*
X84978231Y-49586133D01*
X84978228Y-49586132D01*
X84978227Y-49586132D01*
X84919758Y-49574501D01*
X84919748Y-49574500D01*
X83780252Y-49574500D01*
X83780251Y-49574500D01*
X83780241Y-49574501D01*
X83721772Y-49586132D01*
X83721766Y-49586134D01*
X83655451Y-49630445D01*
X83655445Y-49630451D01*
X83611132Y-49696769D01*
X83607401Y-49705778D01*
X83604490Y-49704572D01*
X83582473Y-49743867D01*
X83553175Y-49762617D01*
X83543944Y-49766440D01*
X83543941Y-49766442D01*
X83543941Y-49766443D01*
X82043942Y-51266443D01*
X82043941Y-51266442D01*
X81966446Y-51343938D01*
X81966444Y-51343940D01*
X81966443Y-51343942D01*
X81966443Y-51343943D01*
X81924500Y-51445200D01*
X81924500Y-52944877D01*
X81905593Y-53003068D01*
X81895504Y-53014881D01*
X79871230Y-55039154D01*
X79816713Y-55066931D01*
X79756281Y-55057360D01*
X79715490Y-55018650D01*
X79660492Y-54923391D01*
X79660490Y-54923389D01*
X79660489Y-54923387D01*
X79576613Y-54839511D01*
X79576610Y-54839509D01*
X79576608Y-54839507D01*
X79473889Y-54780202D01*
X79473885Y-54780200D01*
X79398376Y-54759967D01*
X79347062Y-54726643D01*
X79325136Y-54669521D01*
X79325000Y-54664341D01*
X79325000Y-53724500D01*
X79343907Y-53666309D01*
X79393407Y-53630345D01*
X79424000Y-53625500D01*
X79485632Y-53625500D01*
X79485636Y-53625500D01*
X79558625Y-53614866D01*
X79671211Y-53559826D01*
X79759826Y-53471211D01*
X79814866Y-53358625D01*
X79825500Y-53285636D01*
X79825500Y-52805122D01*
X79844407Y-52746931D01*
X79854497Y-52735118D01*
X79875251Y-52714364D01*
X79933558Y-52656058D01*
X79939640Y-52641375D01*
X79975500Y-52554801D01*
X79975500Y-52548354D01*
X79994407Y-52490163D01*
X80043907Y-52454199D01*
X80054155Y-52451880D01*
X80059305Y-52450500D01*
X80059309Y-52450500D01*
X80173886Y-52419799D01*
X80173888Y-52419797D01*
X80173890Y-52419797D01*
X80276608Y-52360492D01*
X80276608Y-52360491D01*
X80276613Y-52360489D01*
X80360489Y-52276613D01*
X80372851Y-52255201D01*
X80419797Y-52173890D01*
X80419797Y-52173888D01*
X80419799Y-52173886D01*
X80450500Y-52059309D01*
X80450500Y-51940691D01*
X80419799Y-51826114D01*
X80419797Y-51826111D01*
X80419797Y-51826109D01*
X80360492Y-51723391D01*
X80360490Y-51723389D01*
X80360489Y-51723387D01*
X80276613Y-51639511D01*
X80276610Y-51639509D01*
X80276608Y-51639507D01*
X80173889Y-51580202D01*
X80173890Y-51580202D01*
X80160351Y-51576574D01*
X80059309Y-51549500D01*
X79940691Y-51549500D01*
X79870567Y-51568289D01*
X79826109Y-51580202D01*
X79723391Y-51639507D01*
X79639507Y-51723391D01*
X79580202Y-51826109D01*
X79549500Y-51940692D01*
X79549500Y-52019877D01*
X79530593Y-52078068D01*
X79520504Y-52089881D01*
X79494004Y-52116381D01*
X79439487Y-52144158D01*
X79379055Y-52134587D01*
X79335790Y-52091322D01*
X79325000Y-52046377D01*
X79325000Y-49884689D01*
X79343907Y-49826498D01*
X79393407Y-49790534D01*
X79454593Y-49790534D01*
X79494004Y-49814685D01*
X79599295Y-49919976D01*
X79624918Y-49964357D01*
X79653925Y-50072613D01*
X79713230Y-50175331D01*
X79713232Y-50175333D01*
X79713234Y-50175336D01*
X79797110Y-50259212D01*
X79797112Y-50259213D01*
X79797114Y-50259215D01*
X79899833Y-50318520D01*
X79899834Y-50318520D01*
X79899837Y-50318522D01*
X80014414Y-50349223D01*
X80014416Y-50349223D01*
X80133030Y-50349223D01*
X80133032Y-50349223D01*
X80247609Y-50318522D01*
X80247611Y-50318520D01*
X80247613Y-50318520D01*
X80350331Y-50259215D01*
X80350331Y-50259214D01*
X80350336Y-50259212D01*
X80434212Y-50175336D01*
X80471424Y-50110884D01*
X80493520Y-50072613D01*
X80493520Y-50072611D01*
X80493522Y-50072609D01*
X80524223Y-49958032D01*
X80524223Y-49839414D01*
X80500297Y-49750121D01*
X80503500Y-49689022D01*
X80542005Y-49641472D01*
X80595924Y-49625500D01*
X81058257Y-49625500D01*
X81058260Y-49625500D01*
X81126393Y-49615573D01*
X81231483Y-49564198D01*
X81314198Y-49481483D01*
X81365573Y-49376393D01*
X81375500Y-49308260D01*
X81375500Y-48691740D01*
X81365573Y-48623607D01*
X81361703Y-48615691D01*
X81340483Y-48572285D01*
X81314198Y-48518517D01*
X81231483Y-48435802D01*
X81210406Y-48425498D01*
X81126395Y-48384427D01*
X81099139Y-48380456D01*
X81058260Y-48374500D01*
X80605123Y-48374500D01*
X80546932Y-48355593D01*
X80535120Y-48345504D01*
X80056059Y-47866444D01*
X80056057Y-47866442D01*
X80022304Y-47852461D01*
X79954800Y-47824500D01*
X79424000Y-47824500D01*
X79365809Y-47805593D01*
X79329845Y-47756093D01*
X79325000Y-47725500D01*
X79325000Y-47574000D01*
X79343907Y-47515809D01*
X79393407Y-47479845D01*
X79424000Y-47475000D01*
X83636563Y-47475000D01*
X83694754Y-47493907D01*
G37*
%TD.AperFunction*%
%TD*%
%TA.AperFunction,Conductor*%
%TO.N,VBUS*%
G36*
X43003068Y-69194407D02*
G01*
X43014881Y-69204496D01*
X43842514Y-70032130D01*
X43870291Y-70086647D01*
X43870476Y-70116407D01*
X43869427Y-70123607D01*
X43859500Y-70191740D01*
X43859500Y-70808260D01*
X43865654Y-70850500D01*
X43869427Y-70876395D01*
X43895387Y-70929496D01*
X43920802Y-70981483D01*
X44003517Y-71064198D01*
X44028569Y-71076445D01*
X44108604Y-71115572D01*
X44108605Y-71115572D01*
X44108607Y-71115573D01*
X44176740Y-71125500D01*
X44176743Y-71125500D01*
X44643257Y-71125500D01*
X44643260Y-71125500D01*
X44711393Y-71115573D01*
X44730024Y-71106465D01*
X45533726Y-71106465D01*
X45533726Y-71225083D01*
X45537592Y-71239511D01*
X45564428Y-71339664D01*
X45623733Y-71442382D01*
X45623735Y-71442384D01*
X45623737Y-71442387D01*
X45707613Y-71526263D01*
X45707615Y-71526264D01*
X45707617Y-71526266D01*
X45810336Y-71585571D01*
X45810337Y-71585571D01*
X45810340Y-71585573D01*
X45924917Y-71616274D01*
X45924919Y-71616274D01*
X46043533Y-71616274D01*
X46043535Y-71616274D01*
X46158112Y-71585573D01*
X46158114Y-71585571D01*
X46158116Y-71585571D01*
X46260834Y-71526266D01*
X46260834Y-71526265D01*
X46260839Y-71526263D01*
X46344715Y-71442387D01*
X46404025Y-71339660D01*
X46433031Y-71231405D01*
X46458654Y-71187028D01*
X46716187Y-70929496D01*
X46770703Y-70901719D01*
X46786190Y-70900500D01*
X46814819Y-70900500D01*
X46814820Y-70900500D01*
X46814821Y-70900499D01*
X46814827Y-70900499D01*
X46836623Y-70896162D01*
X46858722Y-70891767D01*
X46908504Y-70858504D01*
X46941767Y-70808722D01*
X46950500Y-70764820D01*
X46950500Y-70707045D01*
X46963765Y-70657543D01*
X46976612Y-70635291D01*
X46976611Y-70635291D01*
X46976614Y-70635288D01*
X47000500Y-70546143D01*
X47000500Y-70453856D01*
X46976614Y-70364712D01*
X46963762Y-70342451D01*
X46950500Y-70292953D01*
X46950500Y-70235181D01*
X46950499Y-70235172D01*
X46941767Y-70191279D01*
X46941765Y-70191275D01*
X46941323Y-70190614D01*
X46908504Y-70141496D01*
X46881402Y-70123387D01*
X46858724Y-70108234D01*
X46858720Y-70108232D01*
X46814827Y-70099500D01*
X46814820Y-70099500D01*
X46485180Y-70099500D01*
X46485172Y-70099500D01*
X46441279Y-70108232D01*
X46441275Y-70108234D01*
X46391498Y-70141494D01*
X46391494Y-70141498D01*
X46358234Y-70191275D01*
X46358232Y-70191279D01*
X46349500Y-70235172D01*
X46349500Y-70263810D01*
X46330593Y-70322001D01*
X46320503Y-70333814D01*
X45962970Y-70691346D01*
X45918591Y-70716968D01*
X45810340Y-70745974D01*
X45810336Y-70745976D01*
X45707617Y-70805281D01*
X45623733Y-70889165D01*
X45564428Y-70991883D01*
X45554222Y-71029972D01*
X45533726Y-71106465D01*
X44730024Y-71106465D01*
X44816483Y-71064198D01*
X44899198Y-70981483D01*
X44950573Y-70876393D01*
X44960500Y-70808260D01*
X44960500Y-70191740D01*
X44950573Y-70123607D01*
X44950466Y-70123389D01*
X44920266Y-70061613D01*
X44899198Y-70018517D01*
X44816483Y-69935802D01*
X44816481Y-69935801D01*
X44711395Y-69884427D01*
X44684139Y-69880456D01*
X44643260Y-69874500D01*
X44643257Y-69874500D01*
X44505124Y-69874500D01*
X44446933Y-69855593D01*
X44435121Y-69845504D01*
X44034120Y-69444504D01*
X44006342Y-69389987D01*
X44015913Y-69329555D01*
X44059178Y-69286290D01*
X44104123Y-69275500D01*
X48454800Y-69275500D01*
X48539656Y-69240350D01*
X48600651Y-69235549D01*
X48652820Y-69267517D01*
X48676236Y-69324045D01*
X48675882Y-69343220D01*
X48674500Y-69355135D01*
X48674500Y-69744860D01*
X48674501Y-69744863D01*
X48677414Y-69769990D01*
X48685936Y-69789290D01*
X48722794Y-69872765D01*
X48802235Y-69952206D01*
X48905009Y-69997585D01*
X48930135Y-70000500D01*
X49235858Y-70000499D01*
X49294048Y-70019406D01*
X49327322Y-70061613D01*
X49362474Y-70146476D01*
X49362474Y-70146477D01*
X49366441Y-70156055D01*
X49366442Y-70156056D01*
X49366443Y-70156058D01*
X49520505Y-70310121D01*
X49548281Y-70364635D01*
X49549500Y-70380122D01*
X49549500Y-70459309D01*
X49572767Y-70546141D01*
X49580202Y-70573890D01*
X49639507Y-70676608D01*
X49639509Y-70676610D01*
X49639511Y-70676613D01*
X49723387Y-70760489D01*
X49723389Y-70760490D01*
X49723391Y-70760492D01*
X49826110Y-70819797D01*
X49826111Y-70819797D01*
X49826114Y-70819799D01*
X49940691Y-70850500D01*
X49940693Y-70850500D01*
X50059307Y-70850500D01*
X50059309Y-70850500D01*
X50173886Y-70819799D01*
X50173888Y-70819797D01*
X50173890Y-70819797D01*
X50276608Y-70760492D01*
X50276608Y-70760491D01*
X50276613Y-70760489D01*
X50360489Y-70676613D01*
X50366514Y-70666176D01*
X50411982Y-70625236D01*
X50472832Y-70618839D01*
X50525821Y-70649430D01*
X50550592Y-70704271D01*
X50552414Y-70719990D01*
X50570298Y-70760492D01*
X50597794Y-70822765D01*
X50677235Y-70902206D01*
X50780009Y-70947585D01*
X50805135Y-70950500D01*
X50927045Y-70950499D01*
X50985236Y-70969406D01*
X50997050Y-70979495D01*
X51022831Y-71005276D01*
X51078775Y-71042657D01*
X51116654Y-71090707D01*
X51119056Y-71151846D01*
X51085062Y-71202719D01*
X51073274Y-71210708D01*
X51023389Y-71239509D01*
X50939507Y-71323391D01*
X50880202Y-71426109D01*
X50874915Y-71445841D01*
X50849500Y-71540691D01*
X50849500Y-71659309D01*
X50856103Y-71683951D01*
X50880202Y-71773890D01*
X50939507Y-71876608D01*
X50939509Y-71876610D01*
X50939511Y-71876613D01*
X51023387Y-71960489D01*
X51023389Y-71960490D01*
X51023391Y-71960492D01*
X51126110Y-72019797D01*
X51126111Y-72019797D01*
X51126114Y-72019799D01*
X51226625Y-72046731D01*
X51277937Y-72080053D01*
X51299864Y-72137174D01*
X51300000Y-72142356D01*
X51300000Y-72901000D01*
X51281093Y-72959191D01*
X51231593Y-72995155D01*
X51201000Y-73000000D01*
X49242357Y-73000000D01*
X49184166Y-72981093D01*
X49148202Y-72931593D01*
X49146730Y-72926623D01*
X49119799Y-72826114D01*
X49119797Y-72826111D01*
X49119797Y-72826109D01*
X49060492Y-72723391D01*
X49060490Y-72723389D01*
X49060489Y-72723387D01*
X48976613Y-72639511D01*
X48976610Y-72639509D01*
X48976608Y-72639507D01*
X48873889Y-72580202D01*
X48873890Y-72580202D01*
X48860351Y-72576574D01*
X48759309Y-72549500D01*
X48640691Y-72549500D01*
X48570567Y-72568289D01*
X48526109Y-72580202D01*
X48423391Y-72639507D01*
X48339507Y-72723391D01*
X48280202Y-72826109D01*
X48253270Y-72926623D01*
X48219946Y-72977938D01*
X48162824Y-72999864D01*
X48157643Y-73000000D01*
X41459000Y-73000000D01*
X41400809Y-72981093D01*
X41364845Y-72931593D01*
X41360000Y-72901000D01*
X41360000Y-71586277D01*
X41378907Y-71528086D01*
X41414052Y-71498069D01*
X41453342Y-71478050D01*
X41453346Y-71478046D01*
X41459651Y-71473467D01*
X41461042Y-71475381D01*
X41505289Y-71452827D01*
X41565723Y-71462389D01*
X41581052Y-71472058D01*
X41768998Y-71616274D01*
X41788234Y-71631034D01*
X41822889Y-71681459D01*
X41823592Y-71683951D01*
X41833182Y-71719738D01*
X41833183Y-71719741D01*
X41892488Y-71822460D01*
X41892490Y-71822462D01*
X41892492Y-71822465D01*
X41976368Y-71906341D01*
X41976370Y-71906342D01*
X41976372Y-71906344D01*
X42079091Y-71965649D01*
X42079092Y-71965649D01*
X42079095Y-71965651D01*
X42193672Y-71996352D01*
X42193674Y-71996352D01*
X42312288Y-71996352D01*
X42312290Y-71996352D01*
X42426867Y-71965651D01*
X42426869Y-71965649D01*
X42426871Y-71965649D01*
X42529589Y-71906344D01*
X42529589Y-71906343D01*
X42529594Y-71906341D01*
X42613470Y-71822465D01*
X42641515Y-71773890D01*
X42672778Y-71719742D01*
X42672778Y-71719740D01*
X42672780Y-71719738D01*
X42703481Y-71605161D01*
X42703481Y-71486543D01*
X42672780Y-71371966D01*
X42672778Y-71371963D01*
X42672778Y-71371961D01*
X42613473Y-71269243D01*
X42613471Y-71269241D01*
X42613470Y-71269239D01*
X42529594Y-71185363D01*
X42529591Y-71185361D01*
X42529589Y-71185359D01*
X42426870Y-71126054D01*
X42426871Y-71126054D01*
X42387755Y-71115573D01*
X42312290Y-71095352D01*
X42312288Y-71095352D01*
X42275243Y-71095352D01*
X42217052Y-71076445D01*
X42214976Y-71074894D01*
X41654232Y-70644619D01*
X41619576Y-70594194D01*
X41615499Y-70566077D01*
X41615499Y-69818478D01*
X41615498Y-69818476D01*
X41600647Y-69724700D01*
X41600646Y-69724698D01*
X41600646Y-69724696D01*
X41543050Y-69611658D01*
X41453342Y-69521950D01*
X41453339Y-69521948D01*
X41414054Y-69501931D01*
X41370790Y-69458666D01*
X41360000Y-69413722D01*
X41360000Y-69274500D01*
X41378907Y-69216309D01*
X41428407Y-69180345D01*
X41459000Y-69175500D01*
X42944877Y-69175500D01*
X43003068Y-69194407D01*
G37*
%TD.AperFunction*%
%TD*%
%TA.AperFunction,Conductor*%
%TO.N,VOUT*%
G36*
X50283691Y-54894407D02*
G01*
X50319655Y-54943907D01*
X50324500Y-54974500D01*
X50324500Y-59854800D01*
X50351424Y-59919799D01*
X50364141Y-59950500D01*
X50364142Y-59950504D01*
X50366440Y-59956054D01*
X50366441Y-59956055D01*
X50366442Y-59956056D01*
X50366443Y-59956058D01*
X50833772Y-60423387D01*
X51291381Y-60880996D01*
X51319158Y-60935513D01*
X51309587Y-60995945D01*
X51266322Y-61039210D01*
X51221377Y-61050000D01*
X48429904Y-61050000D01*
X48371713Y-61031093D01*
X48335749Y-60981593D01*
X48335749Y-60920407D01*
X48340963Y-60907519D01*
X48364866Y-60858625D01*
X48375500Y-60785636D01*
X48375500Y-60214364D01*
X48364866Y-60141375D01*
X48309826Y-60028789D01*
X48221211Y-59940174D01*
X48131018Y-59896081D01*
X48087045Y-59853538D01*
X48075500Y-59807141D01*
X48075500Y-59045198D01*
X48033559Y-58943944D01*
X48033558Y-58943943D01*
X48033558Y-58943942D01*
X47456058Y-58366443D01*
X47354800Y-58324500D01*
X47354799Y-58324500D01*
X47099000Y-58324500D01*
X47040809Y-58305593D01*
X47004845Y-58256093D01*
X47000000Y-58225500D01*
X47000000Y-54974500D01*
X47018907Y-54916309D01*
X47068407Y-54880345D01*
X47099000Y-54875500D01*
X50225500Y-54875500D01*
X50283691Y-54894407D01*
G37*
%TD.AperFunction*%
%TA.AperFunction,Conductor*%
G36*
X73684191Y-52883907D02*
G01*
X73720155Y-52933407D01*
X73725000Y-52964000D01*
X73725000Y-57071101D01*
X73706093Y-57129292D01*
X73657307Y-57165021D01*
X73630751Y-57173873D01*
X73569567Y-57174337D01*
X73568606Y-57174028D01*
X71579245Y-56521906D01*
X71469546Y-56508633D01*
X71452037Y-56506515D01*
X71452036Y-56506515D01*
X71388153Y-56511375D01*
X71324269Y-56516235D01*
X71324265Y-56516235D01*
X71200855Y-56550694D01*
X71200854Y-56550694D01*
X71086524Y-56608573D01*
X70984716Y-56688405D01*
X70927258Y-56709433D01*
X70923629Y-56709500D01*
X70805138Y-56709500D01*
X70805135Y-56709501D01*
X70780009Y-56712414D01*
X70677235Y-56757794D01*
X70597792Y-56837237D01*
X70577202Y-56883870D01*
X70536402Y-56929466D01*
X70476593Y-56942371D01*
X70420621Y-56917657D01*
X70400902Y-56893383D01*
X70360490Y-56823389D01*
X70360489Y-56823387D01*
X70304494Y-56767392D01*
X70276719Y-56712878D01*
X70275500Y-56697391D01*
X70275500Y-56696767D01*
X70294407Y-56638576D01*
X70318556Y-56615089D01*
X70322762Y-56612207D01*
X70322765Y-56612206D01*
X70402206Y-56532765D01*
X70447585Y-56429991D01*
X70450500Y-56404865D01*
X70450499Y-56015136D01*
X70447585Y-55990009D01*
X70402206Y-55887235D01*
X70402205Y-55887234D01*
X70399022Y-55880025D01*
X70392813Y-55819155D01*
X70419580Y-55770034D01*
X70933557Y-55256058D01*
X70975500Y-55154800D01*
X70975500Y-55017808D01*
X70994407Y-54959617D01*
X71031021Y-54928867D01*
X71081483Y-54904198D01*
X71164198Y-54821483D01*
X71215573Y-54716393D01*
X71225500Y-54648260D01*
X71225500Y-54031740D01*
X71215573Y-53963607D01*
X71164198Y-53858517D01*
X71081483Y-53775802D01*
X71081481Y-53775801D01*
X70976395Y-53724427D01*
X70949139Y-53720456D01*
X70908260Y-53714500D01*
X70441740Y-53714500D01*
X70407673Y-53719463D01*
X70373604Y-53724427D01*
X70268518Y-53775801D01*
X70185801Y-53858518D01*
X70134427Y-53963604D01*
X70134427Y-53963607D01*
X70124500Y-54031740D01*
X70124500Y-54648260D01*
X70125453Y-54654800D01*
X70134427Y-54716395D01*
X70180779Y-54811209D01*
X70185802Y-54821483D01*
X70268517Y-54904198D01*
X70293291Y-54916309D01*
X70303578Y-54921338D01*
X70347552Y-54963882D01*
X70358121Y-55024148D01*
X70331248Y-55079116D01*
X70330101Y-55080283D01*
X69679879Y-55730504D01*
X69625362Y-55758281D01*
X69609875Y-55759500D01*
X68930139Y-55759500D01*
X68930136Y-55759501D01*
X68905009Y-55762414D01*
X68821019Y-55799500D01*
X68802235Y-55807794D01*
X68769824Y-55840204D01*
X68715310Y-55867980D01*
X68654878Y-55858409D01*
X68629819Y-55840203D01*
X67354496Y-54564880D01*
X67326719Y-54510363D01*
X67325500Y-54494876D01*
X67325500Y-54054367D01*
X67322204Y-54031743D01*
X67314866Y-53981375D01*
X67259826Y-53868789D01*
X67171211Y-53780174D01*
X67058625Y-53725134D01*
X67058626Y-53725134D01*
X67040377Y-53722475D01*
X66985636Y-53714500D01*
X66464364Y-53714500D01*
X66420570Y-53720880D01*
X66391373Y-53725134D01*
X66278790Y-53780173D01*
X66190173Y-53868790D01*
X66135134Y-53981373D01*
X66135134Y-53981375D01*
X66124500Y-54054364D01*
X66124500Y-54625636D01*
X66135134Y-54698625D01*
X66190174Y-54811211D01*
X66278789Y-54899826D01*
X66391375Y-54954866D01*
X66464364Y-54965500D01*
X66934877Y-54965500D01*
X66993068Y-54984407D01*
X67004880Y-54994495D01*
X67936208Y-55925824D01*
X67963985Y-55980340D01*
X67954414Y-56040772D01*
X67911149Y-56084037D01*
X67850717Y-56093608D01*
X67840584Y-56091454D01*
X67777309Y-56074500D01*
X67658691Y-56074500D01*
X67597161Y-56090987D01*
X67544109Y-56105202D01*
X67447058Y-56161236D01*
X67397558Y-56174500D01*
X67136008Y-56174500D01*
X67077817Y-56155593D01*
X67041853Y-56106093D01*
X67038227Y-56090987D01*
X67035647Y-56074699D01*
X67035646Y-56074697D01*
X67035646Y-56074696D01*
X66978050Y-55961658D01*
X66888342Y-55871950D01*
X66775304Y-55814354D01*
X66775305Y-55814354D01*
X66681521Y-55799500D01*
X65318478Y-55799500D01*
X65318476Y-55799501D01*
X65224700Y-55814352D01*
X65224695Y-55814354D01*
X65111659Y-55871949D01*
X65021949Y-55961659D01*
X64964354Y-56074695D01*
X64949500Y-56168478D01*
X64949500Y-56881520D01*
X64949501Y-56881523D01*
X64964352Y-56975299D01*
X64964354Y-56975304D01*
X65021950Y-57088342D01*
X65111658Y-57178050D01*
X65224696Y-57235646D01*
X65318481Y-57250500D01*
X66681518Y-57250499D01*
X66681521Y-57250499D01*
X66681522Y-57250498D01*
X66728411Y-57243072D01*
X66775299Y-57235647D01*
X66775299Y-57235646D01*
X66775304Y-57235646D01*
X66888342Y-57178050D01*
X66978050Y-57088342D01*
X67035646Y-56975304D01*
X67038226Y-56959013D01*
X67066003Y-56904497D01*
X67120519Y-56876719D01*
X67136007Y-56875500D01*
X67397558Y-56875500D01*
X67447058Y-56888764D01*
X67544110Y-56944797D01*
X67544111Y-56944797D01*
X67544114Y-56944799D01*
X67658691Y-56975500D01*
X67658693Y-56975500D01*
X67777307Y-56975500D01*
X67777309Y-56975500D01*
X67891886Y-56944799D01*
X67891888Y-56944797D01*
X67891890Y-56944797D01*
X67994608Y-56885492D01*
X67994608Y-56885491D01*
X67994613Y-56885489D01*
X68078489Y-56801613D01*
X68120467Y-56728906D01*
X68137797Y-56698890D01*
X68137797Y-56698888D01*
X68137799Y-56698886D01*
X68168500Y-56584309D01*
X68168500Y-56465691D01*
X68151546Y-56402418D01*
X68154747Y-56341317D01*
X68193252Y-56293767D01*
X68252353Y-56277931D01*
X68309474Y-56299857D01*
X68317166Y-56306782D01*
X68443942Y-56433558D01*
X68443943Y-56433558D01*
X68443944Y-56433559D01*
X68545198Y-56475500D01*
X68545200Y-56475500D01*
X68633001Y-56475500D01*
X68691192Y-56494407D01*
X68716603Y-56525886D01*
X68717610Y-56525197D01*
X68722792Y-56532762D01*
X68722793Y-56532763D01*
X68722794Y-56532765D01*
X68802235Y-56612206D01*
X68905009Y-56657585D01*
X68930135Y-56660500D01*
X69563747Y-56660499D01*
X69621938Y-56679406D01*
X69657902Y-56728906D01*
X69657902Y-56790092D01*
X69642289Y-56819767D01*
X69639507Y-56823392D01*
X69580202Y-56926109D01*
X69580201Y-56926114D01*
X69549500Y-57040691D01*
X69549500Y-57159309D01*
X69569954Y-57235645D01*
X69580202Y-57273890D01*
X69639507Y-57376608D01*
X69639509Y-57376610D01*
X69639511Y-57376613D01*
X69723387Y-57460489D01*
X69723389Y-57460490D01*
X69723391Y-57460492D01*
X69826110Y-57519797D01*
X69826111Y-57519797D01*
X69826114Y-57519799D01*
X69940691Y-57550500D01*
X69940693Y-57550500D01*
X70059307Y-57550500D01*
X70059309Y-57550500D01*
X70173886Y-57519799D01*
X70173888Y-57519797D01*
X70173890Y-57519797D01*
X70276608Y-57460492D01*
X70276608Y-57460491D01*
X70276613Y-57460489D01*
X70360489Y-57376613D01*
X70371458Y-57357613D01*
X70416927Y-57316672D01*
X70477777Y-57310276D01*
X70530766Y-57340868D01*
X70548587Y-57373539D01*
X70549407Y-57373178D01*
X70552414Y-57379990D01*
X70552415Y-57379991D01*
X70597794Y-57482765D01*
X70677235Y-57562206D01*
X70780009Y-57607585D01*
X70805135Y-57610500D01*
X70926946Y-57610499D01*
X70985137Y-57629406D01*
X70991438Y-57634386D01*
X71062355Y-57695276D01*
X71062357Y-57695277D01*
X71173983Y-57758175D01*
X71173985Y-57758176D01*
X71173986Y-57758176D01*
X71173991Y-57758179D01*
X73168902Y-58412120D01*
X73218308Y-58448213D01*
X73224071Y-58457167D01*
X73261600Y-58523003D01*
X73261602Y-58523005D01*
X73261603Y-58523007D01*
X73377825Y-58657011D01*
X73517957Y-58765768D01*
X73670275Y-58841927D01*
X73713866Y-58884860D01*
X73725000Y-58930474D01*
X73725000Y-60951000D01*
X73706093Y-61009191D01*
X73656593Y-61045155D01*
X73626000Y-61050000D01*
X69189593Y-61050000D01*
X69131402Y-61031093D01*
X69095438Y-60981593D01*
X69095438Y-60920407D01*
X69103856Y-60901500D01*
X69119798Y-60873887D01*
X69119799Y-60873886D01*
X69150500Y-60759309D01*
X69150500Y-60680123D01*
X69169407Y-60621932D01*
X69179495Y-60610121D01*
X69203019Y-60586596D01*
X69257535Y-60558817D01*
X69316505Y-60567658D01*
X69355244Y-60586596D01*
X69373607Y-60595573D01*
X69441740Y-60605500D01*
X69441743Y-60605500D01*
X69908257Y-60605500D01*
X69908260Y-60605500D01*
X69976393Y-60595573D01*
X70081483Y-60544198D01*
X70164198Y-60461483D01*
X70215573Y-60356393D01*
X70225500Y-60288260D01*
X70225500Y-59671740D01*
X70215573Y-59603607D01*
X70212437Y-59597193D01*
X70164198Y-59498518D01*
X70164198Y-59498517D01*
X70081483Y-59415802D01*
X70081481Y-59415801D01*
X69976395Y-59364427D01*
X69949139Y-59360456D01*
X69908260Y-59354500D01*
X69441740Y-59354500D01*
X69407673Y-59359463D01*
X69373604Y-59364427D01*
X69268518Y-59415801D01*
X69185801Y-59498518D01*
X69134427Y-59603604D01*
X69124500Y-59671743D01*
X69124500Y-59844876D01*
X69105593Y-59903067D01*
X69095504Y-59914879D01*
X68789878Y-60220504D01*
X68735363Y-60248281D01*
X68719876Y-60249500D01*
X68640691Y-60249500D01*
X68570567Y-60268289D01*
X68526109Y-60280202D01*
X68423391Y-60339507D01*
X68339507Y-60423391D01*
X68280202Y-60526109D01*
X68280201Y-60526114D01*
X68249500Y-60640691D01*
X68249500Y-60759309D01*
X68269967Y-60835693D01*
X68280201Y-60873887D01*
X68296144Y-60901500D01*
X68308865Y-60961348D01*
X68283978Y-61017244D01*
X68230990Y-61047837D01*
X68210407Y-61050000D01*
X52280624Y-61050000D01*
X52222433Y-61031093D01*
X52210620Y-61021004D01*
X50904496Y-59714880D01*
X50876719Y-59660363D01*
X50875500Y-59644876D01*
X50875500Y-58940691D01*
X70149500Y-58940691D01*
X70149500Y-59059309D01*
X70149833Y-59060551D01*
X70180202Y-59173890D01*
X70239507Y-59276608D01*
X70239509Y-59276610D01*
X70239511Y-59276613D01*
X70323387Y-59360489D01*
X70323389Y-59360490D01*
X70323391Y-59360492D01*
X70426110Y-59419797D01*
X70426111Y-59419797D01*
X70426114Y-59419799D01*
X70540691Y-59450500D01*
X70540693Y-59450500D01*
X70619877Y-59450500D01*
X70678068Y-59469407D01*
X70689880Y-59479496D01*
X70753062Y-59542677D01*
X70780840Y-59597193D01*
X70781025Y-59626953D01*
X70774500Y-59671740D01*
X70774500Y-60288260D01*
X70780034Y-60326242D01*
X70784427Y-60356395D01*
X70817178Y-60423387D01*
X70835802Y-60461483D01*
X70918517Y-60544198D01*
X70948421Y-60558817D01*
X71023604Y-60595572D01*
X71023605Y-60595572D01*
X71023607Y-60595573D01*
X71091740Y-60605500D01*
X71091743Y-60605500D01*
X71558257Y-60605500D01*
X71558260Y-60605500D01*
X71626393Y-60595573D01*
X71731483Y-60544198D01*
X71814198Y-60461483D01*
X71865573Y-60356393D01*
X71875500Y-60288260D01*
X71875500Y-59671740D01*
X71865573Y-59603607D01*
X71862437Y-59597193D01*
X71814198Y-59498518D01*
X71814198Y-59498517D01*
X71731483Y-59415802D01*
X71731481Y-59415801D01*
X71626395Y-59364427D01*
X71599139Y-59360456D01*
X71558260Y-59354500D01*
X71558257Y-59354500D01*
X71385124Y-59354500D01*
X71326933Y-59335593D01*
X71315120Y-59325504D01*
X71079496Y-59089880D01*
X71051719Y-59035363D01*
X71050500Y-59019876D01*
X71050500Y-58940692D01*
X71033032Y-58875500D01*
X71019799Y-58826114D01*
X71019797Y-58826111D01*
X71019797Y-58826109D01*
X70960492Y-58723391D01*
X70960490Y-58723389D01*
X70960489Y-58723387D01*
X70876613Y-58639511D01*
X70876610Y-58639509D01*
X70876608Y-58639507D01*
X70773889Y-58580202D01*
X70773890Y-58580202D01*
X70760351Y-58576574D01*
X70659309Y-58549500D01*
X70540691Y-58549500D01*
X70470567Y-58568289D01*
X70426109Y-58580202D01*
X70323391Y-58639507D01*
X70239507Y-58723391D01*
X70180202Y-58826109D01*
X70175964Y-58841926D01*
X70149500Y-58940691D01*
X50875500Y-58940691D01*
X50875500Y-56168478D01*
X51449500Y-56168478D01*
X51449500Y-56881520D01*
X51449501Y-56881523D01*
X51464352Y-56975299D01*
X51464354Y-56975304D01*
X51521950Y-57088342D01*
X51611658Y-57178050D01*
X51724696Y-57235646D01*
X51818481Y-57250500D01*
X53181518Y-57250499D01*
X53181521Y-57250499D01*
X53181522Y-57250498D01*
X53228411Y-57243072D01*
X53275299Y-57235647D01*
X53275299Y-57235646D01*
X53275304Y-57235646D01*
X53388342Y-57178050D01*
X53478050Y-57088342D01*
X53535646Y-56975304D01*
X53538226Y-56959013D01*
X53566003Y-56904497D01*
X53620519Y-56876719D01*
X53636007Y-56875500D01*
X53897558Y-56875500D01*
X53947058Y-56888764D01*
X54044110Y-56944797D01*
X54044111Y-56944797D01*
X54044114Y-56944799D01*
X54158691Y-56975500D01*
X54158693Y-56975500D01*
X54277307Y-56975500D01*
X54277309Y-56975500D01*
X54391886Y-56944799D01*
X54391888Y-56944797D01*
X54391890Y-56944797D01*
X54494608Y-56885492D01*
X54494608Y-56885491D01*
X54494613Y-56885489D01*
X54578489Y-56801613D01*
X54620467Y-56728906D01*
X54637797Y-56698890D01*
X54637797Y-56698888D01*
X54637799Y-56698886D01*
X54668500Y-56584309D01*
X54668500Y-56465691D01*
X54637799Y-56351114D01*
X54637797Y-56351111D01*
X54637797Y-56351109D01*
X54578492Y-56248391D01*
X54578490Y-56248389D01*
X54578489Y-56248387D01*
X54498580Y-56168478D01*
X55949500Y-56168478D01*
X55949500Y-56881520D01*
X55949501Y-56881523D01*
X55964352Y-56975299D01*
X55964354Y-56975304D01*
X56021950Y-57088342D01*
X56111658Y-57178050D01*
X56224696Y-57235646D01*
X56318481Y-57250500D01*
X57681518Y-57250499D01*
X57681521Y-57250499D01*
X57681522Y-57250498D01*
X57728411Y-57243072D01*
X57775299Y-57235647D01*
X57775299Y-57235646D01*
X57775304Y-57235646D01*
X57888342Y-57178050D01*
X57978050Y-57088342D01*
X58035646Y-56975304D01*
X58038226Y-56959013D01*
X58066003Y-56904497D01*
X58120519Y-56876719D01*
X58136007Y-56875500D01*
X58397558Y-56875500D01*
X58447058Y-56888764D01*
X58544110Y-56944797D01*
X58544111Y-56944797D01*
X58544114Y-56944799D01*
X58658691Y-56975500D01*
X58658693Y-56975500D01*
X58777307Y-56975500D01*
X58777309Y-56975500D01*
X58891886Y-56944799D01*
X58891888Y-56944797D01*
X58891890Y-56944797D01*
X58994608Y-56885492D01*
X58994608Y-56885491D01*
X58994613Y-56885489D01*
X59078489Y-56801613D01*
X59120467Y-56728906D01*
X59137797Y-56698890D01*
X59137797Y-56698888D01*
X59137799Y-56698886D01*
X59168500Y-56584309D01*
X59168500Y-56465691D01*
X59137799Y-56351114D01*
X59137797Y-56351111D01*
X59137797Y-56351109D01*
X59078492Y-56248391D01*
X59078490Y-56248389D01*
X59078489Y-56248387D01*
X58998580Y-56168478D01*
X60449500Y-56168478D01*
X60449500Y-56881520D01*
X60449501Y-56881523D01*
X60464352Y-56975299D01*
X60464354Y-56975304D01*
X60521950Y-57088342D01*
X60611658Y-57178050D01*
X60724696Y-57235646D01*
X60818481Y-57250500D01*
X62181518Y-57250499D01*
X62181521Y-57250499D01*
X62181522Y-57250498D01*
X62228411Y-57243072D01*
X62275299Y-57235647D01*
X62275299Y-57235646D01*
X62275304Y-57235646D01*
X62388342Y-57178050D01*
X62478050Y-57088342D01*
X62535646Y-56975304D01*
X62538226Y-56959013D01*
X62566003Y-56904497D01*
X62620519Y-56876719D01*
X62636007Y-56875500D01*
X62897558Y-56875500D01*
X62947058Y-56888764D01*
X63044110Y-56944797D01*
X63044111Y-56944797D01*
X63044114Y-56944799D01*
X63158691Y-56975500D01*
X63158693Y-56975500D01*
X63277307Y-56975500D01*
X63277309Y-56975500D01*
X63391886Y-56944799D01*
X63391888Y-56944797D01*
X63391890Y-56944797D01*
X63494608Y-56885492D01*
X63494608Y-56885491D01*
X63494613Y-56885489D01*
X63578489Y-56801613D01*
X63620467Y-56728906D01*
X63637797Y-56698890D01*
X63637797Y-56698888D01*
X63637799Y-56698886D01*
X63668500Y-56584309D01*
X63668500Y-56465691D01*
X63637799Y-56351114D01*
X63637797Y-56351111D01*
X63637797Y-56351109D01*
X63578492Y-56248391D01*
X63578490Y-56248389D01*
X63578489Y-56248387D01*
X63494613Y-56164511D01*
X63494610Y-56164509D01*
X63494608Y-56164507D01*
X63391889Y-56105202D01*
X63391890Y-56105202D01*
X63378351Y-56101574D01*
X63277309Y-56074500D01*
X63158691Y-56074500D01*
X63097161Y-56090987D01*
X63044109Y-56105202D01*
X62947058Y-56161236D01*
X62897558Y-56174500D01*
X62636008Y-56174500D01*
X62577817Y-56155593D01*
X62541853Y-56106093D01*
X62538227Y-56090987D01*
X62535647Y-56074699D01*
X62535646Y-56074697D01*
X62535646Y-56074696D01*
X62478050Y-55961658D01*
X62388342Y-55871950D01*
X62275304Y-55814354D01*
X62275305Y-55814354D01*
X62181521Y-55799500D01*
X60818478Y-55799500D01*
X60818476Y-55799501D01*
X60724700Y-55814352D01*
X60724695Y-55814354D01*
X60611659Y-55871949D01*
X60521949Y-55961659D01*
X60464354Y-56074695D01*
X60449500Y-56168478D01*
X58998580Y-56168478D01*
X58994613Y-56164511D01*
X58994610Y-56164509D01*
X58994608Y-56164507D01*
X58891889Y-56105202D01*
X58891890Y-56105202D01*
X58878351Y-56101574D01*
X58777309Y-56074500D01*
X58658691Y-56074500D01*
X58597161Y-56090987D01*
X58544109Y-56105202D01*
X58447058Y-56161236D01*
X58397558Y-56174500D01*
X58136008Y-56174500D01*
X58077817Y-56155593D01*
X58041853Y-56106093D01*
X58038227Y-56090987D01*
X58035647Y-56074699D01*
X58035646Y-56074697D01*
X58035646Y-56074696D01*
X57978050Y-55961658D01*
X57888342Y-55871950D01*
X57775304Y-55814354D01*
X57775305Y-55814354D01*
X57681521Y-55799500D01*
X56318478Y-55799500D01*
X56318476Y-55799501D01*
X56224700Y-55814352D01*
X56224695Y-55814354D01*
X56111659Y-55871949D01*
X56021949Y-55961659D01*
X55964354Y-56074695D01*
X55949500Y-56168478D01*
X54498580Y-56168478D01*
X54494613Y-56164511D01*
X54494610Y-56164509D01*
X54494608Y-56164507D01*
X54391889Y-56105202D01*
X54391890Y-56105202D01*
X54378351Y-56101574D01*
X54277309Y-56074500D01*
X54158691Y-56074500D01*
X54097161Y-56090987D01*
X54044109Y-56105202D01*
X53947058Y-56161236D01*
X53897558Y-56174500D01*
X53636008Y-56174500D01*
X53577817Y-56155593D01*
X53541853Y-56106093D01*
X53538227Y-56090987D01*
X53535647Y-56074699D01*
X53535646Y-56074697D01*
X53535646Y-56074696D01*
X53478050Y-55961658D01*
X53388342Y-55871950D01*
X53275304Y-55814354D01*
X53275305Y-55814354D01*
X53181521Y-55799500D01*
X51818478Y-55799500D01*
X51818476Y-55799501D01*
X51724700Y-55814352D01*
X51724695Y-55814354D01*
X51611659Y-55871949D01*
X51521949Y-55961659D01*
X51464354Y-56074695D01*
X51449500Y-56168478D01*
X50875500Y-56168478D01*
X50875500Y-54545200D01*
X50871641Y-54535884D01*
X50833557Y-54443942D01*
X50756058Y-54366443D01*
X50654800Y-54324500D01*
X47099000Y-54324500D01*
X47040809Y-54305593D01*
X47004845Y-54256093D01*
X47000000Y-54225500D01*
X47000000Y-52964000D01*
X47018907Y-52905809D01*
X47068407Y-52869845D01*
X47099000Y-52865000D01*
X73626000Y-52865000D01*
X73684191Y-52883907D01*
G37*
%TD.AperFunction*%
%TD*%
M02*
